<svg xmlns="http://www.w3.org/2000/svg" viewBox="0 0 74.46 88.12"><defs><style>.cls-1,.cls-3{fill:none;}.cls-2{fill:#fff;}.cls-3{stroke:#fff;stroke-miterlimit:10;stroke-width:3px;}</style></defs><title>Asset 1</title><g id="Layer_2" data-name="Layer 2"><g id="Layer_2-2" data-name="Layer 2"><path class="cls-1" d="M65.44,12.34a1.74,1.74,0,0,0,.19-1.09,11.05,11.05,0,0,0-6.75-6.94,1.19,1.19,0,0,0-1.5.3Q38.32,23.71,19.23,42.79a2.54,2.54,0,0,0-.72,1c-.83,3.27-1.61,6.55-2.46,10,3.17-.78,6.16-1.46,9.11-2.28a5.53,5.53,0,0,0,2.36-1.35q18.72-18.61,37.35-37.3C65.07,12.73,65.34,12.57,65.44,12.34Z"/><path class="cls-2" d="M63.8,67.58A10.62,10.62,0,0,0,74.44,56.9q0-16.3,0-32.6a10.46,10.46,0,0,0-5.52-9.52c-.22-.14-.42-.3-.64-.45,1.65-1.9,1.65-1.9.55-4.18a16.6,16.6,0,0,1-.77-1.59c-1.89-5-6.37-6.73-10.79-8.56C53,4.26,48.8,8.45,44.62,12.68a2.45,2.45,0,0,1-1.95.79q-15.78,0-31.54,0C4.61,13.46,0,18,0,24.5Q0,40.63,0,56.75A10.59,10.59,0,0,0,10.86,67.57q13.17,0,26.34,0a1.45,1.45,0,0,1,1.46.68A41.15,41.15,0,0,0,63.91,86.39c3.23.84,6.6,1.17,9.9,1.73l.13-.41C65,83.39,58.23,77.08,54.45,67.58,57.74,67.58,60.77,67.6,63.8,67.58ZM27.52,50.23a5.53,5.53,0,0,1-2.36,1.35c-2.95.82-5.94,1.5-9.11,2.28.85-3.48,1.63-6.76,2.46-10a2.54,2.54,0,0,1,.72-1Q38.31,23.7,57.38,4.61a1.19,1.19,0,0,1,1.5-.3,11.05,11.05,0,0,1,6.75,6.94,1.74,1.74,0,0,1-.19,1.09c-.1.23-.37.39-.57.59Q46.21,31.59,27.52,50.23Z"/><line class="cls-3" x1="16.46" y1="41.98" x2="28.46" y2="52.98"/><line class="cls-3" x1="51.46" y1="6.98" x2="63.46" y2="17.98"/></g></g></svg>