<svg xmlns="http://www.w3.org/2000/svg" viewBox="0 0 80.99 83.35"><defs><style>.cls-1{fill:#fff;}</style></defs><title>Asset 2</title><g id="Layer_2" data-name="Layer 2"><g id="Layer_1-2" data-name="Layer 1"><path class="cls-1" d="M62.52,0V2.59H81c-.41,3.47-.55,6.78-1.24,10a90.17,90.17,0,0,1-3.39,12A23.63,23.63,0,0,1,63.57,38.4c-2,.89-3.88,1.92-5.86,2.8-3.21,1.43-6.4,2.76-8.84,5.54-1.13,1.29-2.91,2-4.52,3.08,0,4.33-.15,8.89,0,13.43.16,3.64,2.6,5.66,6.27,7H30.33c.75-.35,1.37-.61,2-.92a6.93,6.93,0,0,0,4.08-6c.14-4.55,0-9.1,0-13-2.56-2.14-4.78-4-7-5.84a8,8,0,0,0-1.6-1c-3.52-1.68-7-3.34-10.6-5-6.33-2.87-10.4-7.78-13-14.11A63.08,63.08,0,0,1,0,4.5c0-.58,0-1.16,0-1.86H18.24V0ZM18.25,8H5.55c.46,2.51.83,4.9,1.33,7.27,1.72,8.13,5.45,14.9,13.07,19,1.1.59,2.28,1,3.43,1.56l.29-.36A61.14,61.14,0,0,1,18.25,8Zm44.24-.08a61.46,61.46,0,0,1-5.42,27.63C65.89,34.73,74.73,21,75,7.88Z"/><path class="cls-1" d="M24.75,83.35V73H53.41V83.35Z"/></g></g></svg>