<svg xmlns="http://www.w3.org/2000/svg" viewBox="0 0 90.68 59.8"><defs><style>.cls-1{fill:#fff;}</style></defs><title>Asset 2</title><g id="Layer_2" data-name="Layer 2"><g id="Layer_2-2" data-name="Layer 2"><path class="cls-1" d="M4.68,0H86L83.21,3,62.33,25q-7.11,7.52-14.24,15c-1.73,1.83-3.76,1.83-5.5,0q-6.84-7.2-13.66-14.42Q17.1,13.11,5.24.62Z"/><path class="cls-1" d="M86,59.8H4.64l25.56-27L33.25,36c2.25,2.37,4.47,4.78,6.76,7.12a7.35,7.35,0,0,0,9.58.93,11.26,11.26,0,0,0,1.61-1.48c3.08-3.22,6.14-6.46,9.27-9.77Z"/><path class="cls-1" d="M90.68,58.88c-9.2-9.71-18.28-19.31-27.45-29L90.68.92Z"/><path class="cls-1" d="M0,.91l27.45,29L0,58.88Z"/></g></g></svg>