<svg xmlns="http://www.w3.org/2000/svg" viewBox="0 0 77.03 88.23"><defs><style>.cls-1{fill:#fff;}</style></defs><title>Asset 3</title><g id="Layer_2" data-name="Layer 2"><g id="Layer_1-2" data-name="Layer 1"><path class="cls-1" d="M46.21,20.88q0,7.46,0,14.9c0,.32,0,.64,0,1,0,.76.32,1.47,1.13,1.34a1.8,1.8,0,0,0,1.12-1.23c.43-2.58.7-5.19,1-7.79.86-6.49,1.68-13,2.59-19.48a5.26,5.26,0,0,1,5.66-4.52,5.19,5.19,0,0,1,4.85,5.6c-.32,3.63-.88,7.25-1.35,10.87Q60.15,30.1,59,38.66c0,.27-.15.61,0,.82.29.53.63,1.32,1.08,1.42a1.9,1.9,0,0,0,1.58-.81,10,10,0,0,0,.75-2.49c1.36-5.22,2.71-10.45,4.09-15.66A5.42,5.42,0,0,1,72,17.71a5.32,5.32,0,0,1,5,4.85,6.73,6.73,0,0,1-.23,2.23C73.33,38.24,69.9,51.7,66.36,65.13a37.52,37.52,0,0,1-8.57,15.75c-5.85,6.47-13.08,8.53-21.5,6.72a27.4,27.4,0,0,1-18-12.82C12.62,65.82,6.78,57,1,48.06a5.71,5.71,0,0,1,9.3-6.63q4.77,6.41,9.6,12.77a3.32,3.32,0,0,0,1.24,1.06c1.56.66,3-.51,2.86-2.34-.24-3.17-.56-6.33-.86-9.5l-1.8-18.61C20.91,20,20.46,15.24,20,10.45A5.36,5.36,0,1,1,30.58,8.83c.13.86.18,1.73.27,2.6Q32,23.3,33.1,35.16c.08.88-.08,2.17,1.37,2.05s1.07-1.36,1.07-2.26c0-9.62,0-19.23,0-28.85a8,8,0,0,1,.28-2.35A5.3,5.3,0,0,1,41.55.05a5.22,5.22,0,0,1,4.63,5c.09,3.18,0,6.36,0,9.54,0,2.11,0,4.21,0,6.32Z"/></g></g></svg>