<svg xmlns="http://www.w3.org/2000/svg" viewBox="0 0 103.22 67.46"><defs><style>.cls-1{fill:#fff;}</style></defs><title>Asset 4</title><g id="Layer_2" data-name="Layer 2"><g id="Layer_1-2" data-name="Layer 1"><path class="cls-1" d="M63.14,65c-3.13,2.81-8.75,2.54-11.51-.46a1.78,1.78,0,0,1-.37-2.24c.24-.46.5-.92.74-1.38,1.27-2.45,1.07-4.33-1-6.13a4,4,0,0,1-1.61-3.68,5.87,5.87,0,0,0-7.47-5.77l-1,.25a6.18,6.18,0,0,0-2-5.1,5.2,5.2,0,0,0-5.26-1.43,28.74,28.74,0,0,0-4.74,2.65,6,6,0,0,0-4.75-5.5c-3-.73-5.1.75-6.92,2.9L.81,25.44a1.71,1.71,0,0,1-.33-2.65L14.14,3.37a2.08,2.08,0,0,1,2.64-.81c1.06.37,2.14.65,3.21,1A13.77,13.77,0,0,0,29.18,3,56,56,0,0,1,37.69.32c4.8-1,9.22.33,13.4,3.13-.38.32-.69.56-1,.82a38.35,38.35,0,0,0-12.47,21.6c-1,4.54,2.46,7.29,6.8,5.56a12.23,12.23,0,0,0,4-2.74c2-2,3.74-4.37,5.73-6.44A49.86,49.86,0,0,1,59,18.09c.73-.59,1.44-.46,2.21.31q14,14.12,28.11,28.15a4.37,4.37,0,0,1,1.32,4.58,4.24,4.24,0,0,1-3.35,3.11,4.53,4.53,0,0,1-4.34-1.5Q75.2,45,67.46,37.29c-.21-.21-.4-.52-.65-.59a1.19,1.19,0,0,0-1,.1,1.18,1.18,0,0,0-.08,1c.07.26.37.45.58.67q7,7,13.94,13.94a4.64,4.64,0,0,1,1.63,3.32A4.41,4.41,0,0,1,74.33,59C70.67,55.35,67,51.69,63.39,48.05l-1.27-1.27c-.4-.4-.92-.75-1.3-.18A1.39,1.39,0,0,0,61,47.91c1.88,2,3.83,3.88,5.75,5.81,1.19,1.19,2.39,2.36,3.57,3.56A4.43,4.43,0,1,1,64,63.53c-1.84-1.81-3.63-3.65-5.48-5.45a1.66,1.66,0,0,0-1.13-.51c-.69.08-.73.92-.08,1.57,1.76,1.78,3.54,3.54,5.3,5.31C62.81,64.61,63,64.78,63.14,65Z"/><path class="cls-1" d="M85.8,41.18a6.25,6.25,0,0,0-.73-1.13C77.34,32.3,69.59,24.58,61.88,16.81a2,2,0,0,0-2.58-.59,16.05,16.05,0,0,0-3.77,2.32c-1.81,1.71-3.34,3.71-5.05,5.54a52.91,52.91,0,0,1-4.72,4.75,6.55,6.55,0,0,1-3.34,1.33c-2.3.28-3.42-.93-3.29-3.24a11.84,11.84,0,0,1,.44-2.65A40.08,40.08,0,0,1,49,7.47C53.3,3.1,58.44.55,64.66,1.09a32.55,32.55,0,0,1,6.88,1.83,18.53,18.53,0,0,1,3.64,1.7A15.16,15.16,0,0,0,87.3,5.83c.36-.09.72-.21,1.08-.28a2.12,2.12,0,0,1,2.48,1q6,10.31,12,20.59a1.65,1.65,0,0,1-.49,2.46q-8,5.61-16.09,11.18a.73.73,0,0,1-.21.06Z"/><path class="cls-1" d="M47.82,51.28a4.15,4.15,0,0,1-1.32,3.1c-2.3,2.3-4.58,4.61-6.9,6.89A4.42,4.42,0,1,1,33.33,55C35.66,52.66,38,50.29,40.39,48a4.17,4.17,0,0,1,4.77-.86A4.31,4.31,0,0,1,47.82,51.28Z"/><path class="cls-1" d="M28.26,56.41c-2.31-.1-3.66-.91-4.44-2.53a4,4,0,0,1,.57-4.7q3.72-3.94,7.67-7.66a4.38,4.38,0,0,1,6.27,6c-2.52,2.74-5.19,5.34-7.91,7.89A6,6,0,0,1,28.26,56.41Z"/><path class="cls-1" d="M15.23,44.66a12.89,12.89,0,0,1,1.34-2.51A32.47,32.47,0,0,1,19.7,39,4.42,4.42,0,0,1,26,45.19c-1.08,1.13-2.17,2.26-3.33,3.31a4.16,4.16,0,0,1-4.78.73C16.18,48.47,15.37,47.09,15.23,44.66Z"/><path class="cls-1" d="M39.74,63.35c2.89-2.93,5.73-5.79,8.74-8.83a16.36,16.36,0,0,1,2.26,2.55,3.57,3.57,0,0,1,.17,2.21,6.39,6.39,0,0,1-.88,1.8c-1.12,2.13-.83,3.58,1,5.14.23.19.47.36.72.56C47.84,68.4,42.23,67.08,39.74,63.35Z"/></g></g></svg>