<svg xmlns="http://www.w3.org/2000/svg" viewBox="0 0 99.71 67.65"><defs><style>.cls-1{fill:#fff;}</style></defs><title>Asset 1</title><g id="Layer_2" data-name="Layer 2"><g id="Layer_1-2" data-name="Layer 1"><path class="cls-1" d="M50,67.65H25c-2.57,0-3.56-1-3.56-3.53,0-5.55,0-11.09,0-16.63a6.43,6.43,0,0,1,2.88-5.57c2.87-2.06,5.74-4.13,8.62-6.18,2.19-1.56,4-1.14,5.82.82a60.09,60.09,0,0,0,7,6.56c2.69,2.11,5.69,1.93,8.58.07a30.13,30.13,0,0,0,7.24-6.92,3.59,3.59,0,0,1,5.05-.85c3.4,2.37,6.77,4.78,10.08,7.27a5.32,5.32,0,0,1,2,4.41c0,5.77,0,11.55,0,17.32,0,2.18-1.07,3.22-3.29,3.22Z"/><path class="cls-1" d="M50.16,36.72A16.55,16.55,0,1,1,66.6,20,16.55,16.55,0,0,1,50.16,36.72Z"/><path class="cls-1" d="M70.35,27.32c2.86-8.65.88-16.15-5.5-22.57,3.4-5,12.07-6.29,18-2.58A14.27,14.27,0,0,1,87.58,21.3C84.08,27.33,75.75,30.26,70.35,27.32Z"/><path class="cls-1" d="M35.08,4.73c-6.39,6.4-8.39,13.89-5.54,22.56-4.87,2.93-13.21.26-16.82-5.36A14.26,14.26,0,0,1,16.53,2.5C22.44-1.58,31.13-.55,35.08,4.73Z"/><path class="cls-1" d="M25.53,35.26l-4.65,3.33a10.41,10.41,0,0,0-4.61,8.91c0,2.36,0,4.72,0,7.16-.58,0-1,.08-1.39.09H3c-2.09,0-3-.92-3-3C0,47,0,42.2,0,37.41a5.27,5.27,0,0,1,2.37-4.5c2.56-1.78,5.11-3.56,7.69-5.31,1.88-1.28,3.44-1,4.86.72a37.24,37.24,0,0,0,2.52,2.8C19.61,33.26,21.94,35.14,25.53,35.26Z"/><path class="cls-1" d="M74.2,35c3.12.15,5.2-1.22,7.07-2.93a49,49,0,0,0,3.83-4,3.24,3.24,0,0,1,4.45-.75c2.77,1.88,5.52,3.8,8.2,5.8a4.78,4.78,0,0,1,2,4c0,4.88,0,9.77,0,14.65,0,2-.83,2.84-2.76,2.85H83.63c0-1.94-.1-3.79,0-5.62A11.48,11.48,0,0,0,78,37.83C76.82,37,75.68,36.09,74.2,35Z"/></g></g></svg>