<svg xmlns="http://www.w3.org/2000/svg" viewBox="0 0 761.66 119.1"><defs><style>.cls-1{fill:#fff;}.cls-2{fill:#56b970;}.cls-3{fill:#37af60;}.cls-4{fill:#13a24a;}</style></defs><title>mountains</title><g id="Layer_2" data-name="Layer 2"><path class="cls-1" d="M15.17,339.28" transform="translate(-15.17 -220.18)"/></g><g id="Layer_5" data-name="Layer 5"><path class="cls-2" d="M316.27,335A738.3,738.3,0,0,0,451.18,253.9c73.46,47.64,178.77,73.83,325.65,85.38H15.17c41.38-12.26,95-41.58,154.41-85.43,52.48,40.56,104,65,146.69,81.14" transform="translate(-15.17 -220.18)"/><path class="cls-3" d="M15.73,339.12c106.86-8.1,207.9-44.85,300.75-118.94C409.41,296,496.67,328.45,776.83,339.28Z" transform="translate(-15.17 -220.18)"/></g><g id="Layer_7" data-name="Layer 7"><path class="cls-4" d="M316.27,335A578.18,578.18,0,0,1,214.47,285c-63.42,31.13-129.89,48.14-198.74,54.08l761.1.16c-188.76-7.3-290-24.43-364.31-58A743.93,743.93,0,0,1,316.27,335Z" transform="translate(-15.17 -220.18)"/></g></svg>
