<?xml version="1.0" standalone="yes"?>

<svg version="1.1" viewBox="0.0 0.0 523.1049868766404 304.01837270341207" fill="none" stroke="none" stroke-linecap="square" stroke-miterlimit="10" xmlns="http://www.w3.org/2000/svg" xmlns:xlink="http://www.w3.org/1999/xlink"><clipPath id="p.0"><path d="m0 0l523.105 0l0 304.01837l-523.105 0l0 -304.01837z" clip-rule="nonzero"></path></clipPath><g clip-path="url(#p.0)"><path fill="#000000" fill-opacity="0.0" d="m0 0l523.105 0l0 304.01837l-523.105 0z" fill-rule="evenodd"></path><path fill="#000000" fill-opacity="0.0" d="m111.209564 106.04l2.7086563 119.59055" fill-rule="evenodd"></path><path stroke="#ffffff" stroke-width="1.0" stroke-linejoin="round" stroke-linecap="butt" d="m111.209564 106.04l2.7086563 119.59055" fill-rule="evenodd"></path><path fill="#b6d7a8" d="m233.30815 5.81114l0 0c0 -3.2094042 2.6017303 -5.81114 5.8111267 -5.81114l98.04701 0c1.5412292 0 3.0193176 0.61224335 4.1091003 1.7020434c1.0898132 1.0898002 1.7020569 2.5678864 1.7020569 4.1090965l0 23.243862c0 3.209402 -2.6017456 5.81114 -5.811157 5.81114l-98.04701 0c-3.2093964 0 -5.8111267 -2.601738 -5.8111267 -5.81114z" fill-rule="evenodd"></path><path stroke="#000000" stroke-width="1.0" stroke-linejoin="round" stroke-linecap="butt" d="m233.30815 5.81114l0 0c0 -3.2094042 2.6017303 -5.81114 5.8111267 -5.81114l98.04701 0c1.5412292 0 3.0193176 0.61224335 4.1091003 1.7020434c1.0898132 1.0898002 1.7020569 2.5678864 1.7020569 4.1090965l0 23.243862c0 3.209402 -2.6017456 5.81114 -5.811157 5.81114l-98.04701 0c-3.2093964 0 -5.8111267 -2.601738 -5.8111267 -5.81114z" fill-rule="evenodd"></path><path fill="#000000" fill-opacity="0.0" d="m251.58734 7.117952l73.13385 0l0 20.629921l-73.13385 0z" fill-rule="evenodd"></path><path fill="#000000" d="m275.87582 9.222287l2.34375 0q1.546875 0 1.546875 1.875q0 1.109375 -0.46875 1.53125q-0.453125 0.40625 -1.109375 0.40625q-0.21875 0 -0.765625 -0.015625q-0.546875 -0.03125 -0.90625 -0.0625l0 2.15625l-0.640625 0l0 -5.890625zm2.234375 3.25q1.015625 0 1.015625 -1.359375q0 -1.3125 -0.953125 -1.3125l-1.65625 0l0 2.671875l1.59375 0zm2.5975647 -1.625l0.484375 0l0.140625 0.734375q0.3125 -0.375 0.671875 -0.578125q0.359375 -0.203125 0.796875 -0.203125q0.21875 0 0.40625 0.03125l0 0.65625q-0.359375 -0.046875 -0.46875 -0.046875q-0.421875 0 -0.734375 0.15625q-0.3125 0.140625 -0.671875 0.484375l0 3.03125l-0.625 0l0 -4.265625zm4.9834595 4.312501q-0.65625 0 -1.0625 -0.17187595q-0.390625 -0.1875 -0.59375 -0.65625q-0.1875 -0.484375 -0.1875 -1.359375q0 -0.890625 0.203125 -1.359375q0.203125 -0.46875 0.59375 -0.640625q0.390625 -0.1875 1.046875 -0.1875q0.65625 0 1.0625 0.1875q0.40625 0.171875 0.59375 0.65625q0.203125 0.46875 0.203125 1.34375q0 0.875 -0.203125 1.359375q-0.1875 0.46875 -0.59375 0.65625q-0.390625 0.17187595 -1.0625 0.17187595zm0 -0.51562595q0.453125 0 0.703125 -0.109375q0.25 -0.125 0.375 -0.484375q0.140625 -0.359375 0.140625 -1.078125q0 -0.71875 -0.140625 -1.078125q-0.125 -0.359375 -0.375 -0.46875q-0.25 -0.125 -0.703125 -0.125q-0.4375 0 -0.6875 0.125q-0.25 0.109375 -0.390625 0.46875q-0.125 0.359375 -0.125 1.078125q0 0.71875 0.125 1.078125q0.140625 0.359375 0.390625 0.484375q0.25 0.109375 0.6875 0.109375zm3.0221863 -4.5625q-0.0625 0 -0.109375 -0.03125q-0.03125 -0.046875 -0.03125 -0.09375l0 -0.625q0 -0.125 0.140625 -0.125l0.453125 0q0.046875 0 0.078125 0.03125q0.03125 0.03125 0.03125 0.09375l0 0.625q0 0.046875 -0.03125 0.09375q-0.03125 0.03125 -0.078125 0.03125l-0.453125 0zm-0.09375 0.765625l0.625 0l0 4.125q0 0.56250095 -0.046875 1.093751q-0.03125 0.546875 -0.109375 0.9375l-0.46875 0l0 -6.156251zm3.4729614 4.312501q-0.6875 0 -1.0625 -0.20312595q-0.375 -0.203125 -0.546875 -0.671875q-0.171875 -0.46875 -0.171875 -1.3125q0 -0.859375 0.171875 -1.328125q0.171875 -0.46875 0.546875 -0.65625q0.390625 -0.203125 1.078125 -0.203125q0.578125 0 0.921875 0.125q0.359375 0.125 0.53125 0.4375q0.171875 0.3125 0.171875 0.859375q0 0.53125 -0.328125 0.78125q-0.3125 0.25 -0.890625 0.25l-1.5625 0q0 0.546875 0.09375 0.84375q0.109375 0.296875 0.390625 0.4375q0.28125 0.140625 0.8125 0.140625l1.375 0l0 0.390625q-0.421875 0.046875 -0.765625 0.07812595q-0.34375 0.03125 -0.765625 0.03125zm0.359375 -2.343751q0.375 0 0.53125 -0.125q0.171875 -0.140625 0.171875 -0.484375q0 -0.53125 -0.234375 -0.734375q-0.234375 -0.203125 -0.8125 -0.203125q-0.46875 0 -0.71875 0.140625q-0.25 0.125 -0.359375 0.453125q-0.09375 0.328125 -0.09375 0.953125l1.515625 0zm3.890442 2.343751q-0.8125 0 -1.265625 -0.46875095q-0.4375 -0.484375 -0.4375 -1.703125q0 -0.859375 0.203125 -1.328125q0.203125 -0.484375 0.578125 -0.671875q0.375 -0.1875 0.9375 -0.1875q0.765625 0 1.421875 0.109375l0 0.375l-1.25 0q-0.4375 0 -0.703125 0.140625q-0.265625 0.140625 -0.40625 0.515625q-0.140625 0.375 -0.140625 1.0625q0 0.65625 0.140625 1.015625q0.15625 0.359375 0.421875 0.5q0.265625 0.140625 0.703125 0.140625l1.296875 0l0 0.375q-0.75 0.12500095 -1.5 0.12500095zm3.7949524 -0.046875954q-0.640625 0 -0.9375 -0.3125q-0.296875 -0.328125 -0.28125 -1.078125l0.03125 -2.359375l-0.6875 0l0 -0.40625l0.6875 -0.109375l0.109375 -1.203125l0.484375 0l0 1.203125l1.234375 0l0 0.515625l-1.234375 0l0 2.359375q0 0.5 0.1875 0.6875q0.1875 0.171875 0.46875 0.1875l0.515625 0.046875l0 0.46875l-0.578125 0z" fill-rule="nonzero"></path><path fill="#000000" d="m277.59586 25.112913l-0.5625 -4.890625l-1.421875 4.890625l-0.578125 0l-1.4375 -4.84375l-0.53125 4.84375l-0.625 0l0.671875 -5.890625l0.65625 0l1.5625 5.09375l1.53125 -5.09375l0.65625 0l0.6875 5.890625l-0.609375 0zm2.5080566 0.046875q-0.484375 0 -0.78125 -0.28125q-0.296875 -0.296875 -0.296875 -0.796875l0 -0.296875q0 -0.515625 0.34375 -0.8125q0.34375 -0.3125 1.0 -0.3125l1.4375 0l0 -0.53125q0 -0.4375 -0.234375 -0.640625q-0.234375 -0.203125 -0.859375 -0.203125l-1.328125 0l0 -0.375q0.75 -0.140625 1.546875 -0.140625q0.78125 0 1.140625 0.328125q0.375 0.3125 0.375 1.0l0 3.015625l-0.5 0l-0.109375 -0.484375q-0.0625 0.046875 -0.359375 0.1875q-0.28125 0.125 -0.65625 0.234375q-0.375 0.109375 -0.71875 0.109375zm0.28125 -0.46875q0.21875 0 0.53125 -0.078125q0.3125 -0.078125 0.5625 -0.171875q0.25 -0.09375 0.328125 -0.125l0 -1.34375l-1.296875 0.0625q-0.4375 0.015625 -0.65625 0.21875q-0.203125 0.203125 -0.203125 0.546875l0 0.1875q0 0.359375 0.21875 0.53125q0.21875 0.171875 0.515625 0.171875zm3.2505493 -3.84375l0.5 0l0.125 0.46875q0.34375 -0.234375 0.75 -0.390625q0.40625 -0.15625 0.8125 -0.15625q0.671875 0 1.0 0.40625q0.328125 0.40625 0.328125 1.03125l0 2.90625l-0.640625 0l0 -2.828125q0 -0.421875 -0.234375 -0.671875q-0.234375 -0.265625 -0.65625 -0.265625q-0.375 0 -0.6875 0.109375q-0.296875 0.09375 -0.671875 0.296875l0 3.359375l-0.625 0l0 -4.265625zm5.532074 4.3125q-0.484375 0 -0.78125 -0.28125q-0.296875 -0.296875 -0.296875 -0.796875l0 -0.296875q0 -0.515625 0.34375 -0.8125q0.34375 -0.3125 1.0 -0.3125l1.4375 0l0 -0.53125q0 -0.4375 -0.234375 -0.640625q-0.234375 -0.203125 -0.859375 -0.203125l-1.328125 0l0 -0.375q0.75 -0.140625 1.546875 -0.140625q0.78125 0 1.140625 0.328125q0.375 0.3125 0.375 1.0l0 3.015625l-0.5 0l-0.109375 -0.484375q-0.0625 0.046875 -0.359375 0.1875q-0.28125 0.125 -0.65625 0.234375q-0.375 0.109375 -0.71875 0.109375zm0.28125 -0.46875q0.21875 0 0.53125 -0.078125q0.3125 -0.078125 0.5625 -0.171875q0.25 -0.09375 0.328125 -0.125l0 -1.34375l-1.296875 0.0625q-0.4375 0.015625 -0.65625 0.21875q-0.203125 0.203125 -0.203125 0.546875l0 0.1875q0 0.359375 0.21875 0.53125q0.21875 0.171875 0.515625 0.171875zm7.0630493 -3.5l-0.953125 0.078125q0.15625 0.109375 0.265625 0.21875q0.109375 0.109375 0.1875 0.328125q0.09375 0.21875 0.09375 0.546875q0 0.5625 -0.375 0.9375q-0.359375 0.359375 -1.140625 0.359375l-0.6875 0q-0.359375 0 -0.546875 0.109375q-0.171875 0.109375 -0.171875 0.359375q0 0.171875 0.125 0.265625q0.140625 0.078125 0.3125 0.078125l1.421875 0q0.75 0 1.109375 0.296875q0.359375 0.28125 0.359375 0.875l0 0.1875q0 0.578125 -0.40625 0.90625q-0.40625 0.328125 -1.171875 0.328125l-1.1875 0q-0.640625 0 -1.03125 -0.265625q-0.375 -0.265625 -0.375 -0.78125l0 -0.1875q0 -0.359375 0.1875 -0.609375q0.1875 -0.25 0.5 -0.375q-0.1875 -0.109375 -0.296875 -0.265625q-0.109375 -0.171875 -0.109375 -0.375q0 -0.609375 0.71875 -0.75q-0.40625 -0.171875 -0.578125 -0.5q-0.171875 -0.34375 -0.171875 -0.75q0 -1.375 1.640625 -1.375l2.28125 0l0 0.359375zm-1.984375 1.984375q0.546875 0 0.765625 -0.234375q0.234375 -0.25 0.234375 -0.640625q0 -0.96875 -0.9375 -0.96875l-0.453125 0q-0.484375 0 -0.734375 0.21875q-0.234375 0.203125 -0.234375 0.6875q0 0.9375 0.875 0.9375l0.484375 0zm-0.671875 1.796875q-0.375 0 -0.65625 0.1875q-0.265625 0.1875 -0.265625 0.5625l0 0.171875q0 0.71875 0.953125 0.71875l1.0 0q0.484375 0 0.75 -0.1875q0.28125 -0.1875 0.28125 -0.578125l0 -0.15625q0 -0.34375 -0.21875 -0.53125q-0.21875 -0.1875 -0.734375 -0.1875l-1.109375 0zm5.0766907 0.1875q-0.6875 0 -1.0625 -0.203125q-0.375 -0.203125 -0.546875 -0.671875q-0.171875 -0.46875 -0.171875 -1.3125q0 -0.859375 0.171875 -1.328125q0.171875 -0.46875 0.546875 -0.65625q0.390625 -0.203125 1.078125 -0.203125q0.578125 0 0.921875 0.125q0.359375 0.125 0.53125 0.4375q0.171875 0.3125 0.171875 0.859375q0 0.53125 -0.328125 0.78125q-0.3125 0.25 -0.890625 0.25l-1.5625 0q0 0.546875 0.09375 0.84375q0.109375 0.296875 0.390625 0.4375q0.28125 0.140625 0.8125 0.140625l1.375 0l0 0.390625q-0.421875 0.046875 -0.765625 0.078125q-0.34375 0.03125 -0.765625 0.03125zm0.359375 -2.34375q0.375 0 0.53125 -0.125q0.171875 -0.140625 0.171875 -0.484375q0 -0.53125 -0.234375 -0.734375q-0.234375 -0.203125 -0.8125 -0.203125q-0.46875 0 -0.71875 0.140625q-0.25 0.125 -0.359375 0.453125q-0.09375 0.328125 -0.09375 0.953125l1.515625 0zm2.343567 -1.96875l0.484375 0l0.140625 0.734375q0.3125 -0.375 0.671875 -0.578125q0.359375 -0.203125 0.796875 -0.203125q0.21875 0 0.40625 0.03125l0 0.65625q-0.359375 -0.046875 -0.46875 -0.046875q-0.421875 0 -0.734375 0.15625q-0.3125 0.140625 -0.671875 0.484375l0 3.03125l-0.625 0l0 -4.265625z" fill-rule="nonzero"></path><path fill="#b6d7a8" d="m56.374916 76.985l0 0c0 -3.209404 2.601738 -5.8111343 5.811138 -5.8111343l98.04701 0c1.541214 0 3.0193024 0.612236 4.1091003 1.7020416c1.089798 1.089798 1.7020416 2.5678864 1.7020416 4.1090927l0 23.243866c0 3.209404 -2.6017303 5.8111343 -5.811142 5.8111343l-98.04701 0c-3.2094002 0 -5.811138 -2.6017303 -5.811138 -5.8111343z" fill-rule="evenodd"></path><path stroke="#000000" stroke-width="1.0" stroke-linejoin="round" stroke-linecap="butt" d="m56.374916 76.985l0 0c0 -3.209404 2.601738 -5.8111343 5.811138 -5.8111343l98.04701 0c1.541214 0 3.0193024 0.612236 4.1091003 1.7020416c1.089798 1.089798 1.7020416 2.5678864 1.7020416 4.1090927l0 23.243866c0 3.209404 -2.6017303 5.8111343 -5.811142 5.8111343l-98.04701 0c-3.2094002 0 -5.811138 -2.6017303 -5.811138 -5.8111343z" fill-rule="evenodd"></path><path fill="#000000" fill-opacity="0.0" d="m68.44593 76.86652l85.5433 0l0 23.496063l-85.5433 0z" fill-rule="evenodd"></path><path fill="#000000" d="m85.54482 91.34143q-0.765625 0 -1.203125 -0.234375q-0.4375 -0.234375 -0.65625 -0.875q-0.21875 -0.65625 -0.21875 -1.890625q0 -1.1875 0.21875 -1.828125q0.234375 -0.640625 0.6875 -0.890625q0.453125 -0.265625 1.21875 -0.265625q0.359375 0 0.828125 0.0625q0.484375 0.0625 0.859375 0.15625l0 0.46875q-0.28125 -0.03125 -0.71875 -0.078125q-0.4375 -0.046875 -0.875 -0.046875q-0.59375 0 -0.9375 0.203125q-0.328125 0.203125 -0.484375 0.71875q-0.15625 0.515625 -0.15625 1.5q0 1.03125 0.140625 1.546875q0.15625 0.515625 0.484375 0.703125q0.328125 0.1875 0.9375 0.1875q1.015625 0 1.609375 -0.109375l0 0.484375q-0.375 0.078125 -0.84375 0.140625q-0.453125 0.046875 -0.890625 0.046875zm4.397934 0q-0.65625 0 -1.0625 -0.171875q-0.390625 -0.1875 -0.59375 -0.65625q-0.1875 -0.484375 -0.1875 -1.359375q0 -0.890625 0.203125 -1.359375q0.203125 -0.46875 0.59375 -0.640625q0.390625 -0.1875 1.046875 -0.1875q0.65625 0 1.0625 0.1875q0.40625 0.171875 0.59375 0.65625q0.203125 0.46875 0.203125 1.34375q0 0.875 -0.203125 1.359375q-0.1875 0.46875 -0.59375 0.65625q-0.390625 0.171875 -1.0625 0.171875zm0 -0.515625q0.453125 0 0.703125 -0.109375q0.25 -0.125 0.375 -0.484375q0.140625 -0.359375 0.140625 -1.078125q0 -0.71875 -0.140625 -1.078125q-0.125 -0.359375 -0.375 -0.46875q-0.25 -0.125 -0.703125 -0.125q-0.4375 0 -0.6875 0.125q-0.25 0.109375 -0.390625 0.46875q-0.125 0.359375 -0.125 1.078125q0 0.71875 0.125 1.078125q0.140625 0.359375 0.390625 0.484375q0.25 0.109375 0.6875 0.109375zm2.9284363 -3.796875l0.5 0l0.125 0.46875q0.8125 -0.546875 1.609375 -0.546875q0.375 0 0.65625 0.171875q0.296875 0.171875 0.453125 0.453125q0.328125 -0.234375 0.8125 -0.421875q0.484375 -0.203125 0.90625 -0.203125q0.65625 0 1.0 0.40625q0.34375 0.40625 0.34375 1.0625l0 2.875l-0.640625 0l0 -2.828125q0 -0.421875 -0.25 -0.671875q-0.234375 -0.265625 -0.65625 -0.265625q-0.34375 0 -0.71875 0.125q-0.359375 0.125 -0.703125 0.34375q0.078125 0.25 0.078125 0.46875l0 2.828125l-0.640625 0l0 -2.828125q0 -0.421875 -0.234375 -0.671875q-0.234375 -0.265625 -0.65625 -0.265625q-0.375 0 -0.6875 0.109375q-0.296875 0.09375 -0.671875 0.296875l0 3.359375l-0.625 0l0 -4.265625zm7.583908 0l0.515625 0l0.109375 0.4375q0.265625 -0.1875 0.65625 -0.34375q0.390625 -0.15625 0.75 -0.15625q0.78125 0 1.15625 0.625q0.375 0.609375 0.375 1.5625q0 1.09375 -0.375 1.65625q-0.375 0.546875 -1.15625 0.546875q-0.34375 0 -0.71875 -0.109375q-0.359375 -0.125 -0.6875 -0.3125l0 2.25l-0.625 0l0 -6.15625zm1.859375 3.78125q1.0625 0 1.0625 -1.65625q0 -0.84375 -0.3125 -1.25q-0.296875 -0.40625 -0.75 -0.40625q-0.34375 0 -0.640625 0.109375q-0.296875 0.09375 -0.59375 0.25l0 2.609375q0.609375 0.34375 1.234375 0.34375zm4.030197 0.53125q-1.28125 0 -1.28125 -1.3125l0 -3.0l0.640625 0l0 2.84375q0 0.515625 0.21875 0.71875q0.234375 0.1875 0.703125 0.1875q0.359375 0 0.671875 -0.09375q0.3125 -0.109375 0.65625 -0.3125l0 -3.34375l0.640625 0l0 4.265625l-0.5 0l-0.140625 -0.46875q-0.8125 0.515625 -1.609375 0.515625zm4.8601837 -0.046875q-0.640625 0 -0.9375 -0.3125q-0.296875 -0.328125 -0.28125 -1.078125l0.03125 -2.359375l-0.6875 0l0 -0.40625l0.6875 -0.109375l0.109375 -1.203125l0.484375 0l0 1.203125l1.234375 0l0 0.515625l-1.234375 0l0 2.359375q0 0.5 0.1875 0.6875q0.1875 0.171875 0.46875 0.1875l0.515625 0.046875l0 0.46875l-0.578125 0zm3.1390839 0.046875q-0.6875 0 -1.0625 -0.203125q-0.375 -0.203125 -0.546875 -0.671875q-0.171875 -0.46875 -0.171875 -1.3125q0 -0.859375 0.171875 -1.328125q0.171875 -0.46875 0.546875 -0.65625q0.390625 -0.203125 1.078125 -0.203125q0.578125 0 0.921875 0.125q0.359375 0.125 0.53125 0.4375q0.171875 0.3125 0.171875 0.859375q0 0.53125 -0.328125 0.78125q-0.3125 0.25 -0.890625 0.25l-1.5625 0q0 0.546875 0.09375 0.84375q0.109375 0.296875 0.390625 0.4375q0.28125 0.140625 0.8125 0.140625l1.375 0l0 0.390625q-0.421875 0.046875 -0.765625 0.078125q-0.34375 0.03125 -0.765625 0.03125zm0.359375 -2.34375q0.375 0 0.53125 -0.125q0.171875 -0.140625 0.171875 -0.484375q0 -0.53125 -0.234375 -0.734375q-0.234375 -0.203125 -0.8125 -0.203125q-0.46875 0 -0.71875 0.140625q-0.25 0.125 -0.359375 0.453125q-0.09375 0.328125 -0.09375 0.953125l1.515625 0zm2.343567 -1.96875l0.484375 0l0.140625 0.734375q0.3125 -0.375 0.671875 -0.578125q0.359375 -0.203125 0.796875 -0.203125q0.21875 0 0.40625 0.03125l0 0.65625q-0.359375 -0.046875 -0.46875 -0.046875q-0.421875 0 -0.734375 0.15625q-0.3125 0.140625 -0.671875 0.484375l0 3.03125l-0.625 0l0 -4.265625zm6.6434326 4.265625q-0.5625 0 -0.875 -0.265625q-0.3125 -0.265625 -0.3125 -0.921875l0 -4.703125l0.640625 0l0 4.625q0 0.390625 0.1875 0.546875q0.1875 0.140625 0.5 0.140625l2.109375 0l0 0.578125l-2.25 0zm4.6934433 0.046875q-0.6874924 0 -1.0624924 -0.203125q-0.375 -0.203125 -0.546875 -0.671875q-0.171875 -0.46875 -0.171875 -1.3125q0 -0.859375 0.171875 -1.328125q0.171875 -0.46875 0.546875 -0.65625q0.390625 -0.203125 1.0781174 -0.203125q0.578125 0 0.921875 0.125q0.359375 0.125 0.53125 0.4375q0.171875 0.3125 0.171875 0.859375q0 0.53125 -0.328125 0.78125q-0.3125 0.25 -0.890625 0.25l-1.5624924 0q0 0.546875 0.09375 0.84375q0.109375 0.296875 0.390625 0.4375q0.28124237 0.140625 0.8124924 0.140625l1.375 0l0 0.390625q-0.421875 0.046875 -0.765625 0.078125q-0.34375 0.03125 -0.765625 0.03125zm0.359375 -2.34375q0.375 0 0.53125 -0.125q0.171875 -0.140625 0.171875 -0.484375q0 -0.53125 -0.234375 -0.734375q-0.234375 -0.203125 -0.8125 -0.203125q-0.46874237 0 -0.7187424 0.140625q-0.25 0.125 -0.359375 0.453125q-0.09375 0.328125 -0.09375 0.953125l1.5156174 0zm3.171692 2.34375q-0.484375 0 -0.78125 -0.28125q-0.296875 -0.296875 -0.296875 -0.796875l0 -0.296875q0 -0.515625 0.34375 -0.8125q0.34375 -0.3125 1.0 -0.3125l1.4375 0l0 -0.53125q0 -0.4375 -0.234375 -0.640625q-0.234375 -0.203125 -0.859375 -0.203125l-1.328125 0l0 -0.375q0.75 -0.140625 1.546875 -0.140625q0.78125 0 1.140625 0.328125q0.375 0.3125 0.375 1.0l0 3.015625l-0.5 0l-0.109375 -0.484375q-0.0625 0.046875 -0.359375 0.1875q-0.28125 0.125 -0.65625 0.234375q-0.375 0.109375 -0.71875 0.109375zm0.28125 -0.46875q0.21875 0 0.53125 -0.078125q0.3125 -0.078125 0.5625 -0.171875q0.25 -0.09375 0.328125 -0.125l0 -1.34375l-1.296875 0.0625q-0.4375 0.015625 -0.65625 0.21875q-0.203125 0.203125 -0.203125 0.546875l0 0.1875q0 0.359375 0.21875 0.53125q0.21875 0.171875 0.515625 0.171875zm4.6255646 0.46875q-0.78125 0 -1.15625 -0.515625q-0.375 -0.515625 -0.375 -1.640625q0 -0.796875 0.15625 -1.28125q0.171875 -0.484375 0.515625 -0.703125q0.359375 -0.234375 0.953125 -0.234375q0.609375 0 1.3125 0.25l0 -2.03125l0.625 0l0 6.109375l-0.515625 0l-0.109375 -0.4375q-0.203125 0.171875 -0.625 0.328125q-0.421875 0.15625 -0.78125 0.15625zm0.1875 -0.515625q0.34375 0 0.625 -0.09375q0.28125 -0.109375 0.59375 -0.265625l0 -2.796875q-0.375 -0.109375 -0.625 -0.15625q-0.234375 -0.046875 -0.53125 -0.046875q-0.421875 0 -0.671875 0.15625q-0.25 0.15625 -0.359375 0.53125q-0.109375 0.359375 -0.109375 1.015625q0 0.890625 0.234375 1.28125q0.25 0.375 0.84375 0.375z" fill-rule="nonzero"></path><path fill="#b6d7a8" d="m174.3304 76.985l0 0c0 -3.209404 2.6017456 -5.8111343 5.811142 -5.8111343l98.04703 0c1.5411987 0 3.019287 0.612236 4.10907 1.7020416c1.0898132 1.089798 1.7020569 2.5678864 1.7020569 4.1090927l0 23.243866c0 3.209404 -2.6017456 5.8111343 -5.8111267 5.8111343l-98.04703 0c-3.2093964 0 -5.811142 -2.6017303 -5.811142 -5.8111343z" fill-rule="evenodd"></path><path stroke="#000000" stroke-width="1.0" stroke-linejoin="round" stroke-linecap="butt" d="m174.3304 76.985l0 0c0 -3.209404 2.6017456 -5.8111343 5.811142 -5.8111343l98.04703 0c1.5411987 0 3.019287 0.612236 4.10907 1.7020416c1.0898132 1.089798 1.7020569 2.5678864 1.7020569 4.1090927l0 23.243866c0 3.209404 -2.6017456 5.8111343 -5.8111267 5.8111343l-98.04703 0c-3.2093964 0 -5.811142 -2.6017303 -5.811142 -5.8111343z" fill-rule="evenodd"></path><path fill="#000000" fill-opacity="0.0" d="m181.57465 78.64813l95.18112 0l0 19.937012l-95.18112 0z" fill-rule="evenodd"></path><path fill="#000000" d="m204.12204 91.32789q-0.5 0 -0.859375 -0.234375q-0.34375 -0.234375 -0.34375 -0.90625l0 -3.59375q0 -0.625 0.328125 -0.90625q0.34375 -0.28125 0.84375 -0.28125q1.28125 0.03125 1.984375 0.0625l0.46875 0.015625l0 0.515625l-2.296875 0q-0.6875 0 -0.6875 0.703125l0 1.390625l2.640625 0.03125l0 0.484375l-2.640625 0.046875l0 1.390625q0 0.40625 0.1875 0.546875q0.203125 0.140625 0.53125 0.140625l2.265625 0l0 0.515625q-1.515625 0.078125 -2.421875 0.078125zm4.617813 -0.015625q-0.578125 0 -0.859375 -0.3125q-0.265625 -0.3125 -0.265625 -1.078125l0 -4.734375l0.625 0l0 4.65625q0 0.53125 0.140625 0.734375q0.15625 0.1875 0.46875 0.21875l0.421875 0.046875l0 0.46875l-0.53125 0zm2.8519745 0.03125q-0.6875 0 -1.0625 -0.203125q-0.375 -0.203125 -0.546875 -0.671875q-0.171875 -0.46875 -0.171875 -1.3125q0 -0.859375 0.171875 -1.328125q0.171875 -0.46875 0.546875 -0.65625q0.390625 -0.203125 1.078125 -0.203125q0.578125 0 0.921875 0.125q0.359375 0.125 0.53125 0.4375q0.171875 0.3125 0.171875 0.859375q0 0.53125 -0.328125 0.78125q-0.3125 0.25 -0.890625 0.25l-1.5625 0q0 0.546875 0.09375 0.84375q0.109375 0.296875 0.390625 0.4375q0.28125 0.140625 0.8125 0.140625l1.375 0l0 0.390625q-0.421875 0.046875 -0.765625 0.078125q-0.34375 0.03125 -0.765625 0.03125zm0.359375 -2.34375q0.375 0 0.53125 -0.125q0.171875 -0.140625 0.171875 -0.484375q0 -0.53125 -0.234375 -0.734375q-0.234375 -0.203125 -0.8125 -0.203125q-0.46875 0 -0.71875 0.140625q-0.25 0.125 -0.359375 0.453125q-0.09375 0.328125 -0.09375 0.953125l1.515625 0zm3.890442 2.34375q-0.8125 0 -1.265625 -0.46875q-0.4375 -0.484375 -0.4375 -1.703125q0 -0.859375 0.203125 -1.328125q0.203125 -0.484375 0.578125 -0.671875q0.375 -0.1875 0.9375 -0.1875q0.765625 0 1.421875 0.109375l0 0.375l-1.25 0q-0.4375 0 -0.703125 0.140625q-0.265625 0.140625 -0.40625 0.515625q-0.140625 0.375 -0.140625 1.0625q0 0.65625 0.140625 1.015625q0.15625 0.359375 0.421875 0.5q0.265625 0.140625 0.703125 0.140625l1.296875 0l0 0.375q-0.75 0.125 -1.5 0.125zm3.7949524 -0.046875q-0.640625 0 -0.9375 -0.3125q-0.296875 -0.328125 -0.28125 -1.078125l0.03125 -2.359375l-0.6875 0l0 -0.40625l0.6875 -0.109375l0.109375 -1.203125l0.484375 0l0 1.203125l1.234375 0l0 0.515625l-1.234375 0l0 2.359375q0 0.5 0.1875 0.6875q0.1875 0.171875 0.46875 0.1875l0.515625 0.046875l0 0.46875l-0.578125 0zm1.5140839 -4.265625l0.484375 0l0.140625 0.734375q0.3125 -0.375 0.671875 -0.578125q0.359375 -0.203125 0.796875 -0.203125q0.21875 0 0.40625 0.03125l0 0.65625q-0.359375 -0.046875 -0.46875 -0.046875q-0.421875 0 -0.734375 0.15625q-0.3125 0.140625 -0.671875 0.484375l0 3.03125l-0.625 0l0 -4.265625zm3.3897095 -0.765625q-0.0625 0 -0.09375 -0.03125q-0.03125 -0.046875 -0.03125 -0.09375l0 -0.625q0 -0.125 0.125 -0.125l0.453125 0q0.109375 0 0.109375 0.125l0 0.625q0 0.125 -0.109375 0.125l-0.453125 0zm-0.09375 0.765625l0.625 0l0 4.265625l-0.625 0l0 -4.265625zm3.3948517 4.3125q-0.8125 0 -1.265625 -0.46875q-0.4375 -0.484375 -0.4375 -1.703125q0 -0.859375 0.203125 -1.328125q0.203125 -0.484375 0.578125 -0.671875q0.375 -0.1875 0.9375 -0.1875q0.765625 0 1.421875 0.109375l0 0.375l-1.25 0q-0.4375 0 -0.703125 0.140625q-0.265625 0.140625 -0.40625 0.515625q-0.140625 0.375 -0.140625 1.0625q0 0.65625 0.140625 1.015625q0.15625 0.359375 0.421875 0.5q0.265625 0.140625 0.703125 0.140625l1.296875 0l0 0.375q-0.75 0.125 -1.5 0.125zm3.2012024 0q-0.484375 0 -0.78125 -0.28125q-0.296875 -0.296875 -0.296875 -0.796875l0 -0.296875q0 -0.515625 0.34375 -0.8125q0.34375 -0.3125 1.0 -0.3125l1.4375 0l0 -0.53125q0 -0.4375 -0.234375 -0.640625q-0.234375 -0.203125 -0.859375 -0.203125l-1.328125 0l0 -0.375q0.75 -0.140625 1.546875 -0.140625q0.78125 0 1.140625 0.328125q0.375 0.3125 0.375 1.0l0 3.015625l-0.5 0l-0.109375 -0.484375q-0.0625 0.046875 -0.359375 0.1875q-0.28125 0.125 -0.65625 0.234375q-0.375 0.109375 -0.71875 0.109375zm0.28125 -0.46875q0.21875 0 0.53125 -0.078125q0.3125 -0.078125 0.5625 -0.171875q0.25 -0.09375 0.328125 -0.125l0 -1.34375l-1.296875 0.0625q-0.4375 0.015625 -0.65625 0.21875q-0.203125 0.203125 -0.203125 0.546875l0 0.1875q0 0.359375 0.21875 0.53125q0.21875 0.171875 0.515625 0.171875zm4.3755646 0.4375q-0.578125 0 -0.859375 -0.3125q-0.265625 -0.3125 -0.265625 -1.078125l0 -4.734375l0.625 0l0 4.65625q0 0.53125 0.140625 0.734375q0.15625 0.1875 0.46875 0.21875l0.421875 0.046875l0 0.46875l-0.53125 0zm4.5744476 -0.015625q-0.5625 0 -0.875 -0.265625q-0.3125 -0.265625 -0.3125 -0.921875l0 -4.703125l0.640625 0l0 4.625q0 0.390625 0.1875 0.546875q0.1875 0.140625 0.5 0.140625l2.109375 0l0 0.578125l-2.25 0zm4.693451 0.046875q-0.6875 0 -1.0625 -0.203125q-0.375 -0.203125 -0.546875 -0.671875q-0.171875 -0.46875 -0.171875 -1.3125q0 -0.859375 0.171875 -1.328125q0.171875 -0.46875 0.546875 -0.65625q0.390625 -0.203125 1.078125 -0.203125q0.578125 0 0.921875 0.125q0.359375 0.125 0.53125 0.4375q0.171875 0.3125 0.171875 0.859375q0 0.53125 -0.328125 0.78125q-0.3125 0.25 -0.890625 0.25l-1.5625 0q0 0.546875 0.09375 0.84375q0.109375 0.296875 0.390625 0.4375q0.28125 0.140625 0.8125 0.140625l1.375 0l0 0.390625q-0.421875 0.046875 -0.765625 0.078125q-0.34375 0.03125 -0.765625 0.03125zm0.359375 -2.34375q0.375 0 0.53125 -0.125q0.171875 -0.140625 0.171875 -0.484375q0 -0.53125 -0.234375 -0.734375q-0.234375 -0.203125 -0.8125 -0.203125q-0.46875 0 -0.71875 0.140625q-0.25 0.125 -0.359375 0.453125q-0.09375 0.328125 -0.09375 0.953125l1.515625 0zm3.171692 2.34375q-0.484375 0 -0.78125 -0.28125q-0.296875 -0.296875 -0.296875 -0.796875l0 -0.296875q0 -0.515625 0.34375 -0.8125q0.34375 -0.3125 1.0 -0.3125l1.4375 0l0 -0.53125q0 -0.4375 -0.234375 -0.640625q-0.234375 -0.203125 -0.859375 -0.203125l-1.328125 0l0 -0.375q0.75 -0.140625 1.546875 -0.140625q0.78125 0 1.140625 0.328125q0.375 0.3125 0.375 1.0l0 3.015625l-0.5 0l-0.109375 -0.484375q-0.0625 0.046875 -0.359375 0.1875q-0.28125 0.125 -0.65625 0.234375q-0.375 0.109375 -0.71875 0.109375zm0.28125 -0.46875q0.21875 0 0.53125 -0.078125q0.3125 -0.078125 0.5625 -0.171875q0.25 -0.09375 0.328125 -0.125l0 -1.34375l-1.296875 0.0625q-0.4375 0.015625 -0.65625 0.21875q-0.203125 0.203125 -0.203125 0.546875l0 0.1875q0 0.359375 0.21875 0.53125q0.21875 0.171875 0.515625 0.171875zm4.6255646 0.46875q-0.78125 0 -1.15625 -0.515625q-0.375 -0.515625 -0.375 -1.640625q0 -0.796875 0.15625 -1.28125q0.171875 -0.484375 0.515625 -0.703125q0.359375 -0.234375 0.953125 -0.234375q0.609375 0 1.3125 0.25l0 -2.03125l0.625 0l0 6.109375l-0.515625 0l-0.109375 -0.4375q-0.203125 0.171875 -0.625 0.328125q-0.421875 0.15625 -0.78125 0.15625zm0.1875 -0.515625q0.34375 0 0.625 -0.09375q0.28125 -0.109375 0.59375 -0.265625l0 -2.796875q-0.375 -0.109375 -0.625 -0.15625q-0.234375 -0.046875 -0.53125 -0.046875q-0.421875 0 -0.671875 0.15625q-0.25 0.15625 -0.359375 0.53125q-0.109375 0.359375 -0.109375 1.015625q0 0.890625 0.234375 1.28125q0.25 0.375 0.84375 0.375z" fill-rule="nonzero"></path><path fill="#b6d7a8" d="m292.2859 76.985l0 0c0 -3.209404 2.6017456 -5.8111343 5.8111267 -5.8111343l98.04703 0c1.5411987 0 3.019287 0.612236 4.1091003 1.7020416c1.0897827 1.089798 1.7020264 2.5678864 1.7020264 4.1090927l0 23.243866c0 3.209404 -2.601715 5.8111343 -5.8111267 5.8111343l-98.04703 0c-3.209381 0 -5.8111267 -2.6017303 -5.8111267 -5.8111343z" fill-rule="evenodd"></path><path stroke="#000000" stroke-width="1.0" stroke-linejoin="round" stroke-linecap="butt" d="m292.2859 76.985l0 0c0 -3.209404 2.6017456 -5.8111343 5.8111267 -5.8111343l98.04703 0c1.5411987 0 3.019287 0.612236 4.1091003 1.7020416c1.0897827 1.089798 1.7020264 2.5678864 1.7020264 4.1090927l0 23.243866c0 3.209404 -2.601715 5.8111343 -5.8111267 5.8111343l-98.04703 0c-3.209381 0 -5.8111267 -2.6017303 -5.8111267 -5.8111343z" fill-rule="evenodd"></path><path fill="#000000" fill-opacity="0.0" d="m302.28476 78.64813l89.700806 0l0 19.937012l-89.700806 0z" fill-rule="evenodd"></path><path fill="#000000" d="m322.30493 91.29664l-0.5625 -4.890625l-1.421875 4.890625l-0.578125 0l-1.4375 -4.84375l-0.53125 4.84375l-0.625 0l0.671875 -5.890625l0.65625 0l1.5625 5.09375l1.53125 -5.09375l0.65625 0l0.6875 5.890625l-0.609375 0zm3.3049011 0.046875q-0.6875 0 -1.0625 -0.203125q-0.375 -0.203125 -0.546875 -0.671875q-0.171875 -0.46875 -0.171875 -1.3125q0 -0.859375 0.171875 -1.328125q0.171875 -0.46875 0.546875 -0.65625q0.390625 -0.203125 1.078125 -0.203125q0.578125 0 0.921875 0.125q0.359375 0.125 0.53125 0.4375q0.171875 0.3125 0.171875 0.859375q0 0.53125 -0.328125 0.78125q-0.3125 0.25 -0.890625 0.25l-1.5625 0q0 0.546875 0.09375 0.84375q0.109375 0.296875 0.390625 0.4375q0.28125 0.140625 0.8125 0.140625l1.375 0l0 0.390625q-0.421875 0.046875 -0.765625 0.078125q-0.34375 0.03125 -0.765625 0.03125zm0.359375 -2.34375q0.375 0 0.53125 -0.125q0.171875 -0.140625 0.171875 -0.484375q0 -0.53125 -0.234375 -0.734375q-0.234375 -0.203125 -0.8125 -0.203125q-0.46875 0 -0.71875 0.140625q-0.25 0.125 -0.359375 0.453125q-0.09375 0.328125 -0.09375 0.953125l1.515625 0zm3.890442 2.34375q-0.8125 0 -1.265625 -0.46875q-0.4375 -0.484375 -0.4375 -1.703125q0 -0.859375 0.203125 -1.328125q0.203125 -0.484375 0.578125 -0.671875q0.375 -0.1875 0.9375 -0.1875q0.765625 0 1.421875 0.109375l0 0.375l-1.25 0q-0.4375 0 -0.703125 0.140625q-0.265625 0.140625 -0.40625 0.515625q-0.140625 0.375 -0.140625 1.0625q0 0.65625 0.140625 1.015625q0.15625 0.359375 0.421875 0.5q0.265625 0.140625 0.703125 0.140625l1.296875 0l0 0.375q-0.75 0.125 -1.5 0.125zm2.3730774 -6.15625l0.625 0l0 2.3125q0.328125 -0.234375 0.734375 -0.390625q0.421875 -0.15625 0.84375 -0.15625q0.640625 0 0.96875 0.40625q0.34375 0.390625 0.34375 1.03125l0 2.90625l-0.640625 0l0 -2.84375q0 -0.40625 -0.234375 -0.65625q-0.234375 -0.265625 -0.65625 -0.265625q-0.375 0 -0.6875 0.109375q-0.296875 0.09375 -0.671875 0.296875l0 3.359375l-0.625 0l0 -6.109375zm5.532074 6.15625q-0.484375 0 -0.78125 -0.28125q-0.296875 -0.296875 -0.296875 -0.796875l0 -0.296875q0 -0.515625 0.34375 -0.8125q0.34375 -0.3125 1.0 -0.3125l1.4375 0l0 -0.53125q0 -0.4375 -0.234375 -0.640625q-0.234375 -0.203125 -0.859375 -0.203125l-1.328125 0l0 -0.375q0.75 -0.140625 1.546875 -0.140625q0.78125 0 1.140625 0.328125q0.375 0.3125 0.375 1.0l0 3.015625l-0.5 0l-0.109375 -0.484375q-0.0625 0.046875 -0.359375 0.1875q-0.28125 0.125 -0.65625 0.234375q-0.375 0.109375 -0.71875 0.109375zm0.28125 -0.46875q0.21875 0 0.53125 -0.078125q0.3125 -0.078125 0.5625 -0.171875q0.25 -0.09375 0.328125 -0.125l0 -1.34375l-1.296875 0.0625q-0.4375 0.015625 -0.65625 0.21875q-0.203125 0.203125 -0.203125 0.546875l0 0.1875q0 0.359375 0.21875 0.53125q0.21875 0.171875 0.515625 0.171875zm3.2505493 -3.84375l0.5 0l0.125 0.46875q0.34375 -0.234375 0.75 -0.390625q0.40625 -0.15625 0.8125 -0.15625q0.671875 0 1.0 0.40625q0.328125 0.40625 0.328125 1.03125l0 2.90625l-0.640625 0l0 -2.828125q0 -0.421875 -0.234375 -0.671875q-0.234375 -0.265625 -0.65625 -0.265625q-0.375 0 -0.6875 0.109375q-0.296875 0.09375 -0.671875 0.296875l0 3.359375l-0.625 0l0 -4.265625zm4.797699 -0.765625q-0.0625 0 -0.09375 -0.03125q-0.03125 -0.046875 -0.03125 -0.09375l0 -0.625q0 -0.125 0.125 -0.125l0.453125 0q0.109375 0 0.109375 0.125l0 0.625q0 0.125 -0.109375 0.125l-0.453125 0zm-0.09375 0.765625l0.625 0l0 4.265625l-0.625 0l0 -4.265625zm3.3948364 4.3125q-0.8125 0 -1.265625 -0.46875q-0.4375 -0.484375 -0.4375 -1.703125q0 -0.859375 0.203125 -1.328125q0.203125 -0.484375 0.578125 -0.671875q0.375 -0.1875 0.9375 -0.1875q0.765625 0 1.421875 0.109375l0 0.375l-1.25 0q-0.4375 0 -0.703125 0.140625q-0.265625 0.140625 -0.40625 0.515625q-0.140625 0.375 -0.140625 1.0625q0 0.65625 0.140625 1.015625q0.15625 0.359375 0.421875 0.5q0.265625 0.140625 0.703125 0.140625l1.296875 0l0 0.375q-0.75 0.125 -1.5 0.125zm3.2012024 0q-0.484375 0 -0.78125 -0.28125q-0.296875 -0.296875 -0.296875 -0.796875l0 -0.296875q0 -0.515625 0.34375 -0.8125q0.34375 -0.3125 1.0 -0.3125l1.4375 0l0 -0.53125q0 -0.4375 -0.234375 -0.640625q-0.234375 -0.203125 -0.859375 -0.203125l-1.328125 0l0 -0.375q0.75 -0.140625 1.546875 -0.140625q0.78125 0 1.140625 0.328125q0.375 0.3125 0.375 1.0l0 3.015625l-0.5 0l-0.109375 -0.484375q-0.0625 0.046875 -0.359375 0.1875q-0.28125 0.125 -0.65625 0.234375q-0.375 0.109375 -0.71875 0.109375zm0.28125 -0.46875q0.21875 0 0.53125 -0.078125q0.3125 -0.078125 0.5625 -0.171875q0.25 -0.09375 0.328125 -0.125l0 -1.34375l-1.296875 0.0625q-0.4375 0.015625 -0.65625 0.21875q-0.203125 0.203125 -0.203125 0.546875l0 0.1875q0 0.359375 0.21875 0.53125q0.21875 0.171875 0.515625 0.171875zm4.37558 0.4375q-0.578125 0 -0.859375 -0.3125q-0.265625 -0.3125 -0.265625 -1.078125l0 -4.734375l0.625 0l0 4.65625q0 0.53125 0.140625 0.734375q0.15625 0.1875 0.46875 0.21875l0.421875 0.046875l0 0.46875l-0.53125 0zm4.5744324 -0.015625q-0.5625 0 -0.875 -0.265625q-0.3125 -0.265625 -0.3125 -0.921875l0 -4.703125l0.640625 0l0 4.625q0 0.390625 0.1875 0.546875q0.1875 0.140625 0.5 0.140625l2.109375 0l0 0.578125l-2.25 0zm4.693451 0.046875q-0.6875 0 -1.0625 -0.203125q-0.375 -0.203125 -0.546875 -0.671875q-0.171875 -0.46875 -0.171875 -1.3125q0 -0.859375 0.171875 -1.328125q0.171875 -0.46875 0.546875 -0.65625q0.390625 -0.203125 1.078125 -0.203125q0.578125 0 0.921875 0.125q0.359375 0.125 0.53125 0.4375q0.171875 0.3125 0.171875 0.859375q0 0.53125 -0.328125 0.78125q-0.3125 0.25 -0.890625 0.25l-1.5625 0q0 0.546875 0.09375 0.84375q0.109375 0.296875 0.390625 0.4375q0.28125 0.140625 0.8125 0.140625l1.375 0l0 0.390625q-0.421875 0.046875 -0.765625 0.078125q-0.34375 0.03125 -0.765625 0.03125zm0.359375 -2.34375q0.375 0 0.53125 -0.125q0.171875 -0.140625 0.171875 -0.484375q0 -0.53125 -0.234375 -0.734375q-0.234375 -0.203125 -0.8125 -0.203125q-0.46875 0 -0.71875 0.140625q-0.25 0.125 -0.359375 0.453125q-0.09375 0.328125 -0.09375 0.953125l1.515625 0zm3.171692 2.34375q-0.484375 0 -0.78125 -0.28125q-0.296875 -0.296875 -0.296875 -0.796875l0 -0.296875q0 -0.515625 0.34375 -0.8125q0.34375 -0.3125 1.0 -0.3125l1.4375 0l0 -0.53125q0 -0.4375 -0.234375 -0.640625q-0.234375 -0.203125 -0.859375 -0.203125l-1.328125 0l0 -0.375q0.75 -0.140625 1.546875 -0.140625q0.78125 0 1.140625 0.328125q0.375 0.3125 0.375 1.0l0 3.015625l-0.5 0l-0.109375 -0.484375q-0.0625 0.046875 -0.359375 0.1875q-0.28125 0.125 -0.65625 0.234375q-0.375 0.109375 -0.71875 0.109375zm0.28125 -0.46875q0.21875 0 0.53125 -0.078125q0.3125 -0.078125 0.5625 -0.171875q0.25 -0.09375 0.328125 -0.125l0 -1.34375l-1.296875 0.0625q-0.4375 0.015625 -0.65625 0.21875q-0.203125 0.203125 -0.203125 0.546875l0 0.1875q0 0.359375 0.21875 0.53125q0.21875 0.171875 0.515625 0.171875zm4.62558 0.46875q-0.78125 0 -1.15625 -0.515625q-0.375 -0.515625 -0.375 -1.640625q0 -0.796875 0.15625 -1.28125q0.171875 -0.484375 0.515625 -0.703125q0.359375 -0.234375 0.953125 -0.234375q0.609375 0 1.3125 0.25l0 -2.03125l0.625 0l0 6.109375l-0.515625 0l-0.109375 -0.4375q-0.203125 0.171875 -0.625 0.328125q-0.421875 0.15625 -0.78125 0.15625zm0.1875 -0.515625q0.34375 0 0.625 -0.09375q0.28125 -0.109375 0.59375 -0.265625l0 -2.796875q-0.375 -0.109375 -0.625 -0.15625q-0.234375 -0.046875 -0.53125 -0.046875q-0.421875 0 -0.671875 0.15625q-0.25 0.15625 -0.359375 0.53125q-0.109375 0.359375 -0.109375 1.015625q0 0.890625 0.234375 1.28125q0.25 0.375 0.84375 0.375z" fill-rule="nonzero"></path><path fill="#b6d7a8" d="m410.24136 76.985l0 0c0 -3.209404 2.6017456 -5.8111343 5.811157 -5.8111343l98.04703 0c1.5411987 0 3.019287 0.612236 4.10907 1.7020416c1.0897827 1.089798 1.7020264 2.5678864 1.7020264 4.1090927l0 23.243866c0 3.209404 -2.6017456 5.8111343 -5.811096 5.8111343l-98.04703 0c-3.2094116 0 -5.811157 -2.6017303 -5.811157 -5.8111343z" fill-rule="evenodd"></path><path stroke="#000000" stroke-width="1.0" stroke-linejoin="round" stroke-linecap="butt" d="m410.24136 76.985l0 0c0 -3.209404 2.6017456 -5.8111343 5.811157 -5.8111343l98.04703 0c1.5411987 0 3.019287 0.612236 4.10907 1.7020416c1.0897827 1.089798 1.7020264 2.5678864 1.7020264 4.1090927l0 23.243866c0 3.209404 -2.6017456 5.8111343 -5.811096 5.8111343l-98.04703 0c-3.2094116 0 -5.811157 -2.6017303 -5.811157 -5.8111343z" fill-rule="evenodd"></path><path fill="#000000" fill-opacity="0.0" d="m420.24023 76.86652l89.700806 0l0 23.496063l-89.700806 0z" fill-rule="evenodd"></path><path fill="#000000" d="m443.6842 91.34143q-0.375 0 -0.9375 -0.046875q-0.546875 -0.046875 -0.84375 -0.09375l0 -0.484375q0.625 0.0625 1.765625 0.0625q0.609375 0 0.9375 -0.1875q0.34375 -0.203125 0.34375 -0.703125l0 -0.40625q0 -0.828125 -0.890625 -0.828125l-0.625 0q-0.765625 0 -1.15625 -0.328125q-0.390625 -0.328125 -0.390625 -1.09375l0 -0.34375q0 -0.796875 0.421875 -1.15625q0.4375 -0.375 1.28125 -0.375q0.359375 0 0.859375 0.0625q0.515625 0.046875 0.84375 0.109375l0 0.484375q-1.078125 -0.078125 -1.640625 -0.078125q-0.59375 0 -0.875 0.21875q-0.28125 0.203125 -0.28125 0.765625l0 0.265625q0 0.46875 0.234375 0.671875q0.25 0.1875 0.734375 0.1875l0.671875 0q0.703125 0 1.0625 0.375q0.359375 0.375 0.359375 1.0l0 0.453125q0 0.828125 -0.5 1.15625q-0.5 0.3125 -1.375 0.3125zm4.498932 0q-0.8125 0 -1.265625 -0.46875q-0.4375 -0.484375 -0.4375 -1.703125q0 -0.859375 0.203125 -1.328125q0.203125 -0.484375 0.578125 -0.671875q0.375 -0.1875 0.9375 -0.1875q0.765625 0 1.421875 0.109375l0 0.375l-1.25 0q-0.4375 0 -0.703125 0.140625q-0.265625 0.140625 -0.40625 0.515625q-0.140625 0.375 -0.140625 1.0625q0 0.65625 0.140625 1.015625q0.15625 0.359375 0.421875 0.5q0.265625 0.140625 0.703125 0.140625l1.296875 0l0 0.375q-0.75 0.125 -1.5 0.125zm2.4668274 -5.078125q-0.0625 0 -0.09375 -0.03125q-0.03125 -0.046875 -0.03125 -0.09375l0 -0.625q0 -0.125 0.125 -0.125l0.453125 0q0.109375 0 0.109375 0.125l0 0.625q0 0.125 -0.109375 0.125l-0.453125 0zm-0.09375 0.765625l0.625 0l0 4.265625l-0.625 0l0 -4.265625zm3.472992 4.3125q-0.6875 0 -1.0625 -0.203125q-0.375 -0.203125 -0.546875 -0.671875q-0.171875 -0.46875 -0.171875 -1.3125q0 -0.859375 0.171875 -1.328125q0.171875 -0.46875 0.546875 -0.65625q0.390625 -0.203125 1.078125 -0.203125q0.578125 0 0.921875 0.125q0.359375 0.125 0.53125 0.4375q0.171875 0.3125 0.171875 0.859375q0 0.53125 -0.328125 0.78125q-0.3125 0.25 -0.890625 0.25l-1.5625 0q0 0.546875 0.09375 0.84375q0.109375 0.296875 0.390625 0.4375q0.28125 0.140625 0.8125 0.140625l1.375 0l0 0.390625q-0.421875 0.046875 -0.765625 0.078125q-0.34375 0.03125 -0.765625 0.03125zm0.359375 -2.34375q0.375 0 0.53125 -0.125q0.171875 -0.140625 0.171875 -0.484375q0 -0.53125 -0.234375 -0.734375q-0.234375 -0.203125 -0.8125 -0.203125q-0.46875 0 -0.71875 0.140625q-0.25 0.125 -0.359375 0.453125q-0.09375 0.328125 -0.09375 0.953125l1.515625 0zm2.343567 -1.96875l0.5 0l0.125 0.46875q0.34375 -0.234375 0.75 -0.390625q0.40625 -0.15625 0.8125 -0.15625q0.671875 0 1.0 0.40625q0.328125 0.40625 0.328125 1.03125l0 2.90625l-0.640625 0l0 -2.828125q0 -0.421875 -0.234375 -0.671875q-0.234375 -0.265625 -0.65625 -0.265625q-0.375 0 -0.6875 0.109375q-0.296875 0.09375 -0.671875 0.296875l0 3.359375l-0.625 0l0 -4.265625zm6.2507935 4.3125q-0.8125 0 -1.265625 -0.46875q-0.4375 -0.484375 -0.4375 -1.703125q0 -0.859375 0.203125 -1.328125q0.203125 -0.484375 0.578125 -0.671875q0.375 -0.1875 0.9375 -0.1875q0.765625 0 1.421875 0.109375l0 0.375l-1.25 0q-0.4375 0 -0.703125 0.140625q-0.265625 0.140625 -0.40625 0.515625q-0.140625 0.375 -0.140625 1.0625q0 0.65625 0.140625 1.015625q0.15625 0.359375 0.421875 0.5q0.265625 0.140625 0.703125 0.140625l1.296875 0l0 0.375q-0.75 0.125 -1.5 0.125zm3.9980774 0q-0.6875 0 -1.0625 -0.203125q-0.375 -0.203125 -0.546875 -0.671875q-0.171875 -0.46875 -0.171875 -1.3125q0 -0.859375 0.171875 -1.328125q0.171875 -0.46875 0.546875 -0.65625q0.390625 -0.203125 1.078125 -0.203125q0.578125 0 0.921875 0.125q0.359375 0.125 0.53125 0.4375q0.171875 0.3125 0.171875 0.859375q0 0.53125 -0.328125 0.78125q-0.3125 0.25 -0.890625 0.25l-1.5625 0q0 0.546875 0.09375 0.84375q0.109375 0.296875 0.390625 0.4375q0.28125 0.140625 0.8125 0.140625l1.375 0l0 0.390625q-0.421875 0.046875 -0.765625 0.078125q-0.34375 0.03125 -0.765625 0.03125zm0.359375 -2.34375q0.375 0 0.53125 -0.125q0.171875 -0.140625 0.171875 -0.484375q0 -0.53125 -0.234375 -0.734375q-0.234375 -0.203125 -0.8125 -0.203125q-0.46875 0 -0.71875 0.140625q-0.25 0.125 -0.359375 0.453125q-0.09375 0.328125 -0.09375 0.953125l1.515625 0zm5.69104 2.296875q-0.5625 0 -0.875 -0.265625q-0.3125 -0.265625 -0.3125 -0.921875l0 -4.703125l0.640625 0l0 4.625q0 0.390625 0.1875 0.546875q0.1875 0.140625 0.5 0.140625l2.109375 0l0 0.578125l-2.25 0zm4.693451 0.046875q-0.6875 0 -1.0625 -0.203125q-0.375 -0.203125 -0.546875 -0.671875q-0.171875 -0.46875 -0.171875 -1.3125q0 -0.859375 0.171875 -1.328125q0.171875 -0.46875 0.546875 -0.65625q0.390625 -0.203125 1.078125 -0.203125q0.578125 0 0.921875 0.125q0.359375 0.125 0.53125 0.4375q0.171875 0.3125 0.171875 0.859375q0 0.53125 -0.328125 0.78125q-0.3125 0.25 -0.890625 0.25l-1.5625 0q0 0.546875 0.09375 0.84375q0.109375 0.296875 0.390625 0.4375q0.28125 0.140625 0.8125 0.140625l1.375 0l0 0.390625q-0.421875 0.046875 -0.765625 0.078125q-0.34375 0.03125 -0.765625 0.03125zm0.359375 -2.34375q0.375 0 0.53125 -0.125q0.171875 -0.140625 0.171875 -0.484375q0 -0.53125 -0.234375 -0.734375q-0.234375 -0.203125 -0.8125 -0.203125q-0.46875 0 -0.71875 0.140625q-0.25 0.125 -0.359375 0.453125q-0.09375 0.328125 -0.09375 0.953125l1.515625 0zm3.171692 2.34375q-0.484375 0 -0.78125 -0.28125q-0.296875 -0.296875 -0.296875 -0.796875l0 -0.296875q0 -0.515625 0.34375 -0.8125q0.34375 -0.3125 1.0 -0.3125l1.4375 0l0 -0.53125q0 -0.4375 -0.234375 -0.640625q-0.234375 -0.203125 -0.859375 -0.203125l-1.328125 0l0 -0.375q0.75 -0.140625 1.546875 -0.140625q0.78125 0 1.140625 0.328125q0.375 0.3125 0.375 1.0l0 3.015625l-0.5 0l-0.109375 -0.484375q-0.0625 0.046875 -0.359375 0.1875q-0.28125 0.125 -0.65625 0.234375q-0.375 0.109375 -0.71875 0.109375zm0.28125 -0.46875q0.21875 0 0.53125 -0.078125q0.3125 -0.078125 0.5625 -0.171875q0.25 -0.09375 0.328125 -0.125l0 -1.34375l-1.296875 0.0625q-0.4375 0.015625 -0.65625 0.21875q-0.203125 0.203125 -0.203125 0.546875l0 0.1875q0 0.359375 0.21875 0.53125q0.21875 0.171875 0.515625 0.171875zm4.62558 0.46875q-0.78125 0 -1.15625 -0.515625q-0.375 -0.515625 -0.375 -1.640625q0 -0.796875 0.15625 -1.28125q0.171875 -0.484375 0.515625 -0.703125q0.359375 -0.234375 0.953125 -0.234375q0.609375 0 1.3125 0.25l0 -2.03125l0.625 0l0 6.109375l-0.515625 0l-0.109375 -0.4375q-0.203125 0.171875 -0.625 0.328125q-0.421875 0.15625 -0.78125 0.15625zm0.1875 -0.515625q0.34375 0 0.625 -0.09375q0.28125 -0.109375 0.59375 -0.265625l0 -2.796875q-0.375 -0.109375 -0.625 -0.15625q-0.234375 -0.046875 -0.53125 -0.046875q-0.421875 0 -0.671875 0.15625q-0.25 0.15625 -0.359375 0.53125q-0.109375 0.359375 -0.109375 1.015625q0 0.890625 0.234375 1.28125q0.25 0.375 0.84375 0.375z" fill-rule="nonzero"></path><path fill="#000000" fill-opacity="0.0" d="m111.209564 71.17387l176.94489 -36.314964" fill-rule="evenodd"></path><path stroke="#ffffff" stroke-width="1.0" stroke-linejoin="round" stroke-linecap="butt" d="m111.209564 71.17387l176.94489 -36.314964" fill-rule="evenodd"></path><path fill="#000000" fill-opacity="0.0" d="m288.15717 34.890396l-58.99211 36.28347" fill-rule="evenodd"></path><path stroke="#ffffff" stroke-width="1.0" stroke-linejoin="round" stroke-linecap="butt" d="m288.15717 34.890396l-58.99211 36.28347" fill-rule="evenodd"></path><path fill="#000000" fill-opacity="0.0" d="m288.1428 34.866142l58.992126 36.314957" fill-rule="evenodd"></path><path stroke="#ffffff" stroke-width="1.0" stroke-linejoin="round" stroke-linecap="butt" d="m288.1428 34.866142l58.992126 36.314957" fill-rule="evenodd"></path><path fill="#000000" fill-opacity="0.0" d="m288.1428 34.866142l176.94489 36.314957" fill-rule="evenodd"></path><path stroke="#ffffff" stroke-width="1.0" stroke-linejoin="round" stroke-linecap="butt" d="m288.1428 34.866142l176.94489 36.314957" fill-rule="evenodd"></path><path fill="#b6d7a8" d="m410.24136 5.81114l0 0c0 -3.2094042 2.6017456 -5.81114 5.811157 -5.81114l98.04703 0c1.5411987 0 3.019287 0.61224335 4.10907 1.7020434c1.0897827 1.0898002 1.7020264 2.5678864 1.7020264 4.1090965l0 23.243862c0 3.209402 -2.6017456 5.81114 -5.811096 5.81114l-98.04703 0c-3.2094116 0 -5.811157 -2.601738 -5.811157 -5.81114z" fill-rule="evenodd"></path><path stroke="#000000" stroke-width="1.0" stroke-linejoin="round" stroke-linecap="butt" d="m410.24136 5.81114l0 0c0 -3.2094042 2.6017456 -5.81114 5.811157 -5.81114l98.04703 0c1.5411987 0 3.019287 0.61224335 4.10907 1.7020434c1.0897827 1.0898002 1.7020264 2.5678864 1.7020264 4.1090965l0 23.243862c0 3.209402 -2.6017456 5.81114 -5.811096 5.81114l-98.04703 0c-3.2094116 0 -5.811157 -2.601738 -5.811157 -5.81114z" fill-rule="evenodd"></path><path fill="#000000" fill-opacity="0.0" d="m415.75885 7.4742737l98.64569 0l0 19.937008l-98.64569 0z" fill-rule="evenodd"></path><path fill="#000000" d="m428.54742 14.232153l0.828125 0l2.015625 5.890625l-0.65625 0l-0.59375 -1.6875l-2.375 0l-0.578125 1.6875l-0.65625 0l2.015625 -5.890625zm1.4375 3.640625l-1.015625 -3.078125l-1.046875 3.078125l2.0625 0zm3.6575623 2.296875q-0.78125 0 -1.15625 -0.515625q-0.375 -0.515625 -0.375 -1.640625q0 -0.796875 0.15625 -1.28125q0.171875 -0.484375 0.515625 -0.703125q0.359375 -0.234375 0.953125 -0.234375q0.609375 0 1.3125 0.25l0 -2.03125l0.625 0l0 6.109375l-0.515625 0l-0.109375 -0.4375q-0.203125 0.171875 -0.625 0.328125q-0.421875 0.15625 -0.78125 0.15625zm0.1875 -0.515625q0.34375 0 0.625 -0.09375q0.28125 -0.109375 0.59375 -0.265625l0 -2.796875q-0.375 -0.109375 -0.625 -0.15625q-0.234375 -0.046875 -0.53125 -0.046875q-0.421875 0 -0.671875 0.15625q-0.25 0.15625 -0.359375 0.53125q-0.109375 0.359375 -0.109375 1.015625q0 0.890625 0.234375 1.28125q0.25 0.375 0.84375 0.375zm3.037445 -3.796875l0.5 0l0.125 0.46875q0.8125 -0.546875 1.609375 -0.546875q0.375 0 0.65625 0.171875q0.296875 0.171875 0.453125 0.453125q0.328125 -0.234375 0.8125 -0.421875q0.484375 -0.203125 0.90625 -0.203125q0.65625 0 1.0 0.40625q0.34375 0.40625 0.34375 1.0625l0 2.875l-0.640625 0l0 -2.828125q0 -0.421875 -0.25 -0.671875q-0.234375 -0.265625 -0.65625 -0.265625q-0.34375 0 -0.71875 0.125q-0.359375 0.125 -0.703125 0.34375q0.078125 0.25 0.078125 0.46875l0 2.828125l-0.640625 0l0 -2.828125q0 -0.421875 -0.234375 -0.671875q-0.234375 -0.265625 -0.65625 -0.265625q-0.375 0 -0.6875 0.109375q-0.296875 0.09375 -0.671875 0.296875l0 3.359375l-0.625 0l0 -4.265625zm7.6776733 -0.765625q-0.0625 0 -0.09375 -0.03125q-0.03125 -0.046875 -0.03125 -0.09375l0 -0.625q0 -0.125 0.125 -0.125l0.453125 0q0.109375 0 0.109375 0.125l0 0.625q0 0.125 -0.109375 0.125l-0.453125 0zm-0.09375 0.765625l0.625 0l0 4.265625l-0.625 0l0 -4.265625zm1.8479614 0l0.5 0l0.125 0.46875q0.34375 -0.234375 0.75 -0.390625q0.40625 -0.15625 0.8125 -0.15625q0.671875 0 1.0 0.40625q0.328125 0.40625 0.328125 1.03125l0 2.90625l-0.640625 0l0 -2.828125q0 -0.421875 -0.234375 -0.671875q-0.234375 -0.265625 -0.65625 -0.265625q-0.375 0 -0.6875 0.109375q-0.296875 0.09375 -0.671875 0.296875l0 3.359375l-0.625 0l0 -4.265625zm4.797699 -0.765625q-0.0625 0 -0.09375 -0.03125q-0.03125 -0.046875 -0.03125 -0.09375l0 -0.625q0 -0.125 0.125 -0.125l0.453125 0q0.109375 0 0.109375 0.125l0 0.625q0 0.125 -0.109375 0.125l-0.453125 0zm-0.09375 0.765625l0.625 0l0 4.265625l-0.625 0l0 -4.265625zm3.3167114 4.3125q-0.359375 0 -0.90625 -0.03125q-0.546875 -0.03125 -0.734375 -0.078125l0 -0.390625l1.75 0q0.4375 0 0.640625 -0.109375q0.21875 -0.125 0.21875 -0.515625l0 -0.1875q0 -0.59375 -0.78125 -0.59375l-0.59375 0q-0.609375 0 -0.953125 -0.234375q-0.328125 -0.25 -0.328125 -0.828125l0 -0.21875q0 -0.609375 0.359375 -0.890625q0.359375 -0.28125 1.140625 -0.28125q0.34375 0 0.8125 0.046875q0.46875 0.03125 0.734375 0.078125l0 0.375l-1.640625 0q-0.4375 0 -0.65625 0.15625q-0.203125 0.140625 -0.203125 0.515625l0 0.171875q0 0.34375 0.203125 0.46875q0.21875 0.109375 0.640625 0.109375l0.609375 0q0.578125 0 0.890625 0.28125q0.328125 0.265625 0.328125 0.765625l0 0.296875q0 0.609375 -0.390625 0.859375q-0.390625 0.234375 -1.140625 0.234375zm3.9530945 -0.046875q-0.640625 0 -0.9375 -0.3125q-0.296875 -0.328125 -0.28125 -1.078125l0.03125 -2.359375l-0.6875 0l0 -0.40625l0.6875 -0.109375l0.109375 -1.203125l0.484375 0l0 1.203125l1.234375 0l0 0.515625l-1.234375 0l0 2.359375q0 0.5 0.1875 0.6875q0.1875 0.171875 0.46875 0.1875l0.515625 0.046875l0 0.46875l-0.578125 0zm1.5140686 -4.265625l0.484375 0l0.140625 0.734375q0.3125 -0.375 0.671875 -0.578125q0.359375 -0.203125 0.796875 -0.203125q0.21875 0 0.40625 0.03125l0 0.65625q-0.359375 -0.046875 -0.46875 -0.046875q-0.421875 0 -0.734375 0.15625q-0.3125 0.140625 -0.671875 0.484375l0 3.03125l-0.625 0l0 -4.265625zm4.1240845 4.3125q-0.484375 0 -0.78125 -0.28125q-0.296875 -0.296875 -0.296875 -0.796875l0 -0.296875q0 -0.515625 0.34375 -0.8125q0.34375 -0.3125 1.0 -0.3125l1.4375 0l0 -0.53125q0 -0.4375 -0.234375 -0.640625q-0.234375 -0.203125 -0.859375 -0.203125l-1.328125 0l0 -0.375q0.75 -0.140625 1.546875 -0.140625q0.78125 0 1.140625 0.328125q0.375 0.3125 0.375 1.0l0 3.015625l-0.5 0l-0.109375 -0.484375q-0.0625 0.046875 -0.359375 0.1875q-0.28125 0.125 -0.65625 0.234375q-0.375 0.109375 -0.71875 0.109375zm0.28125 -0.46875q0.21875 0 0.53125 -0.078125q0.3125 -0.078125 0.5625 -0.171875q0.25 -0.09375 0.328125 -0.125l0 -1.34375l-1.296875 0.0625q-0.4375 0.015625 -0.65625 0.21875q-0.203125 0.203125 -0.203125 0.546875l0 0.1875q0 0.359375 0.21875 0.53125q0.21875 0.171875 0.515625 0.171875zm4.672455 0.421875q-0.640625 0 -0.9375 -0.3125q-0.296875 -0.328125 -0.28125 -1.078125l0.03125 -2.359375l-0.6875 0l0 -0.40625l0.6875 -0.109375l0.109375 -1.203125l0.484375 0l0 1.203125l1.234375 0l0 0.515625l-1.234375 0l0 2.359375q0 0.5 0.1875 0.6875q0.1875 0.171875 0.46875 0.1875l0.515625 0.046875l0 0.46875l-0.578125 0zm1.6078186 -5.03125q-0.0625 0 -0.09375 -0.03125q-0.03125 -0.046875 -0.03125 -0.09375l0 -0.625q0 -0.125 0.125 -0.125l0.453125 0q0.109375 0 0.109375 0.125l0 0.625q0 0.125 -0.109375 0.125l-0.453125 0zm-0.09375 0.765625l0.625 0l0 4.265625l-0.625 0l0 -4.265625zm3.535492 4.3125q-0.65625 0 -1.0625 -0.171875q-0.390625 -0.1875 -0.59375 -0.65625q-0.1875 -0.484375 -0.1875 -1.359375q0 -0.890625 0.203125 -1.359375q0.203125 -0.46875 0.59375 -0.640625q0.390625 -0.1875 1.046875 -0.1875q0.65625 0 1.0625 0.1875q0.40625 0.171875 0.59375 0.65625q0.203125 0.46875 0.203125 1.34375q0 0.875 -0.203125 1.359375q-0.1875 0.46875 -0.59375 0.65625q-0.390625 0.171875 -1.0625 0.171875zm0 -0.515625q0.453125 0 0.703125 -0.109375q0.25 -0.125 0.375 -0.484375q0.140625 -0.359375 0.140625 -1.078125q0 -0.71875 -0.140625 -1.078125q-0.125 -0.359375 -0.375 -0.46875q-0.25 -0.125 -0.703125 -0.125q-0.4375 0 -0.6875 0.125q-0.25 0.109375 -0.390625 0.46875q-0.125 0.359375 -0.125 1.078125q0 0.71875 0.125 1.078125q0.140625 0.359375 0.390625 0.484375q0.25 0.109375 0.6875 0.109375zm2.9284363 -3.796875l0.5 0l0.125 0.46875q0.34375 -0.234375 0.75 -0.390625q0.40625 -0.15625 0.8125 -0.15625q0.671875 0 1.0 0.40625q0.328125 0.40625 0.328125 1.03125l0 2.90625l-0.640625 0l0 -2.828125q0 -0.421875 -0.234375 -0.671875q-0.234375 -0.265625 -0.65625 -0.265625q-0.375 0 -0.6875 0.109375q-0.296875 0.09375 -0.671875 0.296875l0 3.359375l-0.625 0l0 -4.265625zm8.207642 -1.046875l-1.828125 0l0 -0.578125l4.28125 0l0 0.578125l-1.828125 0l0 5.3125l-0.625 0l0 -5.3125zm4.809204 5.359375q-0.6875 0 -1.0625 -0.203125q-0.375 -0.203125 -0.546875 -0.671875q-0.171875 -0.46875 -0.171875 -1.3125q0 -0.859375 0.171875 -1.328125q0.171875 -0.46875 0.546875 -0.65625q0.390625 -0.203125 1.078125 -0.203125q0.578125 0 0.921875 0.125q0.359375 0.125 0.53125 0.4375q0.171875 0.3125 0.171875 0.859375q0 0.53125 -0.328125 0.78125q-0.3125 0.25 -0.890625 0.25l-1.5625 0q0 0.546875 0.09375 0.84375q0.109375 0.296875 0.390625 0.4375q0.28125 0.140625 0.8125 0.140625l1.375 0l0 0.390625q-0.421875 0.046875 -0.765625 0.078125q-0.34375 0.03125 -0.765625 0.03125zm0.359375 -2.34375q0.375 0 0.53125 -0.125q0.171875 -0.140625 0.171875 -0.484375q0 -0.53125 -0.234375 -0.734375q-0.234375 -0.203125 -0.8125 -0.203125q-0.46875 0 -0.71875 0.140625q-0.25 0.125 -0.359375 0.453125q-0.09375 0.328125 -0.09375 0.953125l1.515625 0zm3.171692 2.34375q-0.484375 0 -0.78125 -0.28125q-0.296875 -0.296875 -0.296875 -0.796875l0 -0.296875q0 -0.515625 0.34375 -0.8125q0.34375 -0.3125 1.0 -0.3125l1.4375 0l0 -0.53125q0 -0.4375 -0.234375 -0.640625q-0.234375 -0.203125 -0.859375 -0.203125l-1.328125 0l0 -0.375q0.75 -0.140625 1.546875 -0.140625q0.78125 0 1.140625 0.328125q0.375 0.3125 0.375 1.0l0 3.015625l-0.5 0l-0.109375 -0.484375q-0.0625 0.046875 -0.359375 0.1875q-0.28125 0.125 -0.65625 0.234375q-0.375 0.109375 -0.71875 0.109375zm0.28125 -0.46875q0.21875 0 0.53125 -0.078125q0.3125 -0.078125 0.5625 -0.171875q0.25 -0.09375 0.328125 -0.125l0 -1.34375l-1.296875 0.0625q-0.4375 0.015625 -0.65625 0.21875q-0.203125 0.203125 -0.203125 0.546875l0 0.1875q0 0.359375 0.21875 0.53125q0.21875 0.171875 0.515625 0.171875zm3.2505493 -3.84375l0.5 0l0.125 0.46875q0.8125 -0.546875 1.609375 -0.546875q0.375 0 0.65625 0.171875q0.296875 0.171875 0.453125 0.453125q0.328125 -0.234375 0.8125 -0.421875q0.484375 -0.203125 0.90625 -0.203125q0.65625 0 1.0 0.40625q0.34375 0.40625 0.34375 1.0625l0 2.875l-0.640625 0l0 -2.828125q0 -0.421875 -0.25 -0.671875q-0.234375 -0.265625 -0.65625 -0.265625q-0.34375 0 -0.71875 0.125q-0.359375 0.125 -0.703125 0.34375q0.078125 0.25 0.078125 0.46875l0 2.828125l-0.640625 0l0 -2.828125q0 -0.421875 -0.234375 -0.671875q-0.234375 -0.265625 -0.65625 -0.265625q-0.375 0 -0.6875 0.109375q-0.296875 0.09375 -0.671875 0.296875l0 3.359375l-0.625 0l0 -4.265625z" fill-rule="nonzero"></path><path fill="#000000" fill-opacity="0.0" d="m410.24136 17.433071l-67.27557 0" fill-rule="evenodd"></path><path stroke="#ffffff" stroke-width="1.0" stroke-linejoin="round" stroke-linecap="butt" d="m410.24136 17.433071l-67.27557 0" fill-rule="evenodd"></path><path fill="#b6d7a8" d="m447.00037 200.34416l0 0c0 -19.847458 16.371552 -35.93701 36.566925 -35.93701l0 0c9.698151 0 18.999084 3.786209 25.85672 10.525711c6.857605 6.739502 10.710205 15.8802185 10.710205 25.4113l0 0c0 19.847458 -16.371582 35.93701 -36.566925 35.93701l0 0c-20.195374 0 -36.566925 -16.089554 -36.566925 -35.93701z" fill-rule="evenodd"></path><path stroke="#000000" stroke-width="1.0" stroke-linejoin="round" stroke-linecap="butt" d="m447.00037 200.34416l0 0c0 -19.847458 16.371552 -35.93701 36.566925 -35.93701l0 0c9.698151 0 18.999084 3.786209 25.85672 10.525711c6.857605 6.739502 10.710205 15.8802185 10.710205 25.4113l0 0c0 19.847458 -16.371582 35.93701 -36.566925 35.93701l0 0c-20.195374 0 -36.566925 -16.089554 -36.566925 -35.93701z" fill-rule="evenodd"></path><path fill="#000000" fill-opacity="0.0" d="m459.7621 193.22679l47.590546 0l0 14.236221l-47.590546 0z" fill-rule="evenodd"></path><path fill="#000000" d="m477.7027 192.13428l0.828125 0l2.015625 5.890625l-0.65625 0l-0.59375 -1.6875l-2.375 0l-0.578125 1.6875l-0.65625 0l2.015625 -5.890625zm1.4375 3.640625l-1.015625 -3.078125l-1.046875 3.078125l2.0625 0zm2.2825623 -2.015625l0.484375 0l0.140625 0.734375q0.3125 -0.375 0.671875 -0.578125q0.359375 -0.203125 0.796875 -0.203125q0.21875 0 0.40625 0.03125l0 0.65625q-0.359375 -0.046875 -0.46875 -0.046875q-0.421875 0 -0.734375 0.15625q-0.3125 0.140625 -0.671875 0.484375l0 3.03125l-0.625 0l0 -4.265625zm3.2959595 0l0.5 0l0.125 0.46875q0.8125 -0.546875 1.609375 -0.546875q0.375 0 0.65625 0.171875q0.296875 0.171875 0.453125 0.453125q0.328125 -0.234375 0.8125 -0.421875q0.484375 -0.203125 0.90625 -0.203125q0.65625 0 1.0 0.40625q0.34375 0.40625 0.34375 1.0625l0 2.875l-0.640625 0l0 -2.828125q0 -0.421875 -0.25 -0.671875q-0.234375 -0.265625 -0.65625 -0.265625q-0.34375 0 -0.71875 0.125q-0.359375 0.125 -0.703125 0.34375q0.078125 0.25 0.078125 0.46875l0 2.828125l-0.640625 0l0 -2.828125q0 -0.421875 -0.234375 -0.671875q-0.234375 -0.265625 -0.65625 -0.265625q-0.375 0 -0.6875 0.109375q-0.296875 0.09375 -0.671875 0.296875l0 3.359375l-0.625 0l0 -4.265625z" fill-rule="nonzero"></path><path fill="#000000" d="m477.75308 209.7124q-0.65625 -1.03125 -1.015625 -2.046875q-0.34375 -1.015625 -0.34375 -2.25q0 -1.203125 0.359375 -2.234375q0.359375 -1.03125 1.0 -2.03125l0.578125 0q-0.625 1.078125 -0.96875 2.109375q-0.34375 1.015625 -0.34375 2.15625q0 1.15625 0.328125 2.15625q0.328125 1.0 0.984375 2.140625l-0.578125 0zm3.0415955 -7.578125l0.828125 0l2.015625 5.890625l-0.65625 0l-0.59375 -1.6875l-2.375 0l-0.578125 1.6875l-0.65625 0l2.015625 -5.890625zm1.4375 3.640625l-1.015625 -3.078125l-1.046875 3.078125l2.0625 0zm3.4075623 2.265625q-0.578125 0 -0.859375 -0.3125q-0.265625 -0.3125 -0.265625 -1.078125l0 -4.734375l0.625 0l0 4.65625q0 0.53125 0.140625 0.734375q0.15625 0.1875 0.46875 0.21875l0.421875 0.046875l0 0.46875l-0.53125 0zm2.3519592 0q-0.578125 0 -0.859375 -0.3125q-0.265625 -0.3125 -0.265625 -1.078125l0 -4.734375l0.625 0l0 4.65625q0 0.53125 0.140625 0.734375q0.15625 0.1875 0.46875 0.21875l0.421875 0.046875l0 0.46875l-0.53125 0zm0.78948975 1.671875q0.640625 -1.09375 0.96875 -2.109375q0.34375 -1.015625 0.34375 -2.171875q0 -1.171875 -0.328125 -2.15625q-0.3125 -1.0 -0.984375 -2.125l0.59375 0q0.671875 1.015625 1.0 2.015625q0.34375 1.0 0.34375 2.265625q0 1.21875 -0.34375 2.234375q-0.328125 1.015625 -1.0 2.046875l-0.59375 0z" fill-rule="nonzero"></path><path fill="#b6d7a8" d="m253.4544 200.34416l0 0c0 -19.847458 16.371582 -35.93701 36.566925 -35.93701l0 0c9.698151 0 18.999115 3.786209 25.85672 10.525711c6.8576355 6.739502 10.710205 15.8802185 10.710205 25.4113l0 0c0 19.847458 -16.371552 35.93701 -36.566925 35.93701l0 0c-20.195343 0 -36.566925 -16.089554 -36.566925 -35.93701z" fill-rule="evenodd"></path><path stroke="#000000" stroke-width="1.0" stroke-linejoin="round" stroke-linecap="butt" d="m253.4544 200.34416l0 0c0 -19.847458 16.371582 -35.93701 36.566925 -35.93701l0 0c9.698151 0 18.999115 3.786209 25.85672 10.525711c6.8576355 6.739502 10.710205 15.8802185 10.710205 25.4113l0 0c0 19.847458 -16.371552 35.93701 -36.566925 35.93701l0 0c-20.195343 0 -36.566925 -16.089554 -36.566925 -35.93701z" fill-rule="evenodd"></path><path fill="#000000" fill-opacity="0.0" d="m266.55634 190.38583l42.42517 0l0 19.936996l-42.42517 0z" fill-rule="evenodd"></path><path fill="#000000" d="m278.82242 192.1437l2.328125 0q1.03125 0 1.484375 0.734375q0.453125 0.734375 0.453125 2.21875q0 1.40625 -0.5 2.171875q-0.484375 0.765625 -1.4375 0.765625l-2.328125 0l0 -5.890625zm2.28125 5.328125q0.6875 0 1.015625 -0.625q0.34375 -0.640625 0.34375 -1.75q0 -0.875 -0.140625 -1.390625q-0.140625 -0.53125 -0.4375 -0.75q-0.296875 -0.234375 -0.78125 -0.234375l-1.640625 0l0 4.75l1.640625 0zm3.0706787 -3.703125l0.484375 0l0.140625 0.734375q0.3125 -0.375 0.671875 -0.578125q0.359375 -0.203125 0.796875 -0.203125q0.21875 0 0.40625 0.03125l0 0.65625q-0.359375 -0.046875 -0.46875 -0.046875q-0.421875 0 -0.734375 0.15625q-0.3125 0.140625 -0.671875 0.484375l0 3.03125l-0.625 0l0 -4.265625zm3.3897095 -0.765625q-0.0625 0 -0.09375 -0.03125q-0.03125 -0.046875 -0.03125 -0.09375l0 -0.625q0 -0.125 0.125 -0.125l0.453125 0q0.109375 0 0.109375 0.125l0 0.625q0 0.125 -0.109375 0.125l-0.453125 0zm-0.09375 0.765625l0.625 0l0 4.265625l-0.625 0l0 -4.265625zm1.394867 0l0.640625 0l1.328125 3.671875l1.375 -3.671875l0.640625 0l-1.65625 4.265625l-0.71875 0l-1.609375 -4.265625zm6.3660583 4.3125q-0.6875 0 -1.0625 -0.203125q-0.375 -0.203125 -0.546875 -0.671875q-0.171875 -0.46875 -0.171875 -1.3125q0 -0.859375 0.171875 -1.328125q0.171875 -0.46875 0.546875 -0.65625q0.390625 -0.203125 1.078125 -0.203125q0.578125 0 0.921875 0.125q0.359375 0.125 0.53125 0.4375q0.171875 0.3125 0.171875 0.859375q0 0.53125 -0.328125 0.78125q-0.3125 0.25 -0.890625 0.25l-1.5625 0q0 0.546875 0.09375 0.84375q0.109375 0.296875 0.390625 0.4375q0.28125 0.140625 0.8125 0.140625l1.375 0l0 0.390625q-0.421875 0.046875 -0.765625 0.078125q-0.34375 0.03125 -0.765625 0.03125zm0.359375 -2.34375q0.375 0 0.53125 -0.125q0.171875 -0.140625 0.171875 -0.484375q0 -0.53125 -0.234375 -0.734375q-0.234375 -0.203125 -0.8125 -0.203125q-0.46875 0 -0.71875 0.140625q-0.25 0.125 -0.359375 0.453125q-0.09375 0.328125 -0.09375 0.953125l1.515625 0z" fill-rule="nonzero"></path><path fill="#000000" d="m281.96463 209.72183q-0.65625 -1.03125 -1.015625 -2.046875q-0.34375 -1.015625 -0.34375 -2.25q0 -1.203125 0.359375 -2.234375q0.359375 -1.03125 1.0 -2.03125l0.578125 0q-0.625 1.078125 -0.96875 2.109375q-0.34375 1.015625 -0.34375 2.15625q0 1.15625 0.328125 2.15625q0.328125 1.0 0.984375 2.140625l-0.578125 0zm3.0415955 -7.578125l0.828125 0l2.015625 5.890625l-0.65625 0l-0.59375 -1.6875l-2.375 0l-0.578125 1.6875l-0.65625 0l2.015625 -5.890625zm1.4375 3.640625l-1.015625 -3.078125l-1.046875 3.078125l2.0625 0zm3.4075623 2.265625q-0.578125 0 -0.859375 -0.3125q-0.265625 -0.3125 -0.265625 -1.078125l0 -4.734375l0.625 0l0 4.65625q0 0.53125 0.140625 0.734375q0.15625 0.1875 0.46875 0.21875l0.421875 0.046875l0 0.46875l-0.53125 0zm2.3519897 0q-0.578125 0 -0.859375 -0.3125q-0.265625 -0.3125 -0.265625 -1.078125l0 -4.734375l0.625 0l0 4.65625q0 0.53125 0.140625 0.734375q0.15625 0.1875 0.46875 0.21875l0.421875 0.046875l0 0.46875l-0.53125 0zm0.7894592 1.671875q0.640625 -1.09375 0.96875 -2.109375q0.34375 -1.015625 0.34375 -2.171875q0 -1.171875 -0.328125 -2.15625q-0.3125 -1.0 -0.984375 -2.125l0.59375 0q0.671875 1.015625 1.0 2.015625q0.34375 1.0 0.34375 2.265625q0 1.21875 -0.34375 2.234375q-0.328125 1.015625 -1.0 2.046875l-0.59375 0z" fill-rule="nonzero"></path><path fill="#b6d7a8" d="m13.383203 198.72293l0 0c0 -19.847458 16.37157 -35.93701 36.56693 -35.93701l0 0c9.698154 0 18.999096 3.786209 25.856724 10.525711c6.857628 6.7394867 10.710205 15.8802185 10.710205 25.4113l0 0c0 19.847458 -16.371574 35.93701 -36.56693 35.93701l0 0c-20.195356 0 -36.56693 -16.089554 -36.56693 -35.93701z" fill-rule="evenodd"></path><path stroke="#000000" stroke-width="1.0" stroke-linejoin="round" stroke-linecap="butt" d="m13.383203 198.72293l0 0c0 -19.847458 16.37157 -35.93701 36.56693 -35.93701l0 0c9.698154 0 18.999096 3.786209 25.856724 10.525711c6.857628 6.7394867 10.710205 15.8802185 10.710205 25.4113l0 0c0 19.847458 -16.371574 35.93701 -36.56693 35.93701l0 0c-20.195356 0 -36.56693 -16.089554 -36.56693 -35.93701z" fill-rule="evenodd"></path><path fill="#000000" fill-opacity="0.0" d="m16.310505 188.40715l67.244095 0l0 20.629929l-67.244095 0z" fill-rule="evenodd"></path><path fill="#000000" d="m30.366093 195.51149l0.828125 0l2.015625 5.890625l-0.65625 0l-0.59375 -1.6875l-2.375 0l-0.578125 1.6875l-0.65625 0l2.015625 -5.890625zm1.4375 3.640625l-1.015625 -3.078125l-1.046875 3.078125l2.0625 0zm3.5481873 2.296875q-1.28125 0 -1.28125 -1.3125l0 -3.0l0.640625 0l0 2.84375q0 0.515625 0.21875 0.71875q0.234375 0.1875 0.703125 0.1875q0.359375 0 0.671875 -0.09375q0.3125 -0.109375 0.65625 -0.3125l0 -3.34375l0.640625 0l0 4.265625l-0.5 0l-0.140625 -0.46875q-0.8125 0.515625 -1.609375 0.515625zm4.8601837 -0.046875q-0.640625 0 -0.9375 -0.3125q-0.296875 -0.328125 -0.28125 -1.078125l0.03125 -2.359375l-0.6875 0l0 -0.40625l0.6875 -0.109375l0.109375 -1.203125l0.484375 0l0 1.203125l1.234375 0l0 0.515625l-1.234375 0l0 2.359375q0 0.5 0.1875 0.6875q0.1875 0.171875 0.46875 0.1875l0.515625 0.046875l0 0.46875l-0.578125 0zm3.2015839 0.046875q-0.65625 0 -1.0625 -0.171875q-0.390625 -0.1875 -0.59375 -0.65625q-0.1875 -0.484375 -0.1875 -1.359375q0 -0.890625 0.203125 -1.359375q0.203125 -0.46875 0.59375 -0.640625q0.390625 -0.1875 1.046875 -0.1875q0.65625 0 1.0625 0.1875q0.40625 0.171875 0.59375 0.65625q0.203125 0.46875 0.203125 1.34375q0 0.875 -0.203125 1.359375q-0.1875 0.46875 -0.59375 0.65625q-0.390625 0.171875 -1.0625 0.171875zm0 -0.515625q0.453125 0 0.703125 -0.109375q0.25 -0.125 0.375 -0.484375q0.140625 -0.359375 0.140625 -1.078125q0 -0.71875 -0.140625 -1.078125q-0.125 -0.359375 -0.375 -0.46875q-0.25 -0.125 -0.703125 -0.125q-0.4375 0 -0.6875 0.125q-0.25 0.109375 -0.390625 0.46875q-0.125 0.359375 -0.125 1.078125q0 0.71875 0.125 1.078125q0.140625 0.359375 0.390625 0.484375q0.25 0.109375 0.6875 0.109375zm2.9284363 -3.796875l0.5 0l0.125 0.46875q0.8125 -0.546875 1.609375 -0.546875q0.375 0 0.65625 0.171875q0.296875 0.171875 0.453125 0.453125q0.328125 -0.234375 0.8125 -0.421875q0.484375 -0.203125 0.90625 -0.203125q0.65625 0 1.0 0.40625q0.34375 0.40625 0.34375 1.0625l0 2.875l-0.640625 0l0 -2.828125q0 -0.421875 -0.25 -0.671875q-0.234375 -0.265625 -0.65625 -0.265625q-0.34375 0 -0.71875 0.125q-0.359375 0.125 -0.703125 0.34375q0.078125 0.25 0.078125 0.46875l0 2.828125l-0.640625 0l0 -2.828125q0 -0.421875 -0.234375 -0.671875q-0.234375 -0.265625 -0.65625 -0.265625q-0.375 0 -0.6875 0.109375q-0.296875 0.09375 -0.671875 0.296875l0 3.359375l-0.625 0l0 -4.265625zm8.412033 4.3125q-0.484375 0 -0.78125 -0.28125q-0.296875 -0.296875 -0.296875 -0.796875l0 -0.296875q0 -0.515625 0.34375 -0.8125q0.34375 -0.3125 1.0 -0.3125l1.4375 0l0 -0.53125q0 -0.4375 -0.234375 -0.640625q-0.234375 -0.203125 -0.859375 -0.203125l-1.328125 0l0 -0.375q0.75 -0.140625 1.546875 -0.140625q0.78125 0 1.140625 0.328125q0.375 0.3125 0.375 1.0l0 3.015625l-0.5 0l-0.109375 -0.484375q-0.0625 0.046875 -0.359375 0.1875q-0.28125 0.125 -0.65625 0.234375q-0.375 0.109375 -0.71875 0.109375zm0.28125 -0.46875q0.21875 0 0.53125 -0.078125q0.3125 -0.078125 0.5625 -0.171875q0.25 -0.09375 0.328125 -0.125l0 -1.34375l-1.296875 0.0625q-0.4375 0.015625 -0.65625 0.21875q-0.203125 0.203125 -0.203125 0.546875l0 0.1875q0 0.359375 0.21875 0.53125q0.21875 0.171875 0.515625 0.171875zm4.6724396 0.421875q-0.640625 0 -0.9375 -0.3125q-0.296875 -0.328125 -0.28125 -1.078125l0.03125 -2.359375l-0.6875 0l0 -0.40625l0.6875 -0.109375l0.109375 -1.203125l0.484375 0l0 1.203125l1.234375 0l0 0.515625l-1.234375 0l0 2.359375q0 0.5 0.1875 0.6875q0.1875 0.171875 0.46875 0.1875l0.515625 0.046875l0 0.46875l-0.578125 0zm1.6078339 -5.03125q-0.0625 0 -0.09375 -0.03125q-0.03125 -0.046875 -0.03125 -0.09375l0 -0.625q0 -0.125 0.125 -0.125l0.453125 0q0.109375 0 0.109375 0.125l0 0.625q0 0.125 -0.109375 0.125l-0.453125 0zm-0.09375 0.765625l0.625 0l0 4.265625l-0.625 0l0 -4.265625zm3.5354729 4.3125q-0.65625 0 -1.0624962 -0.171875q-0.390625 -0.1875 -0.59375 -0.65625q-0.1875 -0.484375 -0.1875 -1.359375q0 -0.890625 0.203125 -1.359375q0.203125 -0.46875 0.59375 -0.640625q0.3906212 -0.1875 1.0468712 -0.1875q0.65625 0 1.0625 0.1875q0.40625 0.171875 0.59375 0.65625q0.203125 0.46875 0.203125 1.34375q0 0.875 -0.203125 1.359375q-0.1875 0.46875 -0.59375 0.65625q-0.390625 0.171875 -1.0625 0.171875zm0 -0.515625q0.453125 0 0.703125 -0.109375q0.25 -0.125 0.375 -0.484375q0.140625 -0.359375 0.140625 -1.078125q0 -0.71875 -0.140625 -1.078125q-0.125 -0.359375 -0.375 -0.46875q-0.25 -0.125 -0.703125 -0.125q-0.4375 0 -0.6875 0.125q-0.24999619 0.109375 -0.3906212 0.46875q-0.125 0.359375 -0.125 1.078125q0 0.71875 0.125 1.078125q0.140625 0.359375 0.3906212 0.484375q0.25 0.109375 0.6875 0.109375zm2.9284363 -3.796875l0.5 0l0.125 0.46875q0.34375 -0.234375 0.75 -0.390625q0.40625 -0.15625 0.8125 -0.15625q0.671875 0 1.0 0.40625q0.328125 0.40625 0.328125 1.03125l0 2.90625l-0.640625 0l0 -2.828125q0 -0.421875 -0.234375 -0.671875q-0.234375 -0.265625 -0.65625 -0.265625q-0.375 0 -0.6875 0.109375q-0.296875 0.09375 -0.671875 0.296875l0 3.359375l-0.625 0l0 -4.265625z" fill-rule="nonzero"></path><path fill="#b6d7a8" d="m353.1547 200.34416l0 0c0 -19.847458 15.053101 -35.93701 33.62204 -35.93701l0 0c8.917114 0 17.469025 3.786209 23.774384 10.525711c6.305359 6.739502 9.847656 15.8802185 9.847656 25.4113l0 0c0 19.847458 -15.053101 35.93701 -33.62204 35.93701l0 0c-18.56894 0 -33.62204 -16.089554 -33.62204 -35.93701z" fill-rule="evenodd"></path><path stroke="#000000" stroke-width="1.0" stroke-linejoin="round" stroke-linecap="butt" d="m353.1547 200.34416l0 0c0 -19.847458 15.053101 -35.93701 33.62204 -35.93701l0 0c8.917114 0 17.469025 3.786209 23.774384 10.525711c6.305359 6.739502 9.847656 15.8802185 9.847656 25.4113l0 0c0 19.847458 -15.053101 35.93701 -33.62204 35.93701l0 0c-18.56894 0 -33.62204 -16.089554 -33.62204 -35.93701z" fill-rule="evenodd"></path><path fill="#000000" fill-opacity="0.0" d="m360.63654 190.37534l52.314972 0l0 19.936996l-52.314972 0z" fill-rule="evenodd"></path><path fill="#000000" d="m375.56107 198.07071q-0.765625 0 -1.203125 -0.234375q-0.4375 -0.234375 -0.65625 -0.875q-0.21875 -0.65625 -0.21875 -1.890625q0 -1.1875 0.21875 -1.828125q0.234375 -0.640625 0.6875 -0.890625q0.453125 -0.265625 1.21875 -0.265625q0.359375 0 0.828125 0.0625q0.484375 0.0625 0.859375 0.15625l0 0.46875q-0.28125 -0.03125 -0.71875 -0.078125q-0.4375 -0.046875 -0.875 -0.046875q-0.59375 0 -0.9375 0.203125q-0.328125 0.203125 -0.484375 0.71875q-0.15625 0.515625 -0.15625 1.5q0 1.03125 0.140625 1.546875q0.15625 0.515625 0.484375 0.703125q0.328125 0.1875 0.9375 0.1875q1.015625 0 1.609375 -0.109375l0 0.484375q-0.375 0.078125 -0.84375 0.140625q-0.453125 0.046875 -0.890625 0.046875zm2.7104492 -6.15625l0.625 0l0 2.3125q0.328125 -0.234375 0.734375 -0.390625q0.421875 -0.15625 0.84375 -0.15625q0.640625 0 0.96875 0.40625q0.34375 0.390625 0.34375 1.03125l0 2.90625l-0.640625 0l0 -2.84375q0 -0.40625 -0.234375 -0.65625q-0.234375 -0.265625 -0.65625 -0.265625q-0.375 0 -0.6875 0.109375q-0.296875 0.09375 -0.671875 0.296875l0 3.359375l-0.625 0l0 -6.109375zm5.5320435 6.15625q-0.484375 0 -0.78125 -0.28125q-0.296875 -0.296875 -0.296875 -0.796875l0 -0.296875q0 -0.515625 0.34375 -0.8125q0.34375 -0.3125 1.0 -0.3125l1.4375 0l0 -0.53125q0 -0.4375 -0.234375 -0.640625q-0.234375 -0.203125 -0.859375 -0.203125l-1.328125 0l0 -0.375q0.75 -0.140625 1.546875 -0.140625q0.78125 0 1.140625 0.328125q0.375 0.3125 0.375 1.0l0 3.015625l-0.5 0l-0.109375 -0.484375q-0.0625 0.046875 -0.359375 0.1875q-0.28125 0.125 -0.65625 0.234375q-0.375 0.109375 -0.71875 0.109375zm0.28125 -0.46875q0.21875 0 0.53125 -0.078125q0.3125 -0.078125 0.5625 -0.171875q0.25 -0.09375 0.328125 -0.125l0 -1.34375l-1.296875 0.0625q-0.4375 0.015625 -0.65625 0.21875q-0.203125 0.203125 -0.203125 0.546875l0 0.1875q0 0.359375 0.21875 0.53125q0.21875 0.171875 0.515625 0.171875zm4.71933 0.46875q-0.359375 0 -0.90625 -0.03125q-0.546875 -0.03125 -0.734375 -0.078125l0 -0.390625l1.75 0q0.4375 0 0.640625 -0.109375q0.21875 -0.125 0.21875 -0.515625l0 -0.1875q0 -0.59375 -0.78125 -0.59375l-0.59375 0q-0.609375 0 -0.953125 -0.234375q-0.328125 -0.25 -0.328125 -0.828125l0 -0.21875q0 -0.609375 0.359375 -0.890625q0.359375 -0.28125 1.140625 -0.28125q0.34375 0 0.8125 0.046875q0.46875 0.03125 0.734375 0.078125l0 0.375l-1.640625 0q-0.4375 0 -0.65625 0.15625q-0.203125 0.140625 -0.203125 0.515625l0 0.171875q0 0.34375 0.203125 0.46875q0.21875 0.109375 0.640625 0.109375l0.609375 0q0.578125 0 0.890625 0.28125q0.328125 0.265625 0.328125 0.765625l0 0.296875q0 0.609375 -0.390625 0.859375q-0.390625 0.234375 -1.140625 0.234375zm3.999939 0q-0.359375 0 -0.90625 -0.03125q-0.546875 -0.03125 -0.734375 -0.078125l0 -0.390625l1.75 0q0.4375 0 0.640625 -0.109375q0.21875 -0.125 0.21875 -0.515625l0 -0.1875q0 -0.59375 -0.78125 -0.59375l-0.59375 0q-0.609375 0 -0.953125 -0.234375q-0.328125 -0.25 -0.328125 -0.828125l0 -0.21875q0 -0.609375 0.359375 -0.890625q0.359375 -0.28125 1.140625 -0.28125q0.34375 0 0.8125 0.046875q0.46875 0.03125 0.734375 0.078125l0 0.375l-1.640625 0q-0.4375 0 -0.65625 0.15625q-0.203125 0.140625 -0.203125 0.515625l0 0.171875q0 0.34375 0.203125 0.46875q0.21875 0.109375 0.640625 0.109375l0.609375 0q0.578125 0 0.890625 0.28125q0.328125 0.265625 0.328125 0.765625l0 0.296875q0 0.609375 -0.390625 0.859375q-0.390625 0.234375 -1.140625 0.234375zm2.6249695 -5.078125q-0.0625 0 -0.09375 -0.03125q-0.03125 -0.046875 -0.03125 -0.09375l0 -0.625q0 -0.125 0.125 -0.125l0.453125 0q0.109375 0 0.109375 0.125l0 0.625q0 0.125 -0.109375 0.125l-0.453125 0zm-0.09375 0.765625l0.625 0l0 4.265625l-0.625 0l0 -4.265625zm3.3167114 4.3125q-0.359375 0 -0.90625 -0.03125q-0.546875 -0.03125 -0.734375 -0.078125l0 -0.390625l1.75 0q0.4375 0 0.640625 -0.109375q0.21875 -0.125 0.21875 -0.515625l0 -0.1875q0 -0.59375 -0.78125 -0.59375l-0.59375 0q-0.609375 0 -0.953125 -0.234375q-0.328125 -0.25 -0.328125 -0.828125l0 -0.21875q0 -0.609375 0.359375 -0.890625q0.359375 -0.28125 1.140625 -0.28125q0.34375 0 0.8125 0.046875q0.46875 0.03125 0.734375 0.078125l0 0.375l-1.640625 0q-0.4375 0 -0.65625 0.15625q-0.203125 0.140625 -0.203125 0.515625l0 0.171875q0 0.34375 0.203125 0.46875q0.21875 0.109375 0.640625 0.109375l0.609375 0q0.578125 0 0.890625 0.28125q0.328125 0.265625 0.328125 0.765625l0 0.296875q0 0.609375 -0.390625 0.859375q-0.390625 0.234375 -1.140625 0.234375z" fill-rule="nonzero"></path><path fill="#000000" d="m380.98975 209.71133q-0.65625 -1.03125 -1.015625 -2.046875q-0.34375 -1.015625 -0.34375 -2.25q0 -1.203125 0.359375 -2.234375q0.359375 -1.03125 1.0 -2.03125l0.578125 0q-0.625 1.078125 -0.96875 2.109375q-0.34375 1.015625 -0.34375 2.15625q0 1.15625 0.328125 2.15625q0.328125 1.0 0.984375 2.140625l-0.578125 0zm3.0415955 -7.578125l0.828125 0l2.015625 5.890625l-0.65625 0l-0.59375 -1.6875l-2.375 0l-0.578125 1.6875l-0.65625 0l2.015625 -5.890625zm1.4375 3.640625l-1.015625 -3.078125l-1.046875 3.078125l2.0625 0zm3.4075623 2.265625q-0.578125 0 -0.859375 -0.3125q-0.265625 -0.3125 -0.265625 -1.078125l0 -4.734375l0.625 0l0 4.65625q0 0.53125 0.140625 0.734375q0.15625 0.1875 0.46875 0.21875l0.421875 0.046875l0 0.46875l-0.53125 0zm2.3519592 0q-0.578125 0 -0.859375 -0.3125q-0.265625 -0.3125 -0.265625 -1.078125l0 -4.734375l0.625 0l0 4.65625q0 0.53125 0.140625 0.734375q0.15625 0.1875 0.46875 0.21875l0.421875 0.046875l0 0.46875l-0.53125 0zm0.78948975 1.671875q0.640625 -1.09375 0.96875 -2.109375q0.34375 -1.015625 0.34375 -2.171875q0 -1.171875 -0.328125 -2.15625q-0.3125 -1.0 -0.984375 -2.125l0.59375 0q0.671875 1.015625 1.0 2.015625q0.34375 1.0 0.34375 2.265625q0 1.21875 -0.34375 2.234375q-0.328125 1.015625 -1.0 2.046875l-0.59375 0z" fill-rule="nonzero"></path><path fill="#b6d7a8" d="m80.3105 261.55658l0 0c0 -19.847473 15.053108 -35.937027 33.622047 -35.937027l0 0c8.917122 0 17.469017 3.786209 23.774376 10.525711c6.305359 6.739502 9.8476715 15.8802185 9.8476715 25.411316l0 0c0 19.847443 -15.053101 35.93698 -33.622047 35.93698l0 0c-18.56894 0 -33.622047 -16.089539 -33.622047 -35.93698z" fill-rule="evenodd"></path><path stroke="#000000" stroke-width="1.0" stroke-linejoin="round" stroke-linecap="butt" d="m80.3105 261.55658l0 0c0 -19.847473 15.053108 -35.937027 33.622047 -35.937027l0 0c8.917122 0 17.469017 3.786209 23.774376 10.525711c6.305359 6.739502 9.8476715 15.8802185 9.8476715 25.411316l0 0c0 19.847443 -15.053101 35.93698 -33.622047 35.93698l0 0c-18.56894 0 -33.622047 -16.089539 -33.622047 -35.93698z" fill-rule="evenodd"></path><path fill="#000000" fill-opacity="0.0" d="m81.93419 250.15224l61.259842 0l0 23.496048l-61.259842 0z" fill-rule="evenodd"></path><path fill="#000000" d="m104.417595 253.68964l2.140625 0q1.515625 0 1.515625 1.515625q0 0.53125 -0.234375 0.875q-0.234375 0.34375 -0.59375 0.4375q0.390625 0.09375 0.703125 0.453125q0.328125 0.34375 0.328125 0.984375q0 0.890625 -0.421875 1.265625q-0.40625 0.359375 -1.21875 0.359375l-2.21875 0l0 -5.890625zm2.171875 2.609375q0.390625 0 0.625 -0.28125q0.25 -0.296875 0.25 -0.796875q0 -0.953125 -0.90625 -0.953125l-1.5 0l0 2.03125l1.53125 0zm0.03125 2.71875q0.5 0 0.765625 -0.25q0.28125 -0.265625 0.28125 -0.921875q0 -0.484375 -0.296875 -0.765625q-0.296875 -0.28125 -0.75 -0.28125l-1.5625 0l0 2.21875l1.5625 0zm3.448944 0.609375q-0.484375 0 -0.78125 -0.28125q-0.296875 -0.296875 -0.296875 -0.796875l0 -0.296875q0 -0.515625 0.34375 -0.8125q0.34375 -0.3125 1.0 -0.3125l1.4375 0l0 -0.53125q0 -0.4375 -0.234375 -0.640625q-0.234375 -0.203125 -0.859375 -0.203125l-1.328125 0l0 -0.375q0.75 -0.140625 1.546875 -0.140625q0.78125 0 1.140625 0.328125q0.375 0.3125 0.375 1.0l0 3.015625l-0.5 0l-0.109375 -0.484375q-0.0625 0.046875 -0.359375 0.1875q-0.28125 0.125 -0.65625 0.234375q-0.375 0.109375 -0.71875 0.109375zm0.28125 -0.46875q0.21875 0 0.53125 -0.078125q0.3125 -0.078125 0.5625 -0.171875q0.25 -0.09375 0.328125 -0.125l0 -1.34375l-1.296875 0.0625q-0.4375 0.015625 -0.65625 0.21875q-0.203125 0.203125 -0.203125 0.546875l0 0.1875q0 0.359375 0.21875 0.53125q0.21875 0.171875 0.515625 0.171875zm4.7193146 0.46875q-0.359375 0 -0.90625 -0.03125q-0.546875 -0.03125 -0.734375 -0.078125l0 -0.390625l1.75 0q0.4375 0 0.640625 -0.109375q0.21875 -0.125 0.21875 -0.515625l0 -0.1875q0 -0.59375 -0.78125 -0.59375l-0.59375 0q-0.609375 0 -0.953125 -0.234375q-0.328125 -0.25 -0.328125 -0.828125l0 -0.21875q0 -0.609375 0.359375 -0.890625q0.359375 -0.28125 1.140625 -0.28125q0.34375 0 0.8125 0.046875q0.46875 0.03125 0.734375 0.078125l0 0.375l-1.640625 0q-0.4375 0 -0.65625 0.15625q-0.203125 0.140625 -0.203125 0.515625l0 0.171875q0 0.34375 0.203125 0.46875q0.21875 0.109375 0.640625 0.109375l0.609375 0q0.578125 0 0.890625 0.28125q0.328125 0.265625 0.328125 0.765625l0 0.296875q0 0.609375 -0.390625 0.859375q-0.390625 0.234375 -1.140625 0.234375zm4.156204 0q-0.6875 0 -1.0625 -0.203125q-0.375 -0.203125 -0.546875 -0.671875q-0.171875 -0.46875 -0.171875 -1.3125q0 -0.859375 0.171875 -1.328125q0.171875 -0.46875 0.546875 -0.65625q0.390625 -0.203125 1.078125 -0.203125q0.578125 0 0.921875 0.125q0.359375 0.125 0.53125 0.4375q0.171875 0.3125 0.171875 0.859375q0 0.53125 -0.328125 0.78125q-0.3125 0.25 -0.890625 0.25l-1.5625 0q0 0.546875 0.09375 0.84375q0.109375 0.296875 0.390625 0.4375q0.28125 0.140625 0.8125 0.140625l1.375 0l0 0.390625q-0.421875 0.046875 -0.765625 0.078125q-0.34375 0.03125 -0.765625 0.03125zm0.359375 -2.34375q0.375 0 0.53125 -0.125q0.171875 -0.140625 0.171875 -0.484375q0 -0.53125 -0.234375 -0.734375q-0.234375 -0.203125 -0.8125 -0.203125q-0.46875 0 -0.71875 0.140625q-0.25 0.125 -0.359375 0.453125q-0.09375 0.328125 -0.09375 0.953125l1.515625 0z" fill-rule="nonzero"></path><path fill="#000000" d="m98.105576 269.62714q-0.375 0 -0.9375 -0.046875q-0.546875 -0.046875 -0.84375 -0.09375l0 -0.484375q0.625 0.0625 1.765625 0.0625q0.609375 0 0.9375 -0.1875q0.34375 -0.203125 0.34375 -0.703125l0 -0.40625q0 -0.828125 -0.890625 -0.828125l-0.625 0q-0.765625 0 -1.15625 -0.328125q-0.390625 -0.328125 -0.390625 -1.09375l0 -0.34375q0 -0.796875 0.421875 -1.15625q0.4375 -0.375 1.28125 -0.375q0.359375 0 0.859375 0.0625q0.515625 0.046875 0.84375 0.109375l0 0.484375q-1.078125 -0.078125 -1.640625 -0.078125q-0.59375 0 -0.875 0.21875q-0.28125 0.203125 -0.28125 0.765625l0 0.265625q0 0.46875 0.234375 0.671875q0.25 0.1875 0.734375 0.1875l0.671875 0q0.703125 0 1.0625 0.375q0.359375 0.375 0.359375 1.0l0 0.453125q0 0.828125 -0.5 1.15625q-0.5 0.3125 -1.375 0.3125zm4.639572 0q-0.65625 0 -1.0625 -0.171875q-0.390625 -0.1875 -0.59375 -0.65625q-0.1875 -0.484375 -0.1875 -1.359375q0 -0.890625 0.203125 -1.359375q0.203125 -0.46875 0.59375 -0.640625q0.390625 -0.1875 1.046875 -0.1875q0.65625 0 1.0625 0.1875q0.40625 0.171875 0.59375 0.65625q0.203125 0.46875 0.203125 1.34375q0 0.875 -0.203125 1.359375q-0.1875 0.46875 -0.59375 0.65625q-0.390625 0.171875 -1.0625 0.171875zm0 -0.515625q0.453125 0 0.703125 -0.109375q0.25 -0.125 0.375 -0.484375q0.140625 -0.359375 0.140625 -1.078125q0 -0.71875 -0.140625 -1.078125q-0.125 -0.359375 -0.375 -0.46875q-0.25 -0.125 -0.703125 -0.125q-0.4375 0 -0.6875 0.125q-0.25 0.109375 -0.390625 0.46875q-0.125 0.359375 -0.125 1.078125q0 0.71875 0.125 1.078125q0.140625 0.359375 0.390625 0.484375q0.25 0.109375 0.6875 0.109375zm3.1628113 -3.28125l-0.65625 0l0 -0.40625l0.65625 -0.109375l0 -0.5q0 -0.703125 0.265625 -1.046875q0.28125 -0.34375 0.953125 -0.34375q0.40625 0 0.828125 0.078125l0 0.453125l-0.71875 0q-0.40625 0 -0.5625 0.203125q-0.140625 0.1875 -0.140625 0.625l0 0.53125l1.328125 0l0 0.515625l-1.328125 0l0 3.75l-0.625 0l0 -3.75zm4.1314697 3.75q-0.640625 0 -0.9375 -0.3125q-0.296875 -0.328125 -0.28125 -1.078125l0.03125 -2.359375l-0.6875 0l0 -0.40625l0.6875 -0.109375l0.109375 -1.203125l0.484375 0l0 1.203125l1.234375 0l0 0.515625l-1.234375 0l0 2.359375q0 0.5 0.1875 0.6875q0.1875 0.171875 0.46875 0.1875l0.515625 0.046875l0 0.46875l-0.578125 0zm1.0609589 -4.265625l0.640625 0l1.046875 3.671875l1.078125 -3.671875l0.5625 0l1.078125 3.671875l1.015625 -3.671875l0.640625 0l-1.28125 4.265625l-0.703125 0l-1.046875 -3.421875l-1.046875 3.421875l-0.6875 0l-1.296875 -4.265625zm7.6571655 4.3125q-0.484375 0 -0.78125 -0.28125q-0.296875 -0.296875 -0.296875 -0.796875l0 -0.296875q0 -0.515625 0.34375 -0.8125q0.34375 -0.3125 1.0 -0.3125l1.4375 0l0 -0.53125q0 -0.4375 -0.234375 -0.640625q-0.234375 -0.203125 -0.859375 -0.203125l-1.328125 0l0 -0.375q0.75 -0.140625 1.546875 -0.140625q0.78125 0 1.140625 0.328125q0.375 0.3125 0.375 1.0l0 3.015625l-0.5 0l-0.109375 -0.484375q-0.0625 0.046875 -0.359375 0.1875q-0.28125 0.125 -0.65625 0.234375q-0.375 0.109375 -0.71875 0.109375zm0.28125 -0.46875q0.21875 0 0.53125 -0.078125q0.3125 -0.078125 0.5625 -0.171875q0.25 -0.09375 0.328125 -0.125l0 -1.34375l-1.296875 0.0625q-0.4375 0.015625 -0.65625 0.21875q-0.203125 0.203125 -0.203125 0.546875l0 0.1875q0 0.359375 0.21875 0.53125q0.21875 0.171875 0.515625 0.171875zm3.2505646 -3.84375l0.484375 0l0.140625 0.734375q0.3125 -0.375 0.671875 -0.578125q0.359375 -0.203125 0.796875 -0.203125q0.21875 0 0.40625 0.03125l0 0.65625q-0.359375 -0.046875 -0.46875 -0.046875q-0.421875 0 -0.734375 0.15625q-0.3125 0.140625 -0.671875 0.484375l0 3.03125l-0.625 0l0 -4.265625zm4.9209595 4.3125q-0.6875 0 -1.0625 -0.203125q-0.375 -0.203125 -0.546875 -0.671875q-0.171875 -0.46875 -0.171875 -1.3125q0 -0.859375 0.171875 -1.328125q0.171875 -0.46875 0.546875 -0.65625q0.390625 -0.203125 1.078125 -0.203125q0.578125 0 0.921875 0.125q0.359375 0.125 0.53125 0.4375q0.171875 0.3125 0.171875 0.859375q0 0.53125 -0.328125 0.78125q-0.3125 0.25 -0.890625 0.25l-1.5625 0q0 0.546875 0.09375 0.84375q0.109375 0.296875 0.390625 0.4375q0.28125 0.140625 0.8125 0.140625l1.375 0l0 0.390625q-0.421875 0.046875 -0.765625 0.078125q-0.34375 0.03125 -0.765625 0.03125zm0.359375 -2.34375q0.375 0 0.53125 -0.125q0.171875 -0.140625 0.171875 -0.484375q0 -0.53125 -0.234375 -0.734375q-0.234375 -0.203125 -0.8125 -0.203125q-0.46875 0 -0.71875 0.140625q-0.25 0.125 -0.359375 0.453125q-0.09375 0.328125 -0.09375 0.953125l1.515625 0z" fill-rule="nonzero"></path><path fill="#b6d7a8" d="m140.66711 200.34416l0 0c0 -19.847458 15.053101 -35.93701 33.62204 -35.93701l0 0c8.9171295 0 17.469025 3.786209 23.774384 10.525711c6.305359 6.739502 9.8476715 15.8802185 9.8476715 25.4113l0 0c0 19.847458 -15.053116 35.93701 -33.622055 35.93701l0 0c-18.56894 0 -33.62204 -16.089554 -33.62204 -35.93701z" fill-rule="evenodd"></path><path stroke="#000000" stroke-width="1.0" stroke-linejoin="round" stroke-linecap="butt" d="m140.66711 200.34416l0 0c0 -19.847458 15.053101 -35.93701 33.62204 -35.93701l0 0c8.9171295 0 17.469025 3.786209 23.774384 10.525711c6.305359 6.739502 9.8476715 15.8802185 9.8476715 25.4113l0 0c0 19.847458 -15.053116 35.93701 -33.622055 35.93701l0 0c-18.56894 0 -33.62204 -16.089554 -33.62204 -35.93701z" fill-rule="evenodd"></path><path fill="#000000" fill-opacity="0.0" d="m150.50153 193.22679l47.59056 0l0 14.236221l-47.59056 0z" fill-rule="evenodd"></path><path fill="#000000" d="m162.62785 203.07178q-0.765625 0 -1.203125 -0.234375q-0.4375 -0.234375 -0.65625 -0.875q-0.21875 -0.65625 -0.21875 -1.890625q0 -1.1875 0.21875 -1.828125q0.234375 -0.640625 0.6875 -0.890625q0.453125 -0.265625 1.21875 -0.265625q0.359375 0 0.828125 0.0625q0.484375 0.0625 0.859375 0.15625l0 0.46875q-0.28125 -0.03125 -0.71875 -0.078125q-0.4375 -0.046875 -0.875 -0.046875q-0.59375 0 -0.9375 0.203125q-0.328125 0.203125 -0.484375 0.71875q-0.15625 0.515625 -0.15625 1.5q0 1.03125 0.140625 1.546875q0.15625 0.515625 0.484375 0.703125q0.328125 0.1875 0.9375 0.1875q1.015625 0 1.609375 -0.109375l0 0.484375q-0.375 0.078125 -0.84375 0.140625q-0.453125 0.046875 -0.890625 0.046875zm4.397934 0q-0.65625 0 -1.0625 -0.171875q-0.390625 -0.1875 -0.59375 -0.65625q-0.1875 -0.484375 -0.1875 -1.359375q0 -0.890625 0.203125 -1.359375q0.203125 -0.46875 0.59375 -0.640625q0.390625 -0.1875 1.046875 -0.1875q0.65625 0 1.0625 0.1875q0.40625 0.171875 0.59375 0.65625q0.203125 0.46875 0.203125 1.34375q0 0.875 -0.203125 1.359375q-0.1875 0.46875 -0.59375 0.65625q-0.390625 0.171875 -1.0625 0.171875zm0 -0.515625q0.453125 0 0.703125 -0.109375q0.25 -0.125 0.375 -0.484375q0.140625 -0.359375 0.140625 -1.078125q0 -0.71875 -0.140625 -1.078125q-0.125 -0.359375 -0.375 -0.46875q-0.25 -0.125 -0.703125 -0.125q-0.4375 0 -0.6875 0.125q-0.25 0.109375 -0.390625 0.46875q-0.125 0.359375 -0.125 1.078125q0 0.71875 0.125 1.078125q0.140625 0.359375 0.390625 0.484375q0.25 0.109375 0.6875 0.109375zm2.9284363 -3.796875l0.5 0l0.125 0.46875q0.8125 -0.546875 1.609375 -0.546875q0.375 0 0.65625 0.171875q0.296875 0.171875 0.453125 0.453125q0.328125 -0.234375 0.8125 -0.421875q0.484375 -0.203125 0.90625 -0.203125q0.65625 0 1.0 0.40625q0.34375 0.40625 0.34375 1.0625l0 2.875l-0.640625 0l0 -2.828125q0 -0.421875 -0.25 -0.671875q-0.234375 -0.265625 -0.65625 -0.265625q-0.34375 0 -0.71875 0.125q-0.359375 0.125 -0.703125 0.34375q0.078125 0.25 0.078125 0.46875l0 2.828125l-0.640625 0l0 -2.828125q0 -0.421875 -0.234375 -0.671875q-0.234375 -0.265625 -0.65625 -0.265625q-0.375 0 -0.6875 0.109375q-0.296875 0.09375 -0.671875 0.296875l0 3.359375l-0.625 0l0 -4.265625zm7.583908 0l0.5 0l0.125 0.46875q0.8125 -0.546875 1.609375 -0.546875q0.375 0 0.65625 0.171875q0.296875 0.171875 0.453125 0.453125q0.328125 -0.234375 0.8125 -0.421875q0.484375 -0.203125 0.90625 -0.203125q0.65625 0 1.0 0.40625q0.34375 0.40625 0.34375 1.0625l0 2.875l-0.640625 0l0 -2.828125q0 -0.421875 -0.25 -0.671875q-0.234375 -0.265625 -0.65625 -0.265625q-0.34375 0 -0.71875 0.125q-0.359375 0.125 -0.703125 0.34375q0.078125 0.25 0.078125 0.46875l0 2.828125l-0.640625 0l0 -2.828125q0 -0.421875 -0.234375 -0.671875q-0.234375 -0.265625 -0.65625 -0.265625q-0.375 0 -0.6875 0.109375q-0.296875 0.09375 -0.671875 0.296875l0 3.359375l-0.625 0l0 -4.265625zm9.052658 4.3125q-0.359375 0 -0.90625 -0.03125q-0.546875 -0.03125 -0.734375 -0.078125l0 -0.390625l1.75 0q0.4375 0 0.640625 -0.109375q0.21875 -0.125 0.21875 -0.515625l0 -0.1875q0 -0.59375 -0.78125 -0.59375l-0.59375 0q-0.609375 0 -0.953125 -0.234375q-0.328125 -0.25 -0.328125 -0.828125l0 -0.21875q0 -0.609375 0.359375 -0.890625q0.359375 -0.28125 1.140625 -0.28125q0.34375 0 0.8125 0.046875q0.46875 0.03125 0.734375 0.078125l0 0.375l-1.640625 0q-0.4375 0 -0.65625 0.15625q-0.203125 0.140625 -0.203125 0.515625l0 0.171875q0 0.34375 0.203125 0.46875q0.21875 0.109375 0.640625 0.109375l0.609375 0q0.578125 0 0.890625 0.28125q0.328125 0.265625 0.328125 0.765625l0 0.296875q0 0.609375 -0.390625 0.859375q-0.390625 0.234375 -1.140625 0.234375z" fill-rule="nonzero"></path><path fill="#000000" fill-opacity="0.0" d="m111.209564 106.04l-61.259846 56.755913" fill-rule="evenodd"></path><path stroke="#ffffff" stroke-width="1.0" stroke-linejoin="round" stroke-linecap="butt" d="m111.209564 106.04l-61.259846 56.755913" fill-rule="evenodd"></path><path fill="#000000" fill-opacity="0.0" d="m111.209564 106.04l63.08661 58.362206" fill-rule="evenodd"></path><path stroke="#ffffff" stroke-width="1.0" stroke-linejoin="round" stroke-linecap="butt" d="m111.209564 106.04l63.08661 58.362206" fill-rule="evenodd"></path><path fill="#000000" fill-opacity="0.0" d="m176.85008 165.12662l52.314972 -59.086617" fill-rule="evenodd"></path><path stroke="#ffffff" stroke-width="1.0" stroke-linejoin="round" stroke-linecap="butt" d="m176.85008 165.12662l52.314972 -59.086617" fill-rule="evenodd"></path></g></svg>

