<?xml version="1.0" standalone="yes"?>

<svg version="1.1" viewBox="0.0 0.0 577.2309711286089 358.15485564304464" fill="none" stroke="none" stroke-linecap="square" stroke-miterlimit="10" xmlns="http://www.w3.org/2000/svg" xmlns:xlink="http://www.w3.org/1999/xlink"><clipPath id="p.0"><path d="m0 0l577.23096 0l0 358.15485l-577.23096 0l0 -358.15485z" clip-rule="nonzero"></path></clipPath><g clip-path="url(#p.0)"><path fill="#000000" fill-opacity="0.0" d="m0 0l577.23096 0l0 358.15485l-577.23096 0z" fill-rule="evenodd"></path><path fill="#000000" fill-opacity="0.0" d="m114.24224 131.27112l0 129.85828" fill-rule="evenodd"></path><path stroke="#ffffff" stroke-width="1.0" stroke-linejoin="round" stroke-linecap="butt" d="m114.24224 131.27112l0 129.85828" fill-rule="evenodd"></path><path fill="#000000" fill-opacity="0.0" d="m114.24224 131.27112l54.897636 41.196854" fill-rule="evenodd"></path><path stroke="#ffffff" stroke-width="1.0" stroke-linejoin="round" stroke-linecap="butt" d="m114.24224 131.27112l54.897636 41.196854" fill-rule="evenodd"></path><path fill="#b6d7a8" d="m214.49573 7.2074933l0 0c0 -3.9805887 3.2268982 -7.2074933 7.207489 -7.2074933l121.89996 0c1.91156 0 3.744812 0.7593587 5.096466 2.1110258c1.3516846 1.3516672 2.111023 3.1849213 2.111023 5.0964675l0 28.82911c0 3.980587 -3.2268982 7.207493 -7.207489 7.207493l-121.89996 0c-3.9805908 0 -7.207489 -3.2269058 -7.207489 -7.207493z" fill-rule="evenodd"></path><path stroke="#000000" stroke-width="1.0" stroke-linejoin="round" stroke-linecap="butt" d="m214.49573 7.2074933l0 0c0 -3.9805887 3.2268982 -7.2074933 7.207489 -7.2074933l121.89996 0c1.91156 0 3.744812 0.7593587 5.096466 2.1110258c1.3516846 1.3516672 2.111023 3.1849213 2.111023 5.0964675l0 28.82911c0 3.980587 -3.2268982 7.207493 -7.207489 7.207493l-121.89996 0c-3.9805908 0 -7.207489 -3.2269058 -7.207489 -7.207493z" fill-rule="evenodd"></path><path fill="#000000" fill-opacity="0.0" d="m237.21625 8.82567l90.86615 0l0 25.574804l-90.86615 0z" fill-rule="evenodd"></path><path fill="#000000" d="m253.1231 18.402447l2.34375 0q1.5468903 0 1.5468903 1.875q0 1.109375 -0.46875 1.53125q-0.453125 0.40625 -1.1093903 0.40625q-0.21875 0 -0.765625 -0.015625q-0.546875 -0.03125 -0.90625 -0.0625l0 2.15625l-0.640625 0l0 -5.890625zm2.234375 3.25q1.0156403 0 1.0156403 -1.359375q0 -1.3125 -0.95314026 -1.3125l-1.65625 0l0 2.671875l1.59375 0zm2.59758 -1.625l0.484375 0l0.140625 0.734375q0.3125 -0.375 0.671875 -0.578125q0.359375 -0.203125 0.796875 -0.203125q0.21875 0 0.40625 0.03125l0 0.65625q-0.359375 -0.046875 -0.46875 -0.046875q-0.421875 0 -0.734375 0.15625q-0.3125 0.140625 -0.671875 0.484375l0 3.03125l-0.625 0l0 -4.265625zm4.9834595 4.3125q-0.65625 0 -1.0625 -0.171875q-0.390625 -0.1875 -0.59375 -0.65625q-0.1875 -0.484375 -0.1875 -1.359375q0 -0.890625 0.203125 -1.359375q0.203125 -0.46875 0.59375 -0.640625q0.390625 -0.1875 1.046875 -0.1875q0.65625 0 1.0625 0.1875q0.40625 0.171875 0.59375 0.65625q0.203125 0.46875 0.203125 1.34375q0 0.875 -0.203125 1.359375q-0.1875 0.46875 -0.59375 0.65625q-0.390625 0.171875 -1.0625 0.171875zm0 -0.515625q0.453125 0 0.703125 -0.109375q0.25 -0.125 0.375 -0.484375q0.140625 -0.359375 0.140625 -1.078125q0 -0.71875 -0.140625 -1.078125q-0.125 -0.359375 -0.375 -0.46875q-0.25 -0.125 -0.703125 -0.125q-0.4375 0 -0.6875 0.125q-0.25 0.109375 -0.390625 0.46875q-0.125 0.359375 -0.125 1.078125q0 0.71875 0.125 1.078125q0.140625 0.359375 0.390625 0.484375q0.25 0.109375 0.6875 0.109375zm3.0221863 -4.5625q-0.0625 0 -0.109375 -0.03125q-0.03125 -0.046875 -0.03125 -0.09375l0 -0.625q0 -0.125 0.140625 -0.125l0.453125 0q0.046875 0 0.078125 0.03125q0.03125 0.03125 0.03125 0.09375l0 0.625q0 0.046875 -0.03125 0.09375q-0.03125 0.03125 -0.078125 0.03125l-0.453125 0zm-0.09375 0.765625l0.625 0l0 4.125q0 0.5625 -0.046875 1.09375q-0.03125 0.546875 -0.109375 0.9375l-0.46875 0l0 -6.15625zm3.4729614 4.3125q-0.6875 0 -1.0625 -0.203125q-0.375 -0.203125 -0.546875 -0.671875q-0.171875 -0.46875 -0.171875 -1.3125q0 -0.859375 0.171875 -1.328125q0.171875 -0.46875 0.546875 -0.65625q0.390625 -0.203125 1.078125 -0.203125q0.578125 0 0.921875 0.125q0.359375 0.125 0.53125 0.4375q0.171875 0.3125 0.171875 0.859375q0 0.53125 -0.328125 0.78125q-0.3125 0.25 -0.890625 0.25l-1.5625 0q0 0.546875 0.09375 0.84375q0.109375 0.296875 0.390625 0.4375q0.28125 0.140625 0.8125 0.140625l1.375 0l0 0.390625q-0.421875 0.046875 -0.765625 0.078125q-0.34375 0.03125 -0.765625 0.03125zm0.359375 -2.34375q0.375 0 0.53125 -0.125q0.171875 -0.140625 0.171875 -0.484375q0 -0.53125 -0.234375 -0.734375q-0.234375 -0.203125 -0.8125 -0.203125q-0.46875 0 -0.71875 0.140625q-0.25 0.125 -0.359375 0.453125q-0.09375 0.328125 -0.09375 0.953125l1.515625 0zm3.890442 2.34375q-0.8125 0 -1.265625 -0.46875q-0.4375 -0.484375 -0.4375 -1.703125q0 -0.859375 0.203125 -1.328125q0.203125 -0.484375 0.578125 -0.671875q0.375 -0.1875 0.9375 -0.1875q0.765625 0 1.421875 0.109375l0 0.375l-1.25 0q-0.4375 0 -0.703125 0.140625q-0.265625 0.140625 -0.40625 0.515625q-0.140625 0.375 -0.140625 1.0625q0 0.65625 0.140625 1.015625q0.15625 0.359375 0.421875 0.5q0.265625 0.140625 0.703125 0.140625l1.296875 0l0 0.375q-0.75 0.125 -1.5 0.125zm3.7949524 -0.046875q-0.640625 0 -0.9375 -0.3125q-0.296875 -0.328125 -0.28125 -1.078125l0.03125 -2.359375l-0.6875 0l0 -0.40625l0.6875 -0.109375l0.109375 -1.203125l0.484375 0l0 1.203125l1.234375 0l0 0.515625l-1.234375 0l0 2.359375q0 0.5 0.1875 0.6875q0.1875 0.171875 0.46875 0.1875l0.515625 0.046875l0 0.46875l-0.578125 0zm8.674072 0l-0.5625 -4.890625l-1.421875 4.890625l-0.578125 0l-1.4375 -4.84375l-0.53125 4.84375l-0.625 0l0.671875 -5.890625l0.65625 0l1.5625 5.09375l1.53125 -5.09375l0.65625 0l0.6875 5.890625l-0.609375 0zm2.5080261 0.046875q-0.484375 0 -0.78125 -0.28125q-0.296875 -0.296875 -0.296875 -0.796875l0 -0.296875q0 -0.515625 0.34375 -0.8125q0.34375 -0.3125 1.0 -0.3125l1.4375 0l0 -0.53125q0 -0.4375 -0.234375 -0.640625q-0.234375 -0.203125 -0.859375 -0.203125l-1.328125 0l0 -0.375q0.75 -0.140625 1.546875 -0.140625q0.78125 0 1.140625 0.328125q0.375 0.3125 0.375 1.0l0 3.015625l-0.5 0l-0.109375 -0.484375q-0.0625 0.046875 -0.359375 0.1875q-0.28125 0.125 -0.65625 0.234375q-0.375 0.109375 -0.71875 0.109375zm0.28125 -0.46875q0.21875 0 0.53125 -0.078125q0.3125 -0.078125 0.5625 -0.171875q0.25 -0.09375 0.328125 -0.125l0 -1.34375l-1.296875 0.0625q-0.4375 0.015625 -0.65625 0.21875q-0.203125 0.203125 -0.203125 0.546875l0 0.1875q0 0.359375 0.21875 0.53125q0.21875 0.171875 0.515625 0.171875zm3.2505798 -3.84375l0.5 0l0.125 0.46875q0.34375 -0.234375 0.75 -0.390625q0.40625 -0.15625 0.8125 -0.15625q0.671875 0 1.0 0.40625q0.328125 0.40625 0.328125 1.03125l0 2.90625l-0.640625 0l0 -2.828125q0 -0.421875 -0.234375 -0.671875q-0.234375 -0.265625 -0.65625 -0.265625q-0.375 0 -0.6875 0.109375q-0.296875 0.09375 -0.671875 0.296875l0 3.359375l-0.625 0l0 -4.265625zm5.5320435 4.3125q-0.484375 0 -0.78125 -0.28125q-0.296875 -0.296875 -0.296875 -0.796875l0 -0.296875q0 -0.515625 0.34375 -0.8125q0.34375 -0.3125 1.0 -0.3125l1.4375 0l0 -0.53125q0 -0.4375 -0.234375 -0.640625q-0.234375 -0.203125 -0.859375 -0.203125l-1.328125 0l0 -0.375q0.75 -0.140625 1.546875 -0.140625q0.78125 0 1.140625 0.328125q0.375 0.3125 0.375 1.0l0 3.015625l-0.5 0l-0.109375 -0.484375q-0.0625 0.046875 -0.359375 0.1875q-0.28125 0.125 -0.65625 0.234375q-0.375 0.109375 -0.71875 0.109375zm0.28125 -0.46875q0.21875 0 0.53125 -0.078125q0.3125 -0.078125 0.5625 -0.171875q0.25 -0.09375 0.328125 -0.125l0 -1.34375l-1.296875 0.0625q-0.4375 0.015625 -0.65625 0.21875q-0.203125 0.203125 -0.203125 0.546875l0 0.1875q0 0.359375 0.21875 0.53125q0.21875 0.171875 0.515625 0.171875zm7.06308 -3.5l-0.953125 0.078125q0.15625 0.109375 0.265625 0.21875q0.109375 0.109375 0.1875 0.328125q0.09375 0.21875 0.09375 0.546875q0 0.5625 -0.375 0.9375q-0.359375 0.359375 -1.140625 0.359375l-0.6875 0q-0.359375 0 -0.546875 0.109375q-0.171875 0.109375 -0.171875 0.359375q0 0.171875 0.125 0.265625q0.140625 0.078125 0.3125 0.078125l1.421875 0q0.75 0 1.109375 0.296875q0.359375 0.28125 0.359375 0.875l0 0.1875q0 0.578125 -0.40625 0.90625q-0.40625 0.328125 -1.171875 0.328125l-1.1875 0q-0.640625 0 -1.03125 -0.265625q-0.375 -0.265625 -0.375 -0.78125l0 -0.1875q0 -0.359375 0.1875 -0.609375q0.1875 -0.25 0.5 -0.375q-0.1875 -0.109375 -0.296875 -0.265625q-0.109375 -0.171875 -0.109375 -0.375q0 -0.609375 0.71875 -0.75q-0.40625 -0.171875 -0.578125 -0.5q-0.171875 -0.34375 -0.171875 -0.75q0 -1.375 1.640625 -1.375l2.28125 0l0 0.359375zm-1.984375 1.984375q0.546875 0 0.765625 -0.234375q0.234375 -0.25 0.234375 -0.640625q0 -0.96875 -0.9375 -0.96875l-0.453125 0q-0.484375 0 -0.734375 0.21875q-0.234375 0.203125 -0.234375 0.6875q0 0.9375 0.875 0.9375l0.484375 0zm-0.671875 1.796875q-0.375 0 -0.65625 0.1875q-0.265625 0.1875 -0.265625 0.5625l0 0.171875q0 0.71875 0.953125 0.71875l1.0 0q0.484375 0 0.75 -0.1875q0.28125 -0.1875 0.28125 -0.578125l0 -0.15625q0 -0.34375 -0.21875 -0.53125q-0.21875 -0.1875 -0.734375 -0.1875l-1.109375 0zm5.0766907 0.1875q-0.6875 0 -1.0625 -0.203125q-0.375 -0.203125 -0.546875 -0.671875q-0.171875 -0.46875 -0.171875 -1.3125q0 -0.859375 0.171875 -1.328125q0.171875 -0.46875 0.546875 -0.65625q0.390625 -0.203125 1.078125 -0.203125q0.578125 0 0.921875 0.125q0.359375 0.125 0.53125 0.4375q0.171875 0.3125 0.171875 0.859375q0 0.53125 -0.328125 0.78125q-0.3125 0.25 -0.890625 0.25l-1.5625 0q0 0.546875 0.09375 0.84375q0.109375 0.296875 0.390625 0.4375q0.28125 0.140625 0.8125 0.140625l1.375 0l0 0.390625q-0.421875 0.046875 -0.765625 0.078125q-0.34375 0.03125 -0.765625 0.03125zm0.359375 -2.34375q0.375 0 0.53125 -0.125q0.171875 -0.140625 0.171875 -0.484375q0 -0.53125 -0.234375 -0.734375q-0.234375 -0.203125 -0.8125 -0.203125q-0.46875 0 -0.71875 0.140625q-0.25 0.125 -0.359375 0.453125q-0.09375 0.328125 -0.09375 0.953125l1.515625 0zm2.343567 -1.96875l0.484375 0l0.140625 0.734375q0.3125 -0.375 0.671875 -0.578125q0.359375 -0.203125 0.796875 -0.203125q0.21875 0 0.40625 0.03125l0 0.65625q-0.359375 -0.046875 -0.46875 -0.046875q-0.421875 0 -0.734375 0.15625q-0.3125 0.140625 -0.671875 0.484375l0 3.03125l-0.625 0l0 -4.265625z" fill-rule="nonzero"></path><path fill="#b6d7a8" d="m46.084763 95.23452l0 0c0 -3.9805908 3.2269058 -7.2074966 7.207493 -7.2074966l121.89998 0c1.9115448 0 3.7447968 0.75936127 5.096466 2.1110306c1.3516693 1.3516693 2.111023 3.1849213 2.111023 5.096466l0 28.82911c0 3.9805908 -3.2268982 7.207489 -7.207489 7.207489l-121.89998 0c-3.980587 0 -7.207493 -3.2268982 -7.207493 -7.207489z" fill-rule="evenodd"></path><path stroke="#000000" stroke-width="1.0" stroke-linejoin="round" stroke-linecap="butt" d="m46.084763 95.23452l0 0c0 -3.9805908 3.2269058 -7.2074966 7.207493 -7.2074966l121.89998 0c1.9115448 0 3.7447968 0.75936127 5.096466 2.1110306c1.3516693 1.3516693 2.111023 3.1849213 2.111023 5.096466l0 28.82911c0 3.9805908 -3.2268982 7.207489 -7.207489 7.207489l-121.89998 0c-3.980587 0 -7.207493 -3.2268982 -7.207493 -7.207489z" fill-rule="evenodd"></path><path fill="#000000" fill-opacity="0.0" d="m61.088696 95.08546l106.3307 0l0 29.102364l-106.3307 0z" fill-rule="evenodd"></path><path fill="#000000" d="m95.82356 112.36352q-0.375 0 -0.9375 -0.046875q-0.546875 -0.046875 -0.84375 -0.09375l0 -0.484375q0.625 0.0625 1.765625 0.0625q0.609375 0 0.9375 -0.1875q0.34375 -0.203125 0.34375 -0.703125l0 -0.40625q0 -0.828125 -0.890625 -0.828125l-0.625 0q-0.765625 0 -1.15625 -0.328125q-0.390625 -0.328125 -0.390625 -1.09375l0 -0.34375q0 -0.796875 0.421875 -1.15625q0.4375 -0.375 1.28125 -0.375q0.359375 0 0.859375 0.0625q0.515625 0.046875 0.84375 0.109375l0 0.484375q-1.078125 -0.078125 -1.640625 -0.078125q-0.59375 0 -0.875 0.21875q-0.28125 0.203125 -0.28125 0.765625l0 0.265625q0 0.46875 0.234375 0.671875q0.25 0.1875 0.734375 0.1875l0.671875 0q0.703125 0 1.0625 0.375q0.359375 0.375 0.359375 1.0l0 0.453125q0 0.828125 -0.5 1.15625q-0.5 0.3125 -1.375 0.3125zm4.639572 0q-0.65625 0 -1.0625 -0.171875q-0.390625 -0.1875 -0.59375 -0.65625q-0.1875 -0.484375 -0.1875 -1.359375q0 -0.890625 0.203125 -1.359375q0.203125 -0.46875 0.59375 -0.640625q0.390625 -0.1875 1.046875 -0.1875q0.65625 0 1.0625 0.1875q0.40625 0.171875 0.59375 0.65625q0.203125 0.46875 0.203125 1.34375q0 0.875 -0.203125 1.359375q-0.1875 0.46875 -0.59375 0.65625q-0.390625 0.171875 -1.0625 0.171875zm0 -0.515625q0.453125 0 0.703125 -0.109375q0.25 -0.125 0.375 -0.484375q0.140625 -0.359375 0.140625 -1.078125q0 -0.71875 -0.140625 -1.078125q-0.125 -0.359375 -0.375 -0.46875q-0.25 -0.125 -0.703125 -0.125q-0.4375 0 -0.6875 0.125q-0.25 0.109375 -0.390625 0.46875q-0.125 0.359375 -0.125 1.078125q0 0.71875 0.125 1.078125q0.140625 0.359375 0.390625 0.484375q0.25 0.109375 0.6875 0.109375zm4.4753113 0.515625q-0.8125 0 -1.265625 -0.46875q-0.4375 -0.484375 -0.4375 -1.703125q0 -0.859375 0.203125 -1.328125q0.203125 -0.484375 0.578125 -0.671875q0.375 -0.1875 0.9375 -0.1875q0.765625 0 1.421875 0.109375l0 0.375l-1.25 0q-0.4375 0 -0.703125 0.140625q-0.265625 0.140625 -0.40625 0.515625q-0.140625 0.375 -0.140625 1.0625q0 0.65625 0.140625 1.015625q0.15625 0.359375 0.421875 0.5q0.265625 0.140625 0.703125 0.140625l1.296875 0l0 0.375q-0.75 0.125 -1.5 0.125zm2.4668274 -5.078125q-0.0625 0 -0.09375 -0.03125q-0.03125 -0.046875 -0.03125 -0.09375l0 -0.625q0 -0.125 0.125 -0.125l0.453125 0q0.109375 0 0.109375 0.125l0 0.625q0 0.125 -0.109375 0.125l-0.453125 0zm-0.09375 0.765625l0.625 0l0 4.265625l-0.625 0l0 -4.265625zm2.6761017 4.3125q-0.484375 0 -0.78125 -0.28125q-0.296875 -0.296875 -0.296875 -0.796875l0 -0.296875q0 -0.515625 0.34375 -0.8125q0.34375 -0.3125 1.0 -0.3125l1.4375 0l0 -0.53125q0 -0.4375 -0.234375 -0.640625q-0.234375 -0.203125 -0.859375 -0.203125l-1.328125 0l0 -0.375q0.75 -0.140625 1.546875 -0.140625q0.78125 0 1.140625 0.328125q0.375 0.3125 0.375 1.0l0 3.015625l-0.5 0l-0.109375 -0.484375q-0.0625 0.046875 -0.359375 0.1875q-0.28125 0.125 -0.65625 0.234375q-0.375 0.109375 -0.71875 0.109375zm0.28125 -0.46875q0.21875 0 0.53125 -0.078125q0.3125 -0.078125 0.5625 -0.171875q0.25 -0.09375 0.328125 -0.125l0 -1.34375l-1.296875 0.0625q-0.4375 0.015625 -0.65625 0.21875q-0.203125 0.203125 -0.203125 0.546875l0 0.1875q0 0.359375 0.21875 0.53125q0.21875 0.171875 0.515625 0.171875zm4.3755646 0.4375q-0.578125 0 -0.859375 -0.3125q-0.265625 -0.3125 -0.265625 -1.078125l0 -4.734375l0.625 0l0 4.65625q0 0.53125 0.140625 0.734375q0.15625 0.1875 0.46875 0.21875l0.421875 0.046875l0 0.46875l-0.53125 0zm4.5744476 -0.015625q-0.5625 0 -0.875 -0.265625q-0.3125 -0.265625 -0.3125 -0.921875l0 -4.703125l0.640625 0l0 4.625q0 0.390625 0.1875 0.546875q0.1875 0.140625 0.5 0.140625l2.109375 0l0 0.578125l-2.25 0zm4.693451 0.046875q-0.6875 0 -1.0625 -0.203125q-0.375 -0.203125 -0.546875 -0.671875q-0.171875 -0.46875 -0.171875 -1.3125q0 -0.859375 0.171875 -1.328125q0.171875 -0.46875 0.546875 -0.65625q0.390625 -0.203125 1.078125 -0.203125q0.578125 0 0.921875 0.125q0.35936737 0.125 0.5312424 0.4375q0.171875 0.3125 0.171875 0.859375q0 0.53125 -0.328125 0.78125q-0.31249237 0.25 -0.8906174 0.25l-1.5625 0q0 0.546875 0.09375 0.84375q0.109375 0.296875 0.390625 0.4375q0.28125 0.140625 0.8125 0.140625l1.3749924 0l0 0.390625q-0.42186737 0.046875 -0.7656174 0.078125q-0.34375 0.03125 -0.765625 0.03125zm0.359375 -2.34375q0.375 0 0.53125 -0.125q0.171875 -0.140625 0.171875 -0.484375q0 -0.53125 -0.234375 -0.734375q-0.234375 -0.203125 -0.8125 -0.203125q-0.46875 0 -0.71875 0.140625q-0.25 0.125 -0.359375 0.453125q-0.09375 0.328125 -0.09375 0.953125l1.515625 0zm3.1716843 2.34375q-0.484375 0 -0.78125 -0.28125q-0.296875 -0.296875 -0.296875 -0.796875l0 -0.296875q0 -0.515625 0.34375 -0.8125q0.34375 -0.3125 1.0 -0.3125l1.4375076 0l0 -0.53125q0 -0.4375 -0.234375 -0.640625q-0.234375 -0.203125 -0.859375 -0.203125l-1.3281326 0l0 -0.375q0.75 -0.140625 1.5468826 -0.140625q0.78125 0 1.140625 0.328125q0.375 0.3125 0.375 1.0l0 3.015625l-0.5 0l-0.109375 -0.484375q-0.0625 0.046875 -0.359375 0.1875q-0.28125 0.125 -0.65625 0.234375q-0.37500763 0.109375 -0.7187576 0.109375zm0.28125 -0.46875q0.21875 0 0.5312576 -0.078125q0.3125 -0.078125 0.5625 -0.171875q0.25 -0.09375 0.328125 -0.125l0 -1.34375l-1.2968826 0.0625q-0.4375 0.015625 -0.65625 0.21875q-0.203125 0.203125 -0.203125 0.546875l0 0.1875q0 0.359375 0.21875 0.53125q0.21875 0.171875 0.515625 0.171875zm4.625572 0.46875q-0.78125 0 -1.15625 -0.515625q-0.375 -0.515625 -0.375 -1.640625q0 -0.796875 0.15625 -1.28125q0.171875 -0.484375 0.515625 -0.703125q0.359375 -0.234375 0.953125 -0.234375q0.609375 0 1.3125 0.25l0 -2.03125l0.625 0l0 6.109375l-0.515625 0l-0.109375 -0.4375q-0.203125 0.171875 -0.625 0.328125q-0.421875 0.15625 -0.78125 0.15625zm0.1875 -0.515625q0.34375 0 0.625 -0.09375q0.28125 -0.109375 0.59375 -0.265625l0 -2.796875q-0.375 -0.109375 -0.625 -0.15625q-0.234375 -0.046875 -0.53125 -0.046875q-0.421875 0 -0.671875 0.15625q-0.25 0.15625 -0.359375 0.53125q-0.109375 0.359375 -0.109375 1.015625q0 0.890625 0.234375 1.28125q0.25 0.375 0.84375 0.375z" fill-rule="nonzero"></path><path fill="#b6d7a8" d="m374.83237 95.23452l0 0c0 -3.9805908 3.2268982 -7.2074966 7.207489 -7.2074966l121.89996 0c1.91156 0 3.744812 0.75936127 5.096466 2.1110306c1.3516846 1.3516693 2.111023 3.1849213 2.111023 5.096466l0 28.82911c0 3.9805908 -3.2268982 7.207489 -7.207489 7.207489l-121.89996 0c-3.9805908 0 -7.207489 -3.2268982 -7.207489 -7.207489z" fill-rule="evenodd"></path><path stroke="#000000" stroke-width="1.0" stroke-linejoin="round" stroke-linecap="butt" d="m374.83237 95.23452l0 0c0 -3.9805908 3.2268982 -7.2074966 7.207489 -7.2074966l121.89996 0c1.91156 0 3.744812 0.75936127 5.096466 2.1110306c1.3516846 1.3516693 2.111023 3.1849213 2.111023 5.096466l0 28.82911c0 3.9805908 -3.2268982 7.207489 -7.207489 7.207489l-121.89996 0c-3.9805908 0 -7.207489 -3.2268982 -7.207489 -7.207489z" fill-rule="evenodd"></path><path fill="#000000" fill-opacity="0.0" d="m383.83676 97.29451l118.33072 0l0 24.69291l-118.33072 0z" fill-rule="evenodd"></path><path fill="#000000" d="m419.5598 107.617836q0 -0.625 0.328125 -0.90625q0.34375 -0.28125 0.84375 -0.28125l0.4375 0.015625q0.203125 0 0.84375 0.015625q0.640625 0.015625 1.171875 0.046875l0 0.515625l-2.3125 0q-0.3125 0 -0.5 0.1875q-0.171875 0.171875 -0.171875 0.5l0 1.53125l2.640625 0.03125l0 0.5l-2.640625 0.03125l0 2.515625l-0.640625 0l0 -4.703125zm4.629669 -0.328125q-0.0625 0 -0.09375 -0.03125q-0.03125 -0.046875 -0.03125 -0.09375l0 -0.625q0 -0.125 0.125 -0.125l0.453125 0q0.109375 0 0.109375 0.125l0 0.625q0 0.125 -0.109375 0.125l-0.453125 0zm-0.09375 0.765625l0.625 0l0 4.265625l-0.625 0l0 -4.265625zm1.847992 0l0.5 0l0.125 0.46875q0.34375 -0.234375 0.75 -0.390625q0.40625 -0.15625 0.8125 -0.15625q0.671875 0 1.0 0.40625q0.328125 0.40625 0.328125 1.03125l0 2.90625l-0.640625 0l0 -2.828125q0 -0.421875 -0.234375 -0.671875q-0.234375 -0.265625 -0.65625 -0.265625q-0.375 0 -0.6875 0.109375q-0.296875 0.09375 -0.671875 0.296875l0 3.359375l-0.625 0l0 -4.265625zm5.5320435 4.3125q-0.484375 0 -0.78125 -0.28125q-0.296875 -0.296875 -0.296875 -0.796875l0 -0.296875q0 -0.515625 0.34375 -0.8125q0.34375 -0.3125 1.0 -0.3125l1.4375 0l0 -0.53125q0 -0.4375 -0.234375 -0.640625q-0.234375 -0.203125 -0.859375 -0.203125l-1.328125 0l0 -0.375q0.75 -0.140625 1.546875 -0.140625q0.78125 0 1.140625 0.328125q0.375 0.3125 0.375 1.0l0 3.015625l-0.5 0l-0.109375 -0.484375q-0.0625 0.046875 -0.359375 0.1875q-0.28125 0.125 -0.65625 0.234375q-0.375 0.109375 -0.71875 0.109375zm0.28125 -0.46875q0.21875 0 0.53125 -0.078125q0.3125 -0.078125 0.5625 -0.171875q0.25 -0.09375 0.328125 -0.125l0 -1.34375l-1.296875 0.0625q-0.4375 0.015625 -0.65625 0.21875q-0.203125 0.203125 -0.203125 0.546875l0 0.1875q0 0.359375 0.21875 0.53125q0.21875 0.171875 0.515625 0.171875zm3.2505798 -3.84375l0.5 0l0.125 0.46875q0.34375 -0.234375 0.75 -0.390625q0.40625 -0.15625 0.8125 -0.15625q0.671875 0 1.0 0.40625q0.328125 0.40625 0.328125 1.03125l0 2.90625l-0.640625 0l0 -2.828125q0 -0.421875 -0.234375 -0.671875q-0.234375 -0.265625 -0.65625 -0.265625q-0.375 0 -0.6875 0.109375q-0.296875 0.09375 -0.671875 0.296875l0 3.359375l-0.625 0l0 -4.265625zm6.2507935 4.3125q-0.8125 0 -1.265625 -0.46875q-0.4375 -0.484375 -0.4375 -1.703125q0 -0.859375 0.203125 -1.328125q0.203125 -0.484375 0.578125 -0.671875q0.375 -0.1875 0.9375 -0.1875q0.765625 0 1.421875 0.109375l0 0.375l-1.25 0q-0.4375 0 -0.703125 0.140625q-0.265625 0.140625 -0.40625 0.515625q-0.140625 0.375 -0.140625 1.0625q0 0.65625 0.140625 1.015625q0.15625 0.359375 0.421875 0.5q0.265625 0.140625 0.703125 0.140625l1.296875 0l0 0.375q-0.75 0.125 -1.5 0.125zm3.9980774 0q-0.6875 0 -1.0625 -0.203125q-0.375 -0.203125 -0.546875 -0.671875q-0.171875 -0.46875 -0.171875 -1.3125q0 -0.859375 0.171875 -1.328125q0.171875 -0.46875 0.546875 -0.65625q0.390625 -0.203125 1.078125 -0.203125q0.578125 0 0.921875 0.125q0.359375 0.125 0.53125 0.4375q0.171875 0.3125 0.171875 0.859375q0 0.53125 -0.328125 0.78125q-0.3125 0.25 -0.890625 0.25l-1.5625 0q0 0.546875 0.09375 0.84375q0.109375 0.296875 0.390625 0.4375q0.28125 0.140625 0.8125 0.140625l1.375 0l0 0.390625q-0.421875 0.046875 -0.765625 0.078125q-0.34375 0.03125 -0.765625 0.03125zm0.359375 -2.34375q0.375 0 0.53125 -0.125q0.171875 -0.140625 0.171875 -0.484375q0 -0.53125 -0.234375 -0.734375q-0.234375 -0.203125 -0.8125 -0.203125q-0.46875 0 -0.71875 0.140625q-0.25 0.125 -0.359375 0.453125q-0.09375 0.328125 -0.09375 0.953125l1.515625 0zm5.6910706 2.296875q-0.5625 0 -0.875 -0.265625q-0.3125 -0.265625 -0.3125 -0.921875l0 -4.703125l0.640625 0l0 4.625q0 0.390625 0.1875 0.546875q0.1875 0.140625 0.5 0.140625l2.109375 0l0 0.578125l-2.25 0zm4.693451 0.046875q-0.6875 0 -1.0625 -0.203125q-0.375 -0.203125 -0.546875 -0.671875q-0.171875 -0.46875 -0.171875 -1.3125q0 -0.859375 0.171875 -1.328125q0.171875 -0.46875 0.546875 -0.65625q0.390625 -0.203125 1.078125 -0.203125q0.578125 0 0.921875 0.125q0.359375 0.125 0.53125 0.4375q0.171875 0.3125 0.171875 0.859375q0 0.53125 -0.328125 0.78125q-0.3125 0.25 -0.890625 0.25l-1.5625 0q0 0.546875 0.09375 0.84375q0.109375 0.296875 0.390625 0.4375q0.28125 0.140625 0.8125 0.140625l1.375 0l0 0.390625q-0.421875 0.046875 -0.765625 0.078125q-0.34375 0.03125 -0.765625 0.03125zm0.359375 -2.34375q0.375 0 0.53125 -0.125q0.171875 -0.140625 0.171875 -0.484375q0 -0.53125 -0.234375 -0.734375q-0.234375 -0.203125 -0.8125 -0.203125q-0.46875 0 -0.71875 0.140625q-0.25 0.125 -0.359375 0.453125q-0.09375 0.328125 -0.09375 0.953125l1.515625 0zm3.171692 2.34375q-0.484375 0 -0.78125 -0.28125q-0.296875 -0.296875 -0.296875 -0.796875l0 -0.296875q0 -0.515625 0.34375 -0.8125q0.34375 -0.3125 1.0 -0.3125l1.4375 0l0 -0.53125q0 -0.4375 -0.234375 -0.640625q-0.234375 -0.203125 -0.859375 -0.203125l-1.328125 0l0 -0.375q0.75 -0.140625 1.546875 -0.140625q0.78125 0 1.140625 0.328125q0.375 0.3125 0.375 1.0l0 3.015625l-0.5 0l-0.109375 -0.484375q-0.0625 0.046875 -0.359375 0.1875q-0.28125 0.125 -0.65625 0.234375q-0.375 0.109375 -0.71875 0.109375zm0.28125 -0.46875q0.21875 0 0.53125 -0.078125q0.3125 -0.078125 0.5625 -0.171875q0.25 -0.09375 0.328125 -0.125l0 -1.34375l-1.296875 0.0625q-0.4375 0.015625 -0.65625 0.21875q-0.203125 0.203125 -0.203125 0.546875l0 0.1875q0 0.359375 0.21875 0.53125q0.21875 0.171875 0.515625 0.171875zm4.6255493 0.46875q-0.78125 0 -1.15625 -0.515625q-0.375 -0.515625 -0.375 -1.640625q0 -0.796875 0.15625 -1.28125q0.171875 -0.484375 0.515625 -0.703125q0.359375 -0.234375 0.953125 -0.234375q0.609375 0 1.3125 0.25l0 -2.03125l0.625 0l0 6.109375l-0.515625 0l-0.109375 -0.4375q-0.203125 0.171875 -0.625 0.328125q-0.421875 0.15625 -0.78125 0.15625zm0.1875 -0.515625q0.34375 0 0.625 -0.09375q0.28125 -0.109375 0.59375 -0.265625l0 -2.796875q-0.375 -0.109375 -0.625 -0.15625q-0.234375 -0.046875 -0.53125 -0.046875q-0.421875 0 -0.671875 0.15625q-0.25 0.15625 -0.359375 0.53125q-0.109375 0.359375 -0.109375 1.015625q0 0.890625 0.234375 1.28125q0.25 0.375 0.84375 0.375z" fill-rule="nonzero"></path><path fill="#000000" fill-opacity="0.0" d="m114.24224 88.02702l168.40945 -44.7874" fill-rule="evenodd"></path><path stroke="#ffffff" stroke-width="1.0" stroke-linejoin="round" stroke-linecap="butt" d="m114.24224 88.02702l168.40945 -44.7874" fill-rule="evenodd"></path><path fill="#000000" fill-opacity="0.0" d="m282.6532 43.244095l160.34647 44.7874" fill-rule="evenodd"></path><path stroke="#ffffff" stroke-width="1.0" stroke-linejoin="round" stroke-linecap="butt" d="m282.6532 43.244095l160.34647 44.7874" fill-rule="evenodd"></path><path fill="#b6d7a8" d="m434.41882 7.2074933l0 0c0 -3.9805887 3.2268982 -7.2074933 7.207489 -7.2074933l121.899994 0c1.911499 0 3.744812 0.7593587 5.0964355 2.1110258c1.3516846 1.3516672 2.111023 3.1849213 2.111023 5.0964675l0 28.82911c0 3.980587 -3.2268677 7.207493 -7.2074585 7.207493l-121.899994 0c-3.9805908 0 -7.207489 -3.2269058 -7.207489 -7.207493z" fill-rule="evenodd"></path><path stroke="#000000" stroke-width="1.0" stroke-linejoin="round" stroke-linecap="butt" d="m434.41882 7.2074933l0 0c0 -3.9805887 3.2268982 -7.2074933 7.207489 -7.2074933l121.899994 0c1.911499 0 3.744812 0.7593587 5.0964355 2.1110258c1.3516846 1.3516672 2.111023 3.1849213 2.111023 5.0964675l0 28.82911c0 3.980587 -3.2268677 7.207493 -7.2074585 7.207493l-121.899994 0c-3.9805908 0 -7.207489 -3.2269058 -7.207489 -7.207493z" fill-rule="evenodd"></path><path fill="#000000" fill-opacity="0.0" d="m441.2769 9.267479l122.61417 0l0 24.692913l-122.61417 0z" fill-rule="evenodd"></path><path fill="#000000" d="m479.29367 18.40331l2.328125 0q1.03125 0 1.484375 0.734375q0.453125 0.734375 0.453125 2.21875q0 1.40625 -0.5 2.171875q-0.484375 0.765625 -1.4375 0.765625l-2.328125 0l0 -5.890625zm2.28125 5.328125q0.6875 0 1.015625 -0.625q0.34375 -0.640625 0.34375 -1.75q0 -0.875 -0.140625 -1.390625q-0.140625 -0.53125 -0.4375 -0.75q-0.296875 -0.234375 -0.78125 -0.234375l-1.640625 0l0 4.75l1.640625 0zm4.6956787 0.609375q-0.6875 0 -1.0625 -0.203125q-0.375 -0.203125 -0.546875 -0.671875q-0.171875 -0.46875 -0.171875 -1.3125q0 -0.859375 0.171875 -1.328125q0.171875 -0.46875 0.546875 -0.65625q0.390625 -0.203125 1.078125 -0.203125q0.578125 0 0.921875 0.125q0.359375 0.125 0.53125 0.4375q0.171875 0.3125 0.171875 0.859375q0 0.53125 -0.328125 0.78125q-0.3125 0.25 -0.890625 0.25l-1.5625 0q0 0.546875 0.09375 0.84375q0.109375 0.296875 0.390625 0.4375q0.28125 0.140625 0.8125 0.140625l1.375 0l0 0.390625q-0.421875 0.046875 -0.765625 0.078125q-0.34375 0.03125 -0.765625 0.03125zm0.359375 -2.34375q0.375 0 0.53125 -0.125q0.171875 -0.140625 0.171875 -0.484375q0 -0.53125 -0.234375 -0.734375q-0.234375 -0.203125 -0.8125 -0.203125q-0.46875 0 -0.71875 0.140625q-0.25 0.125 -0.359375 0.453125q-0.09375 0.328125 -0.09375 0.953125l1.515625 0zm3.812317 2.34375q-0.359375 0 -0.90625 -0.03125q-0.546875 -0.03125 -0.734375 -0.078125l0 -0.390625l1.75 0q0.4375 0 0.640625 -0.109375q0.21875 -0.125 0.21875 -0.515625l0 -0.1875q0 -0.59375 -0.78125 -0.59375l-0.59375 0q-0.609375 0 -0.953125 -0.234375q-0.328125 -0.25 -0.328125 -0.828125l0 -0.21875q0 -0.609375 0.359375 -0.890625q0.359375 -0.28125 1.140625 -0.28125q0.34375 0 0.8125 0.046875q0.46875 0.03125 0.734375 0.078125l0 0.375l-1.640625 0q-0.4375 0 -0.65625 0.15625q-0.203125 0.140625 -0.203125 0.515625l0 0.171875q0 0.34375 0.203125 0.46875q0.21875 0.109375 0.640625 0.109375l0.609375 0q0.578125 0 0.890625 0.28125q0.328125 0.265625 0.328125 0.765625l0 0.296875q0 0.609375 -0.390625 0.859375q-0.390625 0.234375 -1.140625 0.234375zm2.624939 -5.078125q-0.0625 0 -0.09375 -0.03125q-0.03125 -0.046875 -0.03125 -0.09375l0 -0.625q0 -0.125 0.125 -0.125l0.453125 0q0.109375 0 0.109375 0.125l0 0.625q0 0.125 -0.109375 0.125l-0.453125 0zm-0.09375 0.765625l0.625 0l0 4.265625l-0.625 0l0 -4.265625zm5.660492 0.34375l-0.953125 0.078125q0.15625 0.109375 0.265625 0.21875q0.109375 0.109375 0.1875 0.328125q0.09375 0.21875 0.09375 0.546875q0 0.5625 -0.375 0.9375q-0.359375 0.359375 -1.140625 0.359375l-0.6875 0q-0.359375 0 -0.546875 0.109375q-0.171875 0.109375 -0.171875 0.359375q0 0.171875 0.125 0.265625q0.140625 0.078125 0.3125 0.078125l1.421875 0q0.75 0 1.109375 0.296875q0.359375 0.28125 0.359375 0.875l0 0.1875q0 0.578125 -0.40625 0.90625q-0.40625 0.328125 -1.171875 0.328125l-1.1875 0q-0.640625 0 -1.03125 -0.265625q-0.375 -0.265625 -0.375 -0.78125l0 -0.1875q0 -0.359375 0.1875 -0.609375q0.1875 -0.25 0.5 -0.375q-0.1875 -0.109375 -0.296875 -0.265625q-0.109375 -0.171875 -0.109375 -0.375q0 -0.609375 0.71875 -0.75q-0.40625 -0.171875 -0.578125 -0.5q-0.171875 -0.34375 -0.171875 -0.75q0 -1.375 1.640625 -1.375l2.28125 0l0 0.359375zm-1.984375 1.984375q0.546875 0 0.765625 -0.234375q0.234375 -0.25 0.234375 -0.640625q0 -0.96875 -0.9375 -0.96875l-0.453125 0q-0.484375 0 -0.734375 0.21875q-0.234375 0.203125 -0.234375 0.6875q0 0.9375 0.875 0.9375l0.484375 0zm-0.671875 1.796875q-0.375 0 -0.65625 0.1875q-0.265625 0.1875 -0.265625 0.5625l0 0.171875q0 0.71875 0.953125 0.71875l1.0 0q0.484375 0 0.75 -0.1875q0.28125 -0.1875 0.28125 -0.578125l0 -0.15625q0 -0.34375 -0.21875 -0.53125q-0.21875 -0.1875 -0.734375 -0.1875l-1.109375 0zm3.4516907 -4.125l0.5 0l0.125 0.46875q0.34375 -0.234375 0.75 -0.390625q0.40625 -0.15625 0.8125 -0.15625q0.671875 0 1.0 0.40625q0.328125 0.40625 0.328125 1.03125l0 2.90625l-0.640625 0l0 -2.828125q0 -0.421875 -0.234375 -0.671875q-0.234375 -0.265625 -0.65625 -0.265625q-0.375 0 -0.6875 0.109375q-0.296875 0.09375 -0.671875 0.296875l0 3.359375l-0.625 0l0 -4.265625zm8.207642 -1.046875l-1.828125 0l0 -0.578125l4.28125 0l0 0.578125l-1.828125 0l0 5.3125l-0.625 0l0 -5.3125zm4.8091736 5.359375q-0.6875 0 -1.0625 -0.203125q-0.375 -0.203125 -0.546875 -0.671875q-0.171875 -0.46875 -0.171875 -1.3125q0 -0.859375 0.171875 -1.328125q0.171875 -0.46875 0.546875 -0.65625q0.390625 -0.203125 1.078125 -0.203125q0.578125 0 0.921875 0.125q0.359375 0.125 0.53125 0.4375q0.171875 0.3125 0.171875 0.859375q0 0.53125 -0.328125 0.78125q-0.3125 0.25 -0.890625 0.25l-1.5625 0q0 0.546875 0.09375 0.84375q0.109375 0.296875 0.390625 0.4375q0.28125 0.140625 0.8125 0.140625l1.375 0l0 0.390625q-0.421875 0.046875 -0.765625 0.078125q-0.34375 0.03125 -0.765625 0.03125zm0.359375 -2.34375q0.375 0 0.53125 -0.125q0.171875 -0.140625 0.171875 -0.484375q0 -0.53125 -0.234375 -0.734375q-0.234375 -0.203125 -0.8125 -0.203125q-0.46875 0 -0.71875 0.140625q-0.25 0.125 -0.359375 0.453125q-0.09375 0.328125 -0.09375 0.953125l1.515625 0zm3.171692 2.34375q-0.484375 0 -0.78125 -0.28125q-0.296875 -0.296875 -0.296875 -0.796875l0 -0.296875q0 -0.515625 0.34375 -0.8125q0.34375 -0.3125 1.0 -0.3125l1.4375 0l0 -0.53125q0 -0.4375 -0.234375 -0.640625q-0.234375 -0.203125 -0.859375 -0.203125l-1.328125 0l0 -0.375q0.75 -0.140625 1.546875 -0.140625q0.78125 0 1.140625 0.328125q0.375 0.3125 0.375 1.0l0 3.015625l-0.5 0l-0.109375 -0.484375q-0.0625 0.046875 -0.359375 0.1875q-0.28125 0.125 -0.65625 0.234375q-0.375 0.109375 -0.71875 0.109375zm0.28125 -0.46875q0.21875 0 0.53125 -0.078125q0.3125 -0.078125 0.5625 -0.171875q0.25 -0.09375 0.328125 -0.125l0 -1.34375l-1.296875 0.0625q-0.4375 0.015625 -0.65625 0.21875q-0.203125 0.203125 -0.203125 0.546875l0 0.1875q0 0.359375 0.21875 0.53125q0.21875 0.171875 0.515625 0.171875zm3.2505493 -3.84375l0.5 0l0.125 0.46875q0.8125 -0.546875 1.609375 -0.546875q0.375 0 0.65625 0.171875q0.296875 0.171875 0.453125 0.453125q0.328125 -0.234375 0.8125 -0.421875q0.484375 -0.203125 0.90625 -0.203125q0.65625 0 1.0 0.40625q0.34375 0.40625 0.34375 1.0625l0 2.875l-0.640625 0l0 -2.828125q0 -0.421875 -0.25 -0.671875q-0.234375 -0.265625 -0.65625 -0.265625q-0.34375 0 -0.71875 0.125q-0.359375 0.125 -0.703125 0.34375q0.078125 0.25 0.078125 0.46875l0 2.828125l-0.640625 0l0 -2.828125q0 -0.421875 -0.234375 -0.671875q-0.234375 -0.265625 -0.65625 -0.265625q-0.375 0 -0.6875 0.109375q-0.296875 0.09375 -0.671875 0.296875l0 3.359375l-0.625 0l0 -4.265625z" fill-rule="nonzero"></path><path fill="#000000" fill-opacity="0.0" d="m434.41882 21.622047l-83.62204 0" fill-rule="evenodd"></path><path stroke="#ffffff" stroke-width="1.0" stroke-linejoin="round" stroke-linecap="butt" d="m434.41882 21.622047l-83.62204 0" fill-rule="evenodd"></path><path fill="#b6d7a8" d="m68.8053 305.71127l0 0c0 -24.613617 20.341072 -44.566925 45.433067 -44.566925l0 0c12.049599 0 23.605675 4.6954346 32.12603 13.053375c8.520355 8.35791 13.307037 19.693665 13.307037 31.51355l0 0c0 24.613647 -20.34108 44.566956 -45.433067 44.566956l0 0c-25.091995 0 -45.433067 -19.953308 -45.433067 -44.566956z" fill-rule="evenodd"></path><path stroke="#000000" stroke-width="1.0" stroke-linejoin="round" stroke-linecap="butt" d="m68.8053 305.71127l0 0c0 -24.613617 20.341072 -44.566925 45.433067 -44.566925l0 0c12.049599 0 23.605675 4.6954346 32.12603 13.053375c8.520355 8.35791 13.307037 19.693665 13.307037 31.51355l0 0c0 24.613647 -20.34108 44.566956 -45.433067 44.566956l0 0c-25.091995 0 -45.433067 -19.953308 -45.433067 -44.566956z" fill-rule="evenodd"></path><path fill="#000000" fill-opacity="0.0" d="m75.30563 291.14532l77.85828 0l0 29.102356l-77.85828 0z" fill-rule="evenodd"></path><path fill="#000000" d="m104.10018 303.42337q-0.375 0 -0.9375 -0.046875q-0.546875 -0.046875 -0.84375 -0.09375l0 -0.484375q0.625 0.0625 1.765625 0.0625q0.609375 0 0.9375 -0.1875q0.34375 -0.203125 0.34375 -0.703125l0 -0.40625q0 -0.828125 -0.890625 -0.828125l-0.625 0q-0.765625 0 -1.15625 -0.328125q-0.390625 -0.328125 -0.390625 -1.09375l0 -0.34375q0 -0.796875 0.421875 -1.15625q0.4375 -0.375 1.28125 -0.375q0.359375 0 0.859375 0.0625q0.515625 0.046875 0.84375 0.109375l0 0.484375q-1.078125 -0.078125 -1.640625 -0.078125q-0.59375 0 -0.875 0.21875q-0.28125 0.203125 -0.28125 0.765625l0 0.265625q0 0.46875 0.234375 0.671875q0.25 0.1875 0.734375 0.1875l0.671875 0q0.703125 0 1.0625 0.375q0.359375 0.375 0.359375 1.0l0 0.453125q0 0.828125 -0.5 1.15625q-0.5 0.3125 -1.375 0.3125zm4.498947 0q-0.8125 0 -1.265625 -0.46875q-0.4375 -0.484375 -0.4375 -1.703125q0 -0.859375 0.203125 -1.328125q0.203125 -0.484375 0.578125 -0.671875q0.375 -0.1875 0.9375 -0.1875q0.765625 0 1.421875 0.109375l0 0.375l-1.25 0q-0.4375 0 -0.703125 0.140625q-0.265625 0.140625 -0.40625 0.515625q-0.140625 0.375 -0.140625 1.0625q0 0.65625 0.140625 1.015625q0.15625 0.359375 0.421875 0.5q0.265625 0.140625 0.703125 0.140625l1.296875 0l0 0.375q-0.75 0.125 -1.5 0.125zm2.3730774 -6.15625l0.625 0l0 2.3125q0.328125 -0.234375 0.734375 -0.390625q0.421875 -0.15625 0.84375 -0.15625q0.640625 0 0.96875 0.40625q0.34375 0.390625 0.34375 1.03125l0 2.90625l-0.640625 0l0 -2.84375q0 -0.40625 -0.234375 -0.65625q-0.234375 -0.265625 -0.65625 -0.265625q-0.375 0 -0.6875 0.109375q-0.296875 0.09375 -0.671875 0.296875l0 3.359375l-0.625 0l0 -6.109375zm6.3914337 6.15625q-0.65625 0 -1.0625 -0.171875q-0.390625 -0.1875 -0.59375 -0.65625q-0.1875 -0.484375 -0.1875 -1.359375q0 -0.890625 0.203125 -1.359375q0.203125 -0.46875 0.59375 -0.640625q0.390625 -0.1875 1.046875 -0.1875q0.65625 0 1.0625 0.1875q0.40625 0.171875 0.59375 0.65625q0.203125 0.46875 0.203125 1.34375q0 0.875 -0.203125 1.359375q-0.1875 0.46875 -0.59375 0.65625q-0.390625 0.171875 -1.0625 0.171875zm0 -0.515625q0.453125 0 0.703125 -0.109375q0.25 -0.125 0.375 -0.484375q0.140625 -0.359375 0.140625 -1.078125q0 -0.71875 -0.140625 -1.078125q-0.125 -0.359375 -0.375 -0.46875q-0.25 -0.125 -0.703125 -0.125q-0.4375 0 -0.6875 0.125q-0.25 0.109375 -0.390625 0.46875q-0.125 0.359375 -0.125 1.078125q0 0.71875 0.125 1.078125q0.140625 0.359375 0.390625 0.484375q0.25 0.109375 0.6875 0.109375zm4.6159363 0.515625q-0.65625 0 -1.0625 -0.171875q-0.390625 -0.1875 -0.59375 -0.65625q-0.1875 -0.484375 -0.1875 -1.359375q0 -0.890625 0.203125 -1.359375q0.203125 -0.46875 0.59375 -0.640625q0.390625 -0.1875 1.046875 -0.1875q0.65625 0 1.0625 0.1875q0.40625 0.171875 0.59375 0.65625q0.203125 0.46875 0.203125 1.34375q0 0.875 -0.203125 1.359375q-0.1875 0.46875 -0.59375 0.65625q-0.390625 0.171875 -1.0625 0.171875zm0 -0.515625q0.453125 0 0.703125 -0.109375q0.25 -0.125 0.375 -0.484375q0.140625 -0.359375 0.140625 -1.078125q0 -0.71875 -0.140625 -1.078125q-0.125 -0.359375 -0.375 -0.46875q-0.25 -0.125 -0.703125 -0.125q-0.4375 0 -0.6875 0.125q-0.25 0.109375 -0.390625 0.46875q-0.125 0.359375 -0.125 1.078125q0 0.71875 0.125 1.078125q0.140625 0.359375 0.390625 0.484375q0.25 0.109375 0.6875 0.109375zm4.0534363 0.484375q-0.578125 0 -0.859375 -0.3125q-0.265625 -0.3125 -0.265625 -1.078125l0 -4.734375l0.625 0l0 4.65625q0 0.53125 0.140625 0.734375q0.15625 0.1875 0.46875 0.21875l0.421875 0.046875l0 0.46875l-0.53125 0z" fill-rule="nonzero"></path><path fill="#000000" d="m93.58466 307.48587l0.65625 0l1.265625 5.015625l1.453125 -5.015625l0.640625 0l1.453125 5.015625l1.265625 -5.015625l0.65625 0l-1.515625 5.890625l-0.6875 0l-1.484375 -5.0l-1.5 5.0l-0.6875 0l-1.515625 -5.890625zm9.959152 5.9375q-0.65625 0 -1.0625 -0.171875q-0.390625 -0.1875 -0.59375 -0.65625q-0.1875 -0.484375 -0.1875 -1.359375q0 -0.890625 0.203125 -1.359375q0.203125 -0.46875 0.59375 -0.640625q0.390625 -0.1875 1.046875 -0.1875q0.65625 0 1.0625 0.1875q0.40625 0.171875 0.59375 0.65625q0.203125 0.46875 0.203125 1.34375q0 0.875 -0.203125 1.359375q-0.1875 0.46875 -0.59375 0.65625q-0.390625 0.171875 -1.0625 0.171875zm0 -0.515625q0.453125 0 0.703125 -0.109375q0.25 -0.125 0.375 -0.484375q0.140625 -0.359375 0.140625 -1.078125q0 -0.71875 -0.140625 -1.078125q-0.125 -0.359375 -0.375 -0.46875q-0.25 -0.125 -0.703125 -0.125q-0.4375 0 -0.6875 0.125q-0.25 0.109375 -0.390625 0.46875q-0.125 0.359375 -0.125 1.078125q0 0.71875 0.125 1.078125q0.140625 0.359375 0.390625 0.484375q0.25 0.109375 0.6875 0.109375zm2.9284363 -3.796875l0.484375 0l0.140625 0.734375q0.3125 -0.375 0.671875 -0.578125q0.359375 -0.203125 0.796875 -0.203125q0.21875 0 0.40625 0.03125l0 0.65625q-0.359375 -0.046875 -0.46875 -0.046875q-0.421875 0 -0.734375 0.15625q-0.3125 0.140625 -0.671875 0.484375l0 3.03125l-0.625 0l0 -4.265625zm3.2959595 -1.84375l0.625 0l0 3.546875l0.609375 0l1.3125 -1.703125l0.671875 0l-1.515625 1.984375l1.609375 2.28125l-0.671875 0l-1.421875 -2.0l-0.59375 0l0 2.0l-0.625 0l0 -6.109375zm5.516693 6.15625q-0.359375 0 -0.90625 -0.03125q-0.546875 -0.03125 -0.734375 -0.078125l0 -0.390625l1.75 0q0.4375 0 0.640625 -0.109375q0.21875 -0.125 0.21875 -0.515625l0 -0.1875q0 -0.59375 -0.78125 -0.59375l-0.59375 0q-0.609375 0 -0.953125 -0.234375q-0.328125 -0.25 -0.328125 -0.828125l0 -0.21875q0 -0.609375 0.359375 -0.890625q0.359375 -0.28125 1.140625 -0.28125q0.34375 0 0.8125 0.046875q0.46875 0.03125 0.734375 0.078125l0 0.375l-1.640625 0q-0.4375 0 -0.65625 0.15625q-0.203125 0.140625 -0.203125 0.515625l0 0.171875q0 0.34375 0.203125 0.46875q0.21875 0.109375 0.640625 0.109375l0.609375 0q0.578125 0 0.890625 0.28125q0.328125 0.265625 0.328125 0.765625l0 0.296875q0 0.609375 -0.390625 0.859375q-0.390625 0.234375 -1.140625 0.234375zm2.5312042 -6.15625l0.625 0l0 2.3125q0.328125 -0.234375 0.734375 -0.390625q0.421875 -0.15625 0.84375 -0.15625q0.640625 0 0.96875 0.40625q0.34375 0.390625 0.34375 1.03125l0 2.90625l-0.640625 0l0 -2.84375q0 -0.40625 -0.234375 -0.65625q-0.234375 -0.265625 -0.65625 -0.265625q-0.375 0 -0.6875 0.109375q-0.296875 0.09375 -0.671875 0.296875l0 3.359375l-0.625 0l0 -6.109375zm6.3914337 6.15625q-0.65625 0 -1.0625 -0.171875q-0.390625 -0.1875 -0.59375 -0.65625q-0.1875 -0.484375 -0.1875 -1.359375q0 -0.890625 0.203125 -1.359375q0.203125 -0.46875 0.59375 -0.640625q0.390625 -0.1875 1.046875 -0.1875q0.65625 0 1.0625 0.1875q0.40625 0.171875 0.59375 0.65625q0.203125 0.46875 0.203125 1.34375q0 0.875 -0.203125 1.359375q-0.1875 0.46875 -0.59375 0.65625q-0.390625 0.171875 -1.0625 0.171875zm0 -0.515625q0.453125 0 0.703125 -0.109375q0.25 -0.125 0.375 -0.484375q0.140625 -0.359375 0.140625 -1.078125q0 -0.71875 -0.140625 -1.078125q-0.125 -0.359375 -0.375 -0.46875q-0.25 -0.125 -0.703125 -0.125q-0.4375 0 -0.6875 0.125q-0.25 0.109375 -0.390625 0.46875q-0.125 0.359375 -0.125 1.078125q0 0.71875 0.125 1.078125q0.140625 0.359375 0.390625 0.484375q0.25 0.109375 0.6875 0.109375zm2.9284363 -3.796875l0.515625 0l0.109375 0.4375q0.26561737 -0.1875 0.6562424 -0.34375q0.390625 -0.15625 0.75 -0.15625q0.78125 0 1.15625 0.625q0.375 0.609375 0.375 1.5625q0 1.09375 -0.375 1.65625q-0.375 0.546875 -1.15625 0.546875q-0.34375 0 -0.71875 -0.109375q-0.359375 -0.125 -0.6874924 -0.3125l0 2.25l-0.625 0l0 -6.15625zm1.8593674 3.78125q1.0625 0 1.0625 -1.65625q0 -0.84375 -0.3125 -1.25q-0.296875 -0.40625 -0.75 -0.40625q-0.34375 0 -0.640625 0.109375q-0.296875 0.09375 -0.5937424 0.25l0 2.609375q0.6093674 0.34375 1.2343674 0.34375zm4.233322 0.53125q-0.359375 0 -0.90625 -0.03125q-0.546875 -0.03125 -0.734375 -0.078125l0 -0.390625l1.75 0q0.4375 0 0.640625 -0.109375q0.21875 -0.125 0.21875 -0.515625l0 -0.1875q0 -0.59375 -0.78125 -0.59375l-0.59375 0q-0.609375 0 -0.953125 -0.234375q-0.328125 -0.25 -0.328125 -0.828125l0 -0.21875q0 -0.609375 0.359375 -0.890625q0.359375 -0.28125 1.140625 -0.28125q0.34375 0 0.8125 0.046875q0.46875 0.03125 0.734375 0.078125l0 0.375l-1.640625 0q-0.4375 0 -0.65625 0.15625q-0.203125 0.140625 -0.203125 0.515625l0 0.171875q0 0.34375 0.203125 0.46875q0.21875 0.109375 0.640625 0.109375l0.609375 0q0.578125 0 0.890625 0.28125q0.328125 0.265625 0.328125 0.765625l0 0.296875q0 0.609375 -0.390625 0.859375q-0.390625 0.234375 -1.140625 0.234375z" fill-rule="nonzero"></path><path fill="#b6d7a8" d="m339.29837 218.07707l0 0c0 -24.613632 20.341064 -44.566925 45.433075 -44.566925l0 0c12.049591 0 23.605682 4.6954346 32.126007 13.053345c8.520355 8.357925 13.307037 19.693695 13.307037 31.51358l0 0c0 24.613632 -20.341064 44.56694 -45.433044 44.56694l0 0c-25.09201 0 -45.433075 -19.953308 -45.433075 -44.56694z" fill-rule="evenodd"></path><path stroke="#000000" stroke-width="1.0" stroke-linejoin="round" stroke-linecap="butt" d="m339.29837 218.07707l0 0c0 -24.613632 20.341064 -44.566925 45.433075 -44.566925l0 0c12.049591 0 23.605682 4.6954346 32.126007 13.053345c8.520355 8.357925 13.307037 19.693695 13.307037 31.51358l0 0c0 24.613632 -20.341064 44.56694 -45.433044 44.56694l0 0c-25.09201 0 -45.433075 -19.953308 -45.433075 -44.56694z" fill-rule="evenodd"></path><path fill="#000000" fill-opacity="0.0" d="m347.81558 201.52296l73.29135 0l0 33.10237l-73.29135 0z" fill-rule="evenodd"></path><path fill="#000000" d="m366.63327 215.80103q-0.734375 0 -1.140625 -0.3125q-0.40625 -0.328125 -0.578125 -0.96875q-0.15625 -0.640625 -0.15625 -1.71875q0 -1.0625 0.171875 -1.6875q0.1875 -0.640625 0.625 -0.96875q0.4375 -0.328125 1.203125 -0.328125q0.453125 0 0.953125 0.0625q0.5 0.046875 0.9375 0.140625l0 0.484375q-0.3125 -0.046875 -0.828125 -0.078125q-0.5 -0.046875 -0.96875 -0.046875q-0.578125 0 -0.890625 0.25q-0.3125 0.234375 -0.4375 0.75q-0.125 0.515625 -0.125 1.421875q0 0.96875 0.125 1.484375q0.125 0.5 0.421875 0.71875q0.296875 0.203125 0.875 0.203125q0.359375 0 0.734375 -0.078125q0.390625 -0.09375 0.71875 -0.21875l0 -1.734375l-1.421875 0l0 -0.484375q0.53125 -0.078125 1.328125 -0.078125q0.46875 0 0.703125 0.03125l0 3.109375l-0.453125 0l-0.09375 -0.421875q-0.359375 0.1875 -0.8125 0.328125q-0.4375 0.140625 -0.890625 0.140625zm3.489563 -4.3125l0.484375 0l0.140625 0.734375q0.3125 -0.375 0.671875 -0.578125q0.359375 -0.203125 0.796875 -0.203125q0.21875 0 0.40625 0.03125l0 0.65625q-0.359375 -0.046875 -0.46875 -0.046875q-0.421875 0 -0.734375 0.15625q-0.3125 0.140625 -0.671875 0.484375l0 3.03125l-0.625 0l0 -4.265625zm4.1240845 4.3125q-0.484375 0 -0.78125 -0.28125q-0.296875 -0.296875 -0.296875 -0.796875l0 -0.296875q0 -0.515625 0.34375 -0.8125q0.34375 -0.3125 1.0 -0.3125l1.4375 0l0 -0.53125q0 -0.4375 -0.234375 -0.640625q-0.234375 -0.203125 -0.859375 -0.203125l-1.328125 0l0 -0.375q0.75 -0.140625 1.546875 -0.140625q0.78125 0 1.140625 0.328125q0.375 0.3125 0.375 1.0l0 3.015625l-0.5 0l-0.109375 -0.484375q-0.0625 0.046875 -0.359375 0.1875q-0.28125 0.125 -0.65625 0.234375q-0.375 0.109375 -0.71875 0.109375zm0.28125 -0.46875q0.21875 0 0.53125 -0.078125q0.3125 -0.078125 0.5625 -0.171875q0.25 -0.09375 0.328125 -0.125l0 -1.34375l-1.296875 0.0625q-0.4375 0.015625 -0.65625 0.21875q-0.203125 0.203125 -0.203125 0.546875l0 0.1875q0 0.359375 0.21875 0.53125q0.21875 0.171875 0.515625 0.171875zm3.2505493 -3.84375l0.5 0l0.125 0.46875q0.34375 -0.234375 0.75 -0.390625q0.40625 -0.15625 0.8125 -0.15625q0.671875 0 1.0 0.40625q0.328125 0.40625 0.328125 1.03125l0 2.90625l-0.640625 0l0 -2.828125q0 -0.421875 -0.234375 -0.671875q-0.234375 -0.265625 -0.65625 -0.265625q-0.375 0 -0.6875 0.109375q-0.296875 0.09375 -0.671875 0.296875l0 3.359375l-0.625 0l0 -4.265625zm6.125824 4.265625q-0.640625 0 -0.9375 -0.3125q-0.296875 -0.328125 -0.28125 -1.078125l0.03125 -2.359375l-0.6875 0l0 -0.40625l0.6875 -0.109375l0.109375 -1.203125l0.484375 0l0 1.203125l1.234375 0l0 0.515625l-1.234375 0l0 2.359375q0 0.5 0.1875 0.6875q0.1875 0.171875 0.46875 0.1875l0.515625 0.046875l0 0.46875l-0.578125 0zm2.9828186 0.046875q-0.359375 0 -0.90625 -0.03125q-0.546875 -0.03125 -0.734375 -0.078125l0 -0.390625l1.75 0q0.4375 0 0.640625 -0.109375q0.21875 -0.125 0.21875 -0.515625l0 -0.1875q0 -0.59375 -0.78125 -0.59375l-0.59375 0q-0.609375 0 -0.953125 -0.234375q-0.328125 -0.25 -0.328125 -0.828125l0 -0.21875q0 -0.609375 0.359375 -0.890625q0.359375 -0.28125 1.140625 -0.28125q0.34375 0 0.8125 0.046875q0.46875 0.03125 0.734375 0.078125l0 0.375l-1.640625 0q-0.4375 0 -0.65625 0.15625q-0.203125 0.140625 -0.203125 0.515625l0 0.171875q0 0.34375 0.203125 0.46875q0.21875 0.109375 0.640625 0.109375l0.609375 0q0.578125 0 0.890625 0.28125q0.328125 0.265625 0.328125 0.765625l0 0.296875q0 0.609375 -0.390625 0.859375q-0.390625 0.234375 -1.140625 0.234375zm5.5193176 0q-0.484375 0 -0.78125 -0.28125q-0.296875 -0.296875 -0.296875 -0.796875l0 -0.296875q0 -0.515625 0.34375 -0.8125q0.34375 -0.3125 1.0 -0.3125l1.4375 0l0 -0.53125q0 -0.4375 -0.234375 -0.640625q-0.234375 -0.203125 -0.859375 -0.203125l-1.328125 0l0 -0.375q0.75 -0.140625 1.546875 -0.140625q0.78125 0 1.140625 0.328125q0.375 0.3125 0.375 1.0l0 3.015625l-0.5 0l-0.109375 -0.484375q-0.0625 0.046875 -0.359375 0.1875q-0.28125 0.125 -0.65625 0.234375q-0.375 0.109375 -0.71875 0.109375zm0.28125 -0.46875q0.21875 0 0.53125 -0.078125q0.3125 -0.078125 0.5625 -0.171875q0.25 -0.09375 0.328125 -0.125l0 -1.34375l-1.296875 0.0625q-0.4375 0.015625 -0.65625 0.21875q-0.203125 0.203125 -0.203125 0.546875l0 0.1875q0 0.359375 0.21875 0.53125q0.21875 0.171875 0.515625 0.171875zm3.2505493 -3.84375l0.5 0l0.125 0.46875q0.34375 -0.234375 0.75 -0.390625q0.40625 -0.15625 0.8125 -0.15625q0.671875 0 1.0 0.40625q0.328125 0.40625 0.328125 1.03125l0 2.90625l-0.640625 0l0 -2.828125q0 -0.421875 -0.234375 -0.671875q-0.234375 -0.265625 -0.65625 -0.265625q-0.375 0 -0.6875 0.109375q-0.296875 0.09375 -0.671875 0.296875l0 3.359375l-0.625 0l0 -4.265625zm6.078949 4.3125q-0.78125 0 -1.15625 -0.515625q-0.375 -0.515625 -0.375 -1.640625q0 -0.796875 0.15625 -1.28125q0.171875 -0.484375 0.515625 -0.703125q0.359375 -0.234375 0.953125 -0.234375q0.609375 0 1.3125 0.25l0 -2.03125l0.625 0l0 6.109375l-0.515625 0l-0.109375 -0.4375q-0.203125 0.171875 -0.625 0.328125q-0.421875 0.15625 -0.78125 0.15625zm0.1875 -0.515625q0.34375 0 0.625 -0.09375q0.28125 -0.109375 0.59375 -0.265625l0 -2.796875q-0.375 -0.109375 -0.625 -0.15625q-0.234375 -0.046875 -0.53125 -0.046875q-0.421875 0 -0.671875 0.15625q-0.25 0.15625 -0.359375 0.53125q-0.109375 0.359375 -0.109375 1.015625q0 0.890625 0.234375 1.28125q0.25 0.375 0.84375 0.375z" fill-rule="nonzero"></path><path fill="#000000" d="m367.74286 219.86353l2.140625 0q1.515625 0 1.515625 1.515625q0 0.53125 -0.234375 0.875q-0.234375 0.34375 -0.59375 0.4375q0.390625 0.09375 0.703125 0.453125q0.328125 0.34375 0.328125 0.984375q0 0.890625 -0.421875 1.265625q-0.40625 0.359375 -1.21875 0.359375l-2.21875 0l0 -5.890625zm2.171875 2.609375q0.390625 0 0.625 -0.28125q0.25 -0.296875 0.25 -0.796875q0 -0.953125 -0.90625 -0.953125l-1.5 0l0 2.03125l1.53125 0zm0.03125 2.71875q0.5 0 0.765625 -0.25q0.28125 -0.265625 0.28125 -0.921875q0 -0.484375 -0.296875 -0.765625q-0.296875 -0.28125 -0.75 -0.28125l-1.5625 0l0 2.21875l1.5625 0zm3.886444 0.609375q-1.28125 0 -1.28125 -1.3125l0 -3.0l0.640625 0l0 2.84375q0 0.515625 0.21875 0.71875q0.234375 0.1875 0.703125 0.1875q0.359375 0 0.671875 -0.09375q0.3125 -0.109375 0.65625 -0.3125l0 -3.34375l0.640625 0l0 4.265625l-0.5 0l-0.140625 -0.46875q-0.8125 0.515625 -1.609375 0.515625zm3.4382935 -4.3125l0.484375 0l0.140625 0.734375q0.3125 -0.375 0.671875 -0.578125q0.359375 -0.203125 0.796875 -0.203125q0.21875 0 0.40625 0.03125l0 0.65625q-0.359375 -0.046875 -0.46875 -0.046875q-0.421875 0 -0.734375 0.15625q-0.3125 0.140625 -0.671875 0.484375l0 3.03125l-0.625 0l0 -4.265625zm4.7647095 4.3125q-0.359375 0 -0.90625 -0.03125q-0.546875 -0.03125 -0.734375 -0.078125l0 -0.390625l1.75 0q0.4375 0 0.640625 -0.109375q0.21875 -0.125 0.21875 -0.515625l0 -0.1875q0 -0.59375 -0.78125 -0.59375l-0.59375 0q-0.609375 0 -0.953125 -0.234375q-0.328125 -0.25 -0.328125 -0.828125l0 -0.21875q0 -0.609375 0.359375 -0.890625q0.359375 -0.28125 1.140625 -0.28125q0.34375 0 0.8125 0.046875q0.46875 0.03125 0.734375 0.078125l0 0.375l-1.640625 0q-0.4375 0 -0.65625 0.15625q-0.203125 0.140625 -0.203125 0.515625l0 0.171875q0 0.34375 0.203125 0.46875q0.21875 0.109375 0.640625 0.109375l0.609375 0q0.578125 0 0.890625 0.28125q0.328125 0.265625 0.328125 0.765625l0 0.296875q0 0.609375 -0.390625 0.859375q-0.390625 0.234375 -1.140625 0.234375zm3.359314 0q-0.484375 0 -0.78125 -0.28125q-0.296875 -0.296875 -0.296875 -0.796875l0 -0.296875q0 -0.515625 0.34375 -0.8125q0.34375 -0.3125 1.0 -0.3125l1.4375 0l0 -0.53125q0 -0.4375 -0.234375 -0.640625q-0.234375 -0.203125 -0.859375 -0.203125l-1.328125 0l0 -0.375q0.75 -0.140625 1.546875 -0.140625q0.78125 0 1.140625 0.328125q0.375 0.3125 0.375 1.0l0 3.015625l-0.5 0l-0.109375 -0.484375q-0.0625 0.046875 -0.359375 0.1875q-0.28125 0.125 -0.65625 0.234375q-0.375 0.109375 -0.71875 0.109375zm0.28125 -0.46875q0.21875 0 0.53125 -0.078125q0.3125 -0.078125 0.5625 -0.171875q0.25 -0.09375 0.328125 -0.125l0 -1.34375l-1.296875 0.0625q-0.4375 0.015625 -0.65625 0.21875q-0.203125 0.203125 -0.203125 0.546875l0 0.1875q0 0.359375 0.21875 0.53125q0.21875 0.171875 0.515625 0.171875zm3.2505798 -3.84375l0.484375 0l0.140625 0.734375q0.3125 -0.375 0.671875 -0.578125q0.359375 -0.203125 0.796875 -0.203125q0.21875 0 0.40625 0.03125l0 0.65625q-0.359375 -0.046875 -0.46875 -0.046875q-0.421875 0 -0.734375 0.15625q-0.3125 0.140625 -0.671875 0.484375l0 3.03125l-0.625 0l0 -4.265625zm3.3897095 -0.765625q-0.0625 0 -0.09375 -0.03125q-0.03125 -0.046875 -0.03125 -0.09375l0 -0.625q0 -0.125 0.125 -0.125l0.453125 0q0.109375 0 0.109375 0.125l0 0.625q0 0.125 -0.109375 0.125l-0.453125 0zm-0.09375 0.765625l0.625 0l0 4.265625l-0.625 0l0 -4.265625zm3.4729614 4.3125q-0.6875 0 -1.0625 -0.203125q-0.375 -0.203125 -0.546875 -0.671875q-0.171875 -0.46875 -0.171875 -1.3125q0 -0.859375 0.171875 -1.328125q0.171875 -0.46875 0.546875 -0.65625q0.390625 -0.203125 1.078125 -0.203125q0.578125 0 0.921875 0.125q0.359375 0.125 0.53125 0.4375q0.171875 0.3125 0.171875 0.859375q0 0.53125 -0.328125 0.78125q-0.3125 0.25 -0.890625 0.25l-1.5625 0q0 0.546875 0.09375 0.84375q0.109375 0.296875 0.390625 0.4375q0.28125 0.140625 0.8125 0.140625l1.375 0l0 0.390625q-0.421875 0.046875 -0.765625 0.078125q-0.34375 0.03125 -0.765625 0.03125zm0.359375 -2.34375q0.375 0 0.53125 -0.125q0.171875 -0.140625 0.171875 -0.484375q0 -0.53125 -0.234375 -0.734375q-0.234375 -0.203125 -0.8125 -0.203125q-0.46875 0 -0.71875 0.140625q-0.25 0.125 -0.359375 0.453125q-0.09375 0.328125 -0.09375 0.953125l1.515625 0zm3.812317 2.34375q-0.359375 0 -0.90625 -0.03125q-0.546875 -0.03125 -0.734375 -0.078125l0 -0.390625l1.75 0q0.4375 0 0.640625 -0.109375q0.21875 -0.125 0.21875 -0.515625l0 -0.1875q0 -0.59375 -0.78125 -0.59375l-0.59375 0q-0.609375 0 -0.953125 -0.234375q-0.328125 -0.25 -0.328125 -0.828125l0 -0.21875q0 -0.609375 0.359375 -0.890625q0.359375 -0.28125 1.140625 -0.28125q0.34375 0 0.8125 0.046875q0.46875 0.03125 0.734375 0.078125l0 0.375l-1.640625 0q-0.4375 0 -0.65625 0.15625q-0.203125 0.140625 -0.203125 0.515625l0 0.171875q0 0.34375 0.203125 0.46875q0.21875 0.109375 0.640625 0.109375l0.609375 0q0.578125 0 0.890625 0.28125q0.328125 0.265625 0.328125 0.765625l0 0.296875q0 0.609375 -0.390625 0.859375q-0.390625 0.234375 -1.140625 0.234375z" fill-rule="nonzero"></path><path fill="#b6d7a8" d="m10.278215 215.21057l0 0c0 -24.613632 20.341078 -44.566925 45.433067 -44.566925l0 0c12.0496025 0 23.605679 4.6954193 32.126034 13.053345c8.520355 8.357925 13.307037 19.693695 13.307037 31.51358l0 0c0 24.613632 -20.34108 44.566925 -45.43307 44.566925l0 0c-25.091991 0 -45.433067 -19.953293 -45.433067 -44.566925z" fill-rule="evenodd"></path><path stroke="#000000" stroke-width="1.0" stroke-linejoin="round" stroke-linecap="butt" d="m10.278215 215.21057l0 0c0 -24.613632 20.341078 -44.566925 45.433067 -44.566925l0 0c12.0496025 0 23.605679 4.6954193 32.126034 13.053345c8.520355 8.357925 13.307037 19.693695 13.307037 31.51358l0 0c0 24.613632 -20.34108 44.566925 -45.43307 44.566925l0 0c-25.091991 0 -45.433067 -19.953293 -45.433067 -44.566925z" fill-rule="evenodd"></path><path fill="#000000" fill-opacity="0.0" d="m13.916771 203.85123l83.59055 0l0 25.574814l-83.59055 0z" fill-rule="evenodd"></path><path fill="#000000" d="m33.441723 208.42801l2.34375 0q1.546875 0 1.546875 1.875q0 1.109375 -0.46875 1.53125q-0.453125 0.40625 -1.109375 0.40625q-0.21875 0 -0.765625 -0.015625q-0.546875 -0.03125 -0.90625 -0.0625l0 2.15625l-0.640625 0l0 -5.890625zm2.234375 3.25q1.015625 0 1.015625 -1.359375q0 -1.3125 -0.953125 -1.3125l-1.65625 0l0 2.671875l1.59375 0zm2.5975647 -1.625l0.484375 0l0.140625 0.734375q0.3125 -0.375 0.671875 -0.578125q0.359375 -0.203125 0.796875 -0.203125q0.21875 0 0.40625 0.03125l0 0.65625q-0.359375 -0.046875 -0.46875 -0.046875q-0.421875 0 -0.734375 0.15625q-0.3125 0.140625 -0.671875 0.484375l0 3.03125l-0.625 0l0 -4.265625zm4.9834595 4.3125q-0.65625 0 -1.0625 -0.171875q-0.390625 -0.1875 -0.59375 -0.65625q-0.1875 -0.484375 -0.1875 -1.359375q0 -0.890625 0.203125 -1.359375q0.203125 -0.46875 0.59375 -0.640625q0.390625 -0.1875 1.046875 -0.1875q0.65625 0 1.0625 0.1875q0.40625 0.171875 0.59375 0.65625q0.203125 0.46875 0.203125 1.34375q0 0.875 -0.203125 1.359375q-0.1875 0.46875 -0.59375 0.65625q-0.390625 0.171875 -1.0625 0.171875zm0 -0.515625q0.453125 0 0.703125 -0.109375q0.25 -0.125 0.375 -0.484375q0.140625 -0.359375 0.140625 -1.078125q0 -0.71875 -0.140625 -1.078125q-0.125 -0.359375 -0.375 -0.46875q-0.25 -0.125 -0.703125 -0.125q-0.4375 0 -0.6875 0.125q-0.25 0.109375 -0.390625 0.46875q-0.125 0.359375 -0.125 1.078125q0 0.71875 0.125 1.078125q0.140625 0.359375 0.390625 0.484375q0.25 0.109375 0.6875 0.109375zm2.9284363 -3.796875l0.5 0l0.125 0.46875q0.8125 -0.546875 1.609375 -0.546875q0.375 0 0.65625 0.171875q0.296875 0.171875 0.453125 0.453125q0.328125 -0.234375 0.8125 -0.421875q0.484375 -0.203125 0.90625 -0.203125q0.65625 0 1.0 0.40625q0.34375 0.40625 0.34375 1.0625l0 2.875l-0.640625 0l0 -2.828125q0 -0.421875 -0.25 -0.671875q-0.234375 -0.265625 -0.65625 -0.265625q-0.34375 0 -0.71875 0.125q-0.359375 0.125 -0.703125 0.34375q0.078125 0.25 0.078125 0.46875l0 2.828125l-0.640625 0l0 -2.828125q0 -0.421875 -0.234375 -0.671875q-0.234375 -0.265625 -0.65625 -0.265625q-0.375 0 -0.6875 0.109375q-0.296875 0.09375 -0.671875 0.296875l0 3.359375l-0.625 0l0 -4.265625zm9.271408 4.3125q-0.65625 0 -1.0625 -0.171875q-0.390625 -0.1875 -0.59375 -0.65625q-0.1875 -0.484375 -0.1875 -1.359375q0 -0.890625 0.203125 -1.359375q0.203125 -0.46875 0.59375 -0.640625q0.390625 -0.1875 1.046875 -0.1875q0.65625 0 1.0625 0.1875q0.40625 0.171875 0.59375 0.65625q0.203125 0.46875 0.203125 1.34375q0 0.875 -0.203125 1.359375q-0.1875 0.46875 -0.59375 0.65625q-0.390625 0.171875 -1.0625 0.171875zm0 -0.515625q0.453125 0 0.703125 -0.109375q0.25 -0.125 0.375 -0.484375q0.140625 -0.359375 0.140625 -1.078125q0 -0.71875 -0.140625 -1.078125q-0.125 -0.359375 -0.375 -0.46875q-0.25 -0.125 -0.703125 -0.125q-0.4375 0 -0.6875 0.125q-0.25 0.109375 -0.390625 0.46875q-0.125 0.359375 -0.125 1.078125q0 0.71875 0.125 1.078125q0.140625 0.359375 0.390625 0.484375q0.25 0.109375 0.6875 0.109375zm4.3503113 0.46875q-0.640625 0 -0.9375 -0.3125q-0.296875 -0.328125 -0.28125 -1.078125l0.03125 -2.359375l-0.6875 0l0 -0.40625l0.6875 -0.109375l0.109375 -1.203125l0.484375 0l0 1.203125l1.234375 0l0 0.515625l-1.234375 0l0 2.359375q0 0.5 0.1875 0.6875q0.1875 0.171875 0.46875 0.1875l0.515625 0.046875l0 0.46875l-0.578125 0zm1.6078339 -5.03125q-0.0625 0 -0.09375 -0.03125q-0.03125 -0.046875 -0.03125 -0.09375l0 -0.625q0 -0.125 0.125 -0.125l0.453125 0q0.109375 0 0.109375 0.125l0 0.625q0 0.125 -0.109375 0.125l-0.453125 0zm-0.09375 0.765625l0.625 0l0 4.265625l-0.625 0l0 -4.265625zm3.5354729 4.3125q-0.65625 0 -1.0624962 -0.171875q-0.390625 -0.1875 -0.59375 -0.65625q-0.1875 -0.484375 -0.1875 -1.359375q0 -0.890625 0.203125 -1.359375q0.203125 -0.46875 0.59375 -0.640625q0.3906212 -0.1875 1.0468712 -0.1875q0.65625 0 1.0625 0.1875q0.40625 0.171875 0.59375 0.65625q0.203125 0.46875 0.203125 1.34375q0 0.875 -0.203125 1.359375q-0.1875 0.46875 -0.59375 0.65625q-0.390625 0.171875 -1.0625 0.171875zm0 -0.515625q0.453125 0 0.703125 -0.109375q0.25 -0.125 0.375 -0.484375q0.140625 -0.359375 0.140625 -1.078125q0 -0.71875 -0.140625 -1.078125q-0.125 -0.359375 -0.375 -0.46875q-0.25 -0.125 -0.703125 -0.125q-0.4375 0 -0.6875 0.125q-0.24999619 0.109375 -0.3906212 0.46875q-0.125 0.359375 -0.125 1.078125q0 0.71875 0.125 1.078125q0.140625 0.359375 0.3906212 0.484375q0.25 0.109375 0.6875 0.109375zm2.9284363 -3.796875l0.5 0l0.125 0.46875q0.34375 -0.234375 0.75 -0.390625q0.40625 -0.15625 0.8125 -0.15625q0.671875 0 1.0 0.40625q0.328125 0.40625 0.328125 1.03125l0 2.90625l-0.640625 0l0 -2.828125q0 -0.421875 -0.234375 -0.671875q-0.234375 -0.265625 -0.65625 -0.265625q-0.375 0 -0.6875 0.109375q-0.296875 0.09375 -0.671875 0.296875l0 3.359375l-0.625 0l0 -4.265625zm5.5320587 4.3125q-0.484375 0 -0.78125 -0.28125q-0.296875 -0.296875 -0.296875 -0.796875l0 -0.296875q0 -0.515625 0.34375 -0.8125q0.34375 -0.3125 1.0 -0.3125l1.4375 0l0 -0.53125q0 -0.4375 -0.234375 -0.640625q-0.234375 -0.203125 -0.859375 -0.203125l-1.328125 0l0 -0.375q0.75 -0.140625 1.546875 -0.140625q0.78125 0 1.140625 0.328125q0.375 0.3125 0.375 1.0l0 3.015625l-0.5 0l-0.109375 -0.484375q-0.0625 0.046875 -0.359375 0.1875q-0.28125 0.125 -0.65625 0.234375q-0.375 0.109375 -0.71875 0.109375zm0.28125 -0.46875q0.21875 0 0.53125 -0.078125q0.3125 -0.078125 0.5625 -0.171875q0.25 -0.09375 0.328125 -0.125l0 -1.34375l-1.296875 0.0625q-0.4375 0.015625 -0.65625 0.21875q-0.203125 0.203125 -0.203125 0.546875l0 0.1875q0 0.359375 0.21875 0.53125q0.21875 0.171875 0.515625 0.171875zm4.3755646 0.4375q-0.578125 0 -0.859375 -0.3125q-0.265625 -0.3125 -0.265625 -1.078125l0 -4.734375l0.625 0l0 4.65625q0 0.53125 0.140625 0.734375q0.15625 0.1875 0.46875 0.21875l0.421875 0.046875l0 0.46875l-0.53125 0z" fill-rule="nonzero"></path><path fill="#000000" d="m45.04871 224.34988q-0.5 0 -0.859375 -0.234375q-0.34375 -0.234375 -0.34375 -0.90625l0 -3.59375q0 -0.625 0.328125 -0.90625q0.34375 -0.28125 0.84375 -0.28125q1.28125 0.03125 1.984375 0.0625l0.46875 0.015625l0 0.515625l-2.296875 0q-0.6875 0 -0.6875 0.703125l0 1.390625l2.640625 0.03125l0 0.484375l-2.640625 0.046875l0 1.390625q0 0.40625 0.1875 0.546875q0.203125 0.140625 0.53125 0.140625l2.265625 0l0 0.515625q-1.515625 0.078125 -2.421875 0.078125zm3.039688 -4.296875l0.640625 0l1.328125 3.671875l1.375 -3.671875l0.640625 0l-1.65625 4.265625l-0.71875 0l-1.609375 -4.265625zm6.3660736 4.3125q-0.6875 0 -1.0625 -0.203125q-0.375 -0.203125 -0.546875 -0.671875q-0.171875 -0.46875 -0.171875 -1.3125q0 -0.859375 0.171875 -1.328125q0.171875 -0.46875 0.546875 -0.65625q0.390625 -0.203125 1.078125 -0.203125q0.578125 0 0.921875 0.125q0.359375 0.125 0.53125 0.4375q0.171875 0.3125 0.171875 0.859375q0 0.53125 -0.328125 0.78125q-0.3125 0.25 -0.890625 0.25l-1.5625 0q0 0.546875 0.09375 0.84375q0.109375 0.296875 0.390625 0.4375q0.28125 0.140625 0.8125 0.140625l1.375 0l0 0.390625q-0.421875 0.046875 -0.765625 0.078125q-0.34375 0.03125 -0.765625 0.03125zm0.359375 -2.34375q0.375 0 0.53125 -0.125q0.171875 -0.140625 0.171875 -0.484375q0 -0.53125 -0.234375 -0.734375q-0.234375 -0.203125 -0.8125 -0.203125q-0.46875 0 -0.71875 0.140625q-0.25 0.125 -0.359375 0.453125q-0.09375 0.328125 -0.09375 0.953125l1.515625 0zm2.343567 -1.96875l0.5 0l0.125 0.46875q0.34375 -0.234375 0.75 -0.390625q0.40625 -0.15625 0.8125 -0.15625q0.671875 0 1.0 0.40625q0.328125 0.40625 0.328125 1.03125l0 2.90625l-0.640625 0l0 -2.828125q0 -0.421875 -0.234375 -0.671875q-0.234375 -0.265625 -0.65625 -0.265625q-0.375 0 -0.6875 0.109375q-0.296875 0.09375 -0.671875 0.296875l0 3.359375l-0.625 0l0 -4.265625zm6.1258087 4.265625q-0.640625 0 -0.9375 -0.3125q-0.296875 -0.328125 -0.28125 -1.078125l0.03125 -2.359375l-0.6875 0l0 -0.40625l0.6875 -0.109375l0.109375 -1.203125l0.484375 0l0 1.203125l1.234375 0l0 0.515625l-1.234375 0l0 2.359375q0 0.5 0.1875 0.6875q0.1875 0.171875 0.46875 0.1875l0.515625 0.046875l0 0.46875l-0.578125 0zm2.98283 0.046875q-0.359375 0 -0.90625 -0.03125q-0.546875 -0.03125 -0.734375 -0.078125l0 -0.390625l1.75 0q0.4375 0 0.640625 -0.109375q0.21875 -0.125 0.21875 -0.515625l0 -0.1875q0 -0.59375 -0.78125 -0.59375l-0.59375 0q-0.609375 0 -0.953125 -0.234375q-0.328125 -0.25 -0.328125 -0.828125l0 -0.21875q0 -0.609375 0.359375 -0.890625q0.359375 -0.28125 1.140625 -0.28125q0.34375 0 0.8125 0.046875q0.46875 0.03125 0.734375 0.078125l0 0.375l-1.640625 0q-0.4375 0 -0.65625 0.15625q-0.203125 0.140625 -0.203125 0.515625l0 0.171875q0 0.34375 0.203125 0.46875q0.21875 0.109375 0.640625 0.109375l0.609375 0q0.578125 0 0.890625 0.28125q0.328125 0.265625 0.328125 0.765625l0 0.296875q0 0.609375 -0.390625 0.859375q-0.390625 0.234375 -1.140625 0.234375z" fill-rule="nonzero"></path><path fill="#b6d7a8" d="m472.378 218.07707l0 0c0 -24.613632 18.712372 -44.566925 41.795288 -44.566925l0 0c11.084778 0 21.715576 4.6954346 29.55371 13.053345c7.838135 8.357925 12.241577 19.693695 12.241577 31.51358l0 0c0 24.613632 -18.712402 44.56694 -41.795288 44.56694l0 0c-23.082916 0 -41.795288 -19.953308 -41.795288 -44.56694z" fill-rule="evenodd"></path><path stroke="#000000" stroke-width="1.0" stroke-linejoin="round" stroke-linecap="butt" d="m472.378 218.07707l0 0c0 -24.613632 18.712372 -44.566925 41.795288 -44.566925l0 0c11.084778 0 21.715576 4.6954346 29.55371 13.053345c7.838135 8.357925 12.241577 19.693695 12.241577 31.51358l0 0c0 24.613632 -18.712402 44.56694 -41.795288 44.56694l0 0c-23.082916 0 -41.795288 -19.953308 -41.795288 -44.56694z" fill-rule="evenodd"></path><path fill="#000000" fill-opacity="0.0" d="m475.24063 205.72015l77.858246 0l0 24.692917l-77.858246 0z" fill-rule="evenodd"></path><path fill="#000000" d="m501.2112 215.79349q-0.375 0 -0.9375 -0.046875q-0.546875 -0.046875 -0.84375 -0.09375l0 -0.484375q0.625 0.0625 1.765625 0.0625q0.609375 0 0.9375 -0.1875q0.34375 -0.203125 0.34375 -0.703125l0 -0.40625q0 -0.828125 -0.890625 -0.828125l-0.625 0q-0.765625 0 -1.15625 -0.328125q-0.390625 -0.328125 -0.390625 -1.09375l0 -0.34375q0 -0.796875 0.421875 -1.15625q0.4375 -0.375 1.28125 -0.375q0.359375 0 0.859375 0.0625q0.515625 0.046875 0.84375 0.109375l0 0.484375q-1.078125 -0.078125 -1.640625 -0.078125q-0.59375 0 -0.875 0.21875q-0.28125 0.203125 -0.28125 0.765625l0 0.265625q0 0.46875 0.234375 0.671875q0.25 0.1875 0.734375 0.1875l0.671875 0q0.703125 0 1.0625 0.375q0.359375 0.375 0.359375 1.0l0 0.453125q0 0.828125 -0.5 1.15625q-0.5 0.3125 -1.375 0.3125zm2.952057 -4.3125l0.515625 0l0.109375 0.4375q0.265625 -0.1875 0.65625 -0.34375q0.390625 -0.15625 0.75 -0.15625q0.78125 0 1.15625 0.625q0.375 0.609375 0.375 1.5625q0 1.09375 -0.375 1.65625q-0.375 0.546875 -1.15625 0.546875q-0.34375 0 -0.71875 -0.109375q-0.359375 -0.125 -0.6875 -0.3125l0 2.25l-0.625 0l0 -6.15625zm1.859375 3.78125q1.0625 0 1.0625 -1.65625q0 -0.84375 -0.3125 -1.25q-0.296875 -0.40625 -0.75 -0.40625q-0.34375 0 -0.640625 0.109375q-0.296875 0.09375 -0.59375 0.25l0 2.609375q0.609375 0.34375 1.234375 0.34375zm4.4520874 0.53125q-0.65625 0 -1.0625 -0.171875q-0.390625 -0.1875 -0.59375 -0.65625q-0.1875 -0.484375 -0.1875 -1.359375q0 -0.890625 0.203125 -1.359375q0.203125 -0.46875 0.59375 -0.640625q0.390625 -0.1875 1.046875 -0.1875q0.65625 0 1.0625 0.1875q0.40625 0.171875 0.59375 0.65625q0.203125 0.46875 0.203125 1.34375q0 0.875 -0.203125 1.359375q-0.1875 0.46875 -0.59375 0.65625q-0.390625 0.171875 -1.0625 0.171875zm0 -0.515625q0.453125 0 0.703125 -0.109375q0.25 -0.125 0.375 -0.484375q0.140625 -0.359375 0.140625 -1.078125q0 -0.71875 -0.140625 -1.078125q-0.125 -0.359375 -0.375 -0.46875q-0.25 -0.125 -0.703125 -0.125q-0.4375 0 -0.6875 0.125q-0.25 0.109375 -0.390625 0.46875q-0.125 0.359375 -0.125 1.078125q0 0.71875 0.125 1.078125q0.140625 0.359375 0.390625 0.484375q0.25 0.109375 0.6875 0.109375zm2.9284058 -3.796875l0.5 0l0.125 0.46875q0.34375 -0.234375 0.75 -0.390625q0.40625 -0.15625 0.8125 -0.15625q0.671875 0 1.0 0.40625q0.328125 0.40625 0.328125 1.03125l0 2.90625l-0.640625 0l0 -2.828125q0 -0.421875 -0.234375 -0.671875q-0.234375 -0.265625 -0.65625 -0.265625q-0.375 0 -0.6875 0.109375q-0.296875 0.09375 -0.671875 0.296875l0 3.359375l-0.625 0l0 -4.265625zm6.1727295 4.3125q-0.359375 0 -0.90625 -0.03125q-0.546875 -0.03125 -0.734375 -0.078125l0 -0.390625l1.75 0q0.4375 0 0.640625 -0.109375q0.21875 -0.125 0.21875 -0.515625l0 -0.1875q0 -0.59375 -0.78125 -0.59375l-0.59375 0q-0.609375 0 -0.953125 -0.234375q-0.328125 -0.25 -0.328125 -0.828125l0 -0.21875q0 -0.609375 0.359375 -0.890625q0.359375 -0.28125 1.140625 -0.28125q0.34375 0 0.8125 0.046875q0.46875 0.03125 0.734375 0.078125l0 0.375l-1.640625 0q-0.4375 0 -0.65625 0.15625q-0.203125 0.140625 -0.203125 0.515625l0 0.171875q0 0.34375 0.203125 0.46875q0.21875 0.109375 0.640625 0.109375l0.609375 0q0.578125 0 0.890625 0.28125q0.328125 0.265625 0.328125 0.765625l0 0.296875q0 0.609375 -0.390625 0.859375q-0.390625 0.234375 -1.140625 0.234375zm4.218689 0q-0.65625 0 -1.0625 -0.171875q-0.390625 -0.1875 -0.59375 -0.65625q-0.1875 -0.484375 -0.1875 -1.359375q0 -0.890625 0.203125 -1.359375q0.203125 -0.46875 0.59375 -0.640625q0.390625 -0.1875 1.046875 -0.1875q0.65625 0 1.0625 0.1875q0.40625 0.171875 0.59375 0.65625q0.203125 0.46875 0.203125 1.34375q0 0.875 -0.203125 1.359375q-0.1875 0.46875 -0.59375 0.65625q-0.390625 0.171875 -1.0625 0.171875zm0 -0.515625q0.453125 0 0.703125 -0.109375q0.25 -0.125 0.375 -0.484375q0.140625 -0.359375 0.140625 -1.078125q0 -0.71875 -0.140625 -1.078125q-0.125 -0.359375 -0.375 -0.46875q-0.25 -0.125 -0.703125 -0.125q-0.4375 0 -0.6875 0.125q-0.25 0.109375 -0.390625 0.46875q-0.125 0.359375 -0.125 1.078125q0 0.71875 0.125 1.078125q0.140625 0.359375 0.390625 0.484375q0.25 0.109375 0.6875 0.109375zm2.9284058 -3.796875l0.484375 0l0.140625 0.734375q0.3125 -0.375 0.671875 -0.578125q0.359375 -0.203125 0.796875 -0.203125q0.21875 0 0.40625 0.03125l0 0.65625q-0.359375 -0.046875 -0.46875 -0.046875q-0.421875 0 -0.734375 0.15625q-0.3125 0.140625 -0.671875 0.484375l0 3.03125l-0.625 0l0 -4.265625z" fill-rule="nonzero"></path><path fill="#000000" d="m500.052 225.79349q-0.84375 0 -1.328125 -0.21875q-0.46875 -0.21875 -0.71875 -0.84375q-0.234375 -0.640625 -0.234375 -1.90625q0 -1.25 0.25 -1.890625q0.25 -0.65625 0.734375 -0.890625q0.484375 -0.234375 1.296875 -0.234375q0.828125 0 1.296875 0.234375q0.484375 0.21875 0.71875 0.875q0.25 0.65625 0.25 1.90625q0 1.265625 -0.25 1.90625q-0.234375 0.625 -0.71875 0.84375q-0.46875 0.21875 -1.296875 0.21875zm0 -0.5625q0.640625 0 0.96875 -0.171875q0.34375 -0.1875 0.5 -0.6875q0.171875 -0.515625 0.171875 -1.546875q0 -1.0625 -0.171875 -1.578125q-0.15625 -0.53125 -0.5 -0.703125q-0.328125 -0.171875 -0.96875 -0.171875q-0.609375 0 -0.953125 0.171875q-0.34375 0.171875 -0.515625 0.703125q-0.171875 0.53125 -0.171875 1.578125q0 1.03125 0.140625 1.546875q0.15625 0.5 0.5 0.6875q0.34375 0.171875 1.0 0.171875zm4.612915 0.5625q-1.28125 0 -1.28125 -1.3125l0 -3.0l0.640625 0l0 2.84375q0 0.515625 0.21875 0.71875q0.234375 0.1875 0.703125 0.1875q0.359375 0 0.671875 -0.09375q0.3125 -0.109375 0.65625 -0.3125l0 -3.34375l0.640625 0l0 4.265625l-0.5 0l-0.140625 -0.46875q-0.8125 0.515625 -1.609375 0.515625zm4.860199 -0.046875q-0.640625 0 -0.9375 -0.3125q-0.296875 -0.328125 -0.28125 -1.078125l0.03125 -2.359375l-0.6875 0l0 -0.40625l0.6875 -0.109375l0.109375 -1.203125l0.484375 0l0 1.203125l1.234375 0l0 0.515625l-1.234375 0l0 2.359375q0 0.5 0.1875 0.6875q0.1875 0.171875 0.46875 0.1875l0.515625 0.046875l0 0.46875l-0.578125 0zm1.5140686 -4.265625l0.484375 0l0.140625 0.734375q0.3125 -0.375 0.671875 -0.578125q0.359375 -0.203125 0.796875 -0.203125q0.21875 0 0.40625 0.03125l0 0.65625q-0.359375 -0.046875 -0.46875 -0.046875q-0.421875 0 -0.734375 0.15625q-0.3125 0.140625 -0.671875 0.484375l0 3.03125l-0.625 0l0 -4.265625zm4.9209595 4.3125q-0.6875 0 -1.0625 -0.203125q-0.375 -0.203125 -0.546875 -0.671875q-0.171875 -0.46875 -0.171875 -1.3125q0 -0.859375 0.171875 -1.328125q0.171875 -0.46875 0.546875 -0.65625q0.390625 -0.203125 1.078125 -0.203125q0.578125 0 0.921875 0.125q0.359375 0.125 0.53125 0.4375q0.171875 0.3125 0.171875 0.859375q0 0.53125 -0.328125 0.78125q-0.3125 0.25 -0.890625 0.25l-1.5625 0q0 0.546875 0.09375 0.84375q0.109375 0.296875 0.390625 0.4375q0.28125 0.140625 0.8125 0.140625l1.375 0l0 0.390625q-0.421875 0.046875 -0.765625 0.078125q-0.34375 0.03125 -0.765625 0.03125zm0.359375 -2.34375q0.375 0 0.53125 -0.125q0.171875 -0.140625 0.171875 -0.484375q0 -0.53125 -0.234375 -0.734375q-0.234375 -0.203125 -0.8125 -0.203125q-0.46875 0 -0.71875 0.140625q-0.25 0.125 -0.359375 0.453125q-0.09375 0.328125 -0.09375 0.953125l1.515625 0zm3.171692 2.34375q-0.484375 0 -0.78125 -0.28125q-0.296875 -0.296875 -0.296875 -0.796875l0 -0.296875q0 -0.515625 0.34375 -0.8125q0.34375 -0.3125 1.0 -0.3125l1.4375 0l0 -0.53125q0 -0.4375 -0.234375 -0.640625q-0.234375 -0.203125 -0.859375 -0.203125l-1.328125 0l0 -0.375q0.75 -0.140625 1.546875 -0.140625q0.78125 0 1.140625 0.328125q0.375 0.3125 0.375 1.0l0 3.015625l-0.5 0l-0.109375 -0.484375q-0.0625 0.046875 -0.359375 0.1875q-0.28125 0.125 -0.65625 0.234375q-0.375 0.109375 -0.71875 0.109375zm0.28125 -0.46875q0.21875 0 0.53125 -0.078125q0.3125 -0.078125 0.5625 -0.171875q0.25 -0.09375 0.328125 -0.125l0 -1.34375l-1.296875 0.0625q-0.4375 0.015625 -0.65625 0.21875q-0.203125 0.203125 -0.203125 0.546875l0 0.1875q0 0.359375 0.21875 0.53125q0.21875 0.171875 0.515625 0.171875zm4.7974243 0.46875q-0.8125 0 -1.265625 -0.46875q-0.4375 -0.484375 -0.4375 -1.703125q0 -0.859375 0.203125 -1.328125q0.203125 -0.484375 0.578125 -0.671875q0.375 -0.1875 0.9375 -0.1875q0.765625 0 1.421875 0.109375l0 0.375l-1.25 0q-0.4375 0 -0.703125 0.140625q-0.265625 0.140625 -0.40625 0.515625q-0.140625 0.375 -0.140625 1.0625q0 0.65625 0.140625 1.015625q0.15625 0.359375 0.421875 0.5q0.265625 0.140625 0.703125 0.140625l1.296875 0l0 0.375q-0.75 0.125 -1.5 0.125zm2.373108 -6.15625l0.625 0l0 2.3125q0.328125 -0.234375 0.734375 -0.390625q0.421875 -0.15625 0.84375 -0.15625q0.640625 0 0.96875 0.40625q0.34375 0.390625 0.34375 1.03125l0 2.90625l-0.640625 0l0 -2.84375q0 -0.40625 -0.234375 -0.65625q-0.234375 -0.265625 -0.65625 -0.265625q-0.375 0 -0.6875 0.109375q-0.296875 0.09375 -0.671875 0.296875l0 3.359375l-0.625 0l0 -6.109375z" fill-rule="nonzero"></path><path fill="#b6d7a8" d="m127.332375 217.02515l0 0c0 -24.613632 18.71238 -44.566925 41.79528 -44.566925l0 0c11.084793 0 21.715576 4.6954193 29.55371 13.053345c7.838135 8.357925 12.241562 19.693695 12.241562 31.51358l0 0c0 24.613632 -18.712387 44.566925 -41.795273 44.566925l0 0c-23.082901 0 -41.79528 -19.953293 -41.79528 -44.566925z" fill-rule="evenodd"></path><path stroke="#000000" stroke-width="1.0" stroke-linejoin="round" stroke-linecap="butt" d="m127.332375 217.02515l0 0c0 -24.613632 18.71238 -44.566925 41.79528 -44.566925l0 0c11.084793 0 21.715576 4.6954193 29.55371 13.053345c7.838135 8.357925 12.241562 19.693695 12.241562 31.51358l0 0c0 24.613632 -18.712387 44.566925 -41.795273 44.566925l0 0c-23.082901 0 -41.79528 -19.953293 -41.79528 -44.566925z" fill-rule="evenodd"></path><path fill="#000000" fill-opacity="0.0" d="m127.332375 202.45918l83.59055 0l0 29.102356l-83.59055 0z" fill-rule="evenodd"></path><path fill="#000000" d="m148.56119 219.73724q-0.375 0 -0.9375 -0.046875q-0.546875 -0.046875 -0.84375 -0.09375l0 -0.484375q0.625 0.0625 1.765625 0.0625q0.609375 0 0.9375 -0.1875q0.34375 -0.203125 0.34375 -0.703125l0 -0.40625q0 -0.828125 -0.890625 -0.828125l-0.625 0q-0.765625 0 -1.15625 -0.328125q-0.390625 -0.328125 -0.390625 -1.09375l0 -0.34375q0 -0.796875 0.421875 -1.15625q0.4375 -0.375 1.28125 -0.375q0.359375 0 0.859375 0.0625q0.515625 0.046875 0.84375 0.109375l0 0.484375q-1.078125 -0.078125 -1.640625 -0.078125q-0.59375 0 -0.875 0.21875q-0.28125 0.203125 -0.28125 0.765625l0 0.265625q0 0.46875 0.234375 0.671875q0.25 0.1875 0.734375 0.1875l0.671875 0q0.703125 0 1.0625 0.375q0.359375 0.375 0.359375 1.0l0 0.453125q0 0.828125 -0.5 1.15625q-0.5 0.3125 -1.375 0.3125zm4.639572 0q-0.65625 0 -1.0625 -0.171875q-0.390625 -0.1875 -0.59375 -0.65625q-0.1875 -0.484375 -0.1875 -1.359375q0 -0.890625 0.203125 -1.359375q0.203125 -0.46875 0.59375 -0.640625q0.390625 -0.1875 1.046875 -0.1875q0.65625 0 1.0625 0.1875q0.40625 0.171875 0.59375 0.65625q0.203125 0.46875 0.203125 1.34375q0 0.875 -0.203125 1.359375q-0.1875 0.46875 -0.59375 0.65625q-0.390625 0.171875 -1.0625 0.171875zm0 -0.515625q0.453125 0 0.703125 -0.109375q0.25 -0.125 0.375 -0.484375q0.140625 -0.359375 0.140625 -1.078125q0 -0.71875 -0.140625 -1.078125q-0.125 -0.359375 -0.375 -0.46875q-0.25 -0.125 -0.703125 -0.125q-0.4375 0 -0.6875 0.125q-0.25 0.109375 -0.390625 0.46875q-0.125 0.359375 -0.125 1.078125q0 0.71875 0.125 1.078125q0.140625 0.359375 0.390625 0.484375q0.25 0.109375 0.6875 0.109375zm4.4753113 0.515625q-0.8125 0 -1.265625 -0.46875q-0.4375 -0.484375 -0.4375 -1.703125q0 -0.859375 0.203125 -1.328125q0.203125 -0.484375 0.578125 -0.671875q0.375 -0.1875 0.9375 -0.1875q0.765625 0 1.421875 0.109375l0 0.375l-1.25 0q-0.4375 0 -0.703125 0.140625q-0.265625 0.140625 -0.40625 0.515625q-0.140625 0.375 -0.140625 1.0625q0 0.65625 0.140625 1.015625q0.15625 0.359375 0.421875 0.5q0.265625 0.140625 0.703125 0.140625l1.296875 0l0 0.375q-0.75 0.125 -1.5 0.125zm2.4668274 -5.078125q-0.0625 0 -0.09375 -0.03125q-0.03125 -0.046875 -0.03125 -0.09375l0 -0.625q0 -0.125 0.125 -0.125l0.453125 0q0.109375 0 0.109375 0.125l0 0.625q0 0.125 -0.109375 0.125l-0.453125 0zm-0.09375 0.765625l0.625 0l0 4.265625l-0.625 0l0 -4.265625zm2.6761017 4.3125q-0.484375 0 -0.78125 -0.28125q-0.296875 -0.296875 -0.296875 -0.796875l0 -0.296875q0 -0.515625 0.34375 -0.8125q0.34375 -0.3125 1.0 -0.3125l1.4375 0l0 -0.53125q0 -0.4375 -0.234375 -0.640625q-0.234375 -0.203125 -0.859375 -0.203125l-1.328125 0l0 -0.375q0.75 -0.140625 1.546875 -0.140625q0.78125 0 1.140625 0.328125q0.375 0.3125 0.375 1.0l0 3.015625l-0.5 0l-0.109375 -0.484375q-0.0625 0.046875 -0.359375 0.1875q-0.28125 0.125 -0.65625 0.234375q-0.375 0.109375 -0.71875 0.109375zm0.28125 -0.46875q0.21875 0 0.53125 -0.078125q0.3125 -0.078125 0.5625 -0.171875q0.25 -0.09375 0.328125 -0.125l0 -1.34375l-1.296875 0.0625q-0.4375 0.015625 -0.65625 0.21875q-0.203125 0.203125 -0.203125 0.546875l0 0.1875q0 0.359375 0.21875 0.53125q0.21875 0.171875 0.515625 0.171875zm4.3755646 0.4375q-0.578125 0 -0.859375 -0.3125q-0.265625 -0.3125 -0.265625 -1.078125l0 -4.734375l0.625 0l0 4.65625q0 0.53125 0.140625 0.734375q0.15625 0.1875 0.46875 0.21875l0.421875 0.046875l0 0.46875l-0.53125 0zm8.386948 -0.015625l-0.5625 -4.890625l-1.421875 4.890625l-0.578125 0l-1.4375 -4.84375l-0.53125 4.84375l-0.625 0l0.671875 -5.890625l0.65625 0l1.5625 5.09375l1.53125 -5.09375l0.65625 0l0.6875 5.890625l-0.609375 0zm3.3049164 0.046875q-0.6875 0 -1.0625 -0.203125q-0.375 -0.203125 -0.546875 -0.671875q-0.171875 -0.46875 -0.171875 -1.3125q0 -0.859375 0.171875 -1.328125q0.171875 -0.46875 0.546875 -0.65625q0.390625 -0.203125 1.078125 -0.203125q0.578125 0 0.921875 0.125q0.359375 0.125 0.53125 0.4375q0.171875 0.3125 0.171875 0.859375q0 0.53125 -0.328125 0.78125q-0.3125 0.25 -0.890625 0.25l-1.5625 0q0 0.546875 0.09375 0.84375q0.109375 0.296875 0.390625 0.4375q0.28125 0.140625 0.8125 0.140625l1.375 0l0 0.390625q-0.421875 0.046875 -0.765625 0.078125q-0.34375 0.03125 -0.765625 0.03125zm0.359375 -2.34375q0.375 0 0.53125 -0.125q0.171875 -0.140625 0.171875 -0.484375q0 -0.53125 -0.234375 -0.734375q-0.234375 -0.203125 -0.8125 -0.203125q-0.46875 0 -0.71875 0.140625q-0.25 0.125 -0.359375 0.453125q-0.09375 0.328125 -0.09375 0.953125l1.515625 0zm3.718567 2.34375q-0.78125 0 -1.15625 -0.515625q-0.375 -0.515625 -0.375 -1.640625q0 -0.796875 0.15625 -1.28125q0.171875 -0.484375 0.515625 -0.703125q0.359375 -0.234375 0.953125 -0.234375q0.609375 0 1.3125 0.25l0 -2.03125l0.625 0l0 6.109375l-0.515625 0l-0.109375 -0.4375q-0.203125 0.171875 -0.625 0.328125q-0.421875 0.15625 -0.78125 0.15625zm0.1875 -0.515625q0.34375 0 0.625 -0.09375q0.28125 -0.109375 0.59375 -0.265625l0 -2.796875q-0.375 -0.109375 -0.625 -0.15625q-0.234375 -0.046875 -0.53125 -0.046875q-0.421875 0 -0.671875 0.15625q-0.25 0.15625 -0.359375 0.53125q-0.109375 0.359375 -0.109375 1.015625q0 0.890625 0.234375 1.28125q0.25 0.375 0.84375 0.375zm3.131195 -4.5625q-0.0625 0 -0.09375 -0.03125q-0.03125 -0.046875 -0.03125 -0.09375l0 -0.625q0 -0.125 0.125 -0.125l0.453125 0q0.109375 0 0.109375 0.125l0 0.625q0 0.125 -0.109375 0.125l-0.453125 0zm-0.09375 0.765625l0.625 0l0 4.265625l-0.625 0l0 -4.265625zm2.6761017 4.3125q-0.484375 0 -0.78125 -0.28125q-0.296875 -0.296875 -0.296875 -0.796875l0 -0.296875q0 -0.515625 0.34375 -0.8125q0.34375 -0.3125 1.0 -0.3125l1.4375 0l0 -0.53125q0 -0.4375 -0.234375 -0.640625q-0.234375 -0.203125 -0.859375 -0.203125l-1.328125 0l0 -0.375q0.75 -0.140625 1.546875 -0.140625q0.78125 0 1.140625 0.328125q0.375 0.3125 0.375 1.0l0 3.015625l-0.5 0l-0.109375 -0.484375q-0.0625 0.046875 -0.359375 0.1875q-0.28125 0.125 -0.65625 0.234375q-0.375 0.109375 -0.71875 0.109375zm0.28125 -0.46875q0.21875 0 0.53125 -0.078125q0.3125 -0.078125 0.5625 -0.171875q0.25 -0.09375 0.328125 -0.125l0 -1.34375l-1.296875 0.0625q-0.4375 0.015625 -0.65625 0.21875q-0.203125 0.203125 -0.203125 0.546875l0 0.1875q0 0.359375 0.21875 0.53125q0.21875 0.171875 0.515625 0.171875z" fill-rule="nonzero"></path><path fill="#b6d7a8" d="m401.19058 297.71127l0 0c0 -24.613617 18.712402 -44.56691 41.795288 -44.56691l0 0c11.084808 0 21.715576 4.6954193 29.55371 13.05336c7.838135 8.35791 12.241577 19.693665 12.241577 31.51355l0 0c0 24.613647 -18.712402 44.566956 -41.795288 44.566956l0 0c-23.082886 0 -41.795288 -19.953308 -41.795288 -44.566956z" fill-rule="evenodd"></path><path stroke="#000000" stroke-width="1.0" stroke-linejoin="round" stroke-linecap="butt" d="m401.19058 297.71127l0 0c0 -24.613617 18.712402 -44.56691 41.795288 -44.56691l0 0c11.084808 0 21.715576 4.6954193 29.55371 13.05336c7.838135 8.35791 12.241577 19.693665 12.241577 31.51355l0 0c0 24.613647 -18.712402 44.566956 -41.795288 44.566956l0 0c-23.082886 0 -41.795288 -19.953308 -41.795288 -44.566956z" fill-rule="evenodd"></path><path fill="#000000" fill-opacity="0.0" d="m406.5062 288.87833l72.944885 0l0 17.637787l-72.944885 0z" fill-rule="evenodd"></path><path fill="#000000" d="m425.00824 294.4866l2.140625 0q1.515625 0 1.515625 1.515625q0 0.53125 -0.234375 0.875q-0.234375 0.34375 -0.59375 0.4375q0.390625 0.09375 0.703125 0.453125q0.328125 0.34375 0.328125 0.984375q0 0.890625 -0.421875 1.265625q-0.40625 0.359375 -1.21875 0.359375l-2.21875 0l0 -5.890625zm2.171875 2.609375q0.390625 0 0.625 -0.28125q0.25 -0.296875 0.25 -0.796875q0 -0.953125 -0.90625 -0.953125l-1.5 0l0 2.03125l1.53125 0zm0.03125 2.71875q0.5 0 0.765625 -0.25q0.28125 -0.265625 0.28125 -0.921875q0 -0.484375 -0.296875 -0.765625q-0.296875 -0.28125 -0.75 -0.28125l-1.5625 0l0 2.21875l1.5625 0zm3.886444 0.609375q-1.28125 0 -1.28125 -1.3125l0 -3.0l0.640625 0l0 2.84375q0 0.515625 0.21875 0.71875q0.234375 0.1875 0.703125 0.1875q0.359375 0 0.671875 -0.09375q0.3125 -0.109375 0.65625 -0.3125l0 -3.34375l0.640625 0l0 4.265625l-0.5 0l-0.140625 -0.46875q-0.8125 0.515625 -1.609375 0.515625zm4.813324 0q-0.78125 0 -1.15625 -0.515625q-0.375 -0.515625 -0.375 -1.640625q0 -0.796875 0.15625 -1.28125q0.171875 -0.484375 0.515625 -0.703125q0.359375 -0.234375 0.953125 -0.234375q0.609375 0 1.3125 0.25l0 -2.03125l0.625 0l0 6.109375l-0.515625 0l-0.109375 -0.4375q-0.203125 0.171875 -0.625 0.328125q-0.421875 0.15625 -0.78125 0.15625zm0.1875 -0.515625q0.34375 0 0.625 -0.09375q0.28125 -0.109375 0.59375 -0.265625l0 -2.796875q-0.375 -0.109375 -0.625 -0.15625q-0.234375 -0.046875 -0.53125 -0.046875q-0.421875 0 -0.671875 0.15625q-0.25 0.15625 -0.359375 0.53125q-0.109375 0.359375 -0.109375 1.015625q0 0.890625 0.234375 1.28125q0.25 0.375 0.84375 0.375zm6.849945 -3.453125l-0.953125 0.078125q0.15625 0.109375 0.265625 0.21875q0.109375 0.109375 0.1875 0.328125q0.09375 0.21875 0.09375 0.546875q0 0.5625 -0.375 0.9375q-0.359375 0.359375 -1.140625 0.359375l-0.6875 0q-0.359375 0 -0.546875 0.109375q-0.171875 0.109375 -0.171875 0.359375q0 0.171875 0.125 0.265625q0.140625 0.078125 0.3125 0.078125l1.421875 0q0.75 0 1.109375 0.296875q0.359375 0.28125 0.359375 0.875l0 0.1875q0 0.578125 -0.40625 0.90625q-0.40625 0.328125 -1.171875 0.328125l-1.1875 0q-0.640625 0 -1.03125 -0.265625q-0.375 -0.265625 -0.375 -0.78125l0 -0.1875q0 -0.359375 0.1875 -0.609375q0.1875 -0.25 0.5 -0.375q-0.1875 -0.109375 -0.296875 -0.265625q-0.109375 -0.171875 -0.109375 -0.375q0 -0.609375 0.71875 -0.75q-0.40625 -0.171875 -0.578125 -0.5q-0.171875 -0.34375 -0.171875 -0.75q0 -1.375 1.640625 -1.375l2.28125 0l0 0.359375zm-1.984375 1.984375q0.546875 0 0.765625 -0.234375q0.234375 -0.25 0.234375 -0.640625q0 -0.96875 -0.9375 -0.96875l-0.453125 0q-0.484375 0 -0.734375 0.21875q-0.234375 0.203125 -0.234375 0.6875q0 0.9375 0.875 0.9375l0.484375 0zm-0.671875 1.796875q-0.375 0 -0.65625 0.1875q-0.265625 0.1875 -0.265625 0.5625l0 0.171875q0 0.71875 0.953125 0.71875l1.0 0q0.484375 0 0.75 -0.1875q0.28125 -0.1875 0.28125 -0.578125l0 -0.15625q0 -0.34375 -0.21875 -0.53125q-0.21875 -0.1875 -0.734375 -0.1875l-1.109375 0zm5.0766907 0.1875q-0.6875 0 -1.0625 -0.203125q-0.375 -0.203125 -0.546875 -0.671875q-0.171875 -0.46875 -0.171875 -1.3125q0 -0.859375 0.171875 -1.328125q0.171875 -0.46875 0.546875 -0.65625q0.390625 -0.203125 1.078125 -0.203125q0.578125 0 0.921875 0.125q0.359375 0.125 0.53125 0.4375q0.171875 0.3125 0.171875 0.859375q0 0.53125 -0.328125 0.78125q-0.3125 0.25 -0.890625 0.25l-1.5625 0q0 0.546875 0.09375 0.84375q0.109375 0.296875 0.390625 0.4375q0.28125 0.140625 0.8125 0.140625l1.375 0l0 0.390625q-0.421875 0.046875 -0.765625 0.078125q-0.34375 0.03125 -0.765625 0.03125zm0.359375 -2.34375q0.375 0 0.53125 -0.125q0.171875 -0.140625 0.171875 -0.484375q0 -0.53125 -0.234375 -0.734375q-0.234375 -0.203125 -0.8125 -0.203125q-0.46875 0 -0.71875 0.140625q-0.25 0.125 -0.359375 0.453125q-0.09375 0.328125 -0.09375 0.953125l1.515625 0zm3.765442 2.296875q-0.640625 0 -0.9375 -0.3125q-0.296875 -0.328125 -0.28125 -1.078125l0.03125 -2.359375l-0.6875 0l0 -0.40625l0.6875 -0.109375l0.109375 -1.203125l0.484375 0l0 1.203125l1.234375 0l0 0.515625l-1.234375 0l0 2.359375q0 0.5 0.1875 0.6875q0.1875 0.171875 0.46875 0.1875l0.515625 0.046875l0 0.46875l-0.578125 0zm1.6078186 -5.03125q-0.0625 0 -0.09375 -0.03125q-0.03125 -0.046875 -0.03125 -0.09375l0 -0.625q0 -0.125 0.125 -0.125l0.453125 0q0.109375 0 0.109375 0.125l0 0.625q0 0.125 -0.109375 0.125l-0.453125 0zm-0.09375 0.765625l0.625 0l0 4.265625l-0.625 0l0 -4.265625zm1.847992 0l0.5 0l0.125 0.46875q0.34375 -0.234375 0.75 -0.390625q0.40625 -0.15625 0.8125 -0.15625q0.671875 0 1.0 0.40625q0.328125 0.40625 0.328125 1.03125l0 2.90625l-0.640625 0l0 -2.828125q0 -0.421875 -0.234375 -0.671875q-0.234375 -0.265625 -0.65625 -0.265625q-0.375 0 -0.6875 0.109375q-0.296875 0.09375 -0.671875 0.296875l0 3.359375l-0.625 0l0 -4.265625zm8.516418 0.34375l-0.953125 0.078125q0.15625 0.109375 0.265625 0.21875q0.109375 0.109375 0.1875 0.328125q0.09375 0.21875 0.09375 0.546875q0 0.5625 -0.375 0.9375q-0.359375 0.359375 -1.140625 0.359375l-0.6875 0q-0.359375 0 -0.546875 0.109375q-0.171875 0.109375 -0.171875 0.359375q0 0.171875 0.125 0.265625q0.140625 0.078125 0.3125 0.078125l1.421875 0q0.75 0 1.109375 0.296875q0.359375 0.28125 0.359375 0.875l0 0.1875q0 0.578125 -0.40625 0.90625q-0.40625 0.328125 -1.171875 0.328125l-1.1875 0q-0.640625 0 -1.03125 -0.265625q-0.375 -0.265625 -0.375 -0.78125l0 -0.1875q0 -0.359375 0.1875 -0.609375q0.1875 -0.25 0.5 -0.375q-0.1875 -0.109375 -0.296875 -0.265625q-0.109375 -0.171875 -0.109375 -0.375q0 -0.609375 0.71875 -0.75q-0.40625 -0.171875 -0.578125 -0.5q-0.171875 -0.34375 -0.171875 -0.75q0 -1.375 1.640625 -1.375l2.28125 0l0 0.359375zm-1.984375 1.984375q0.546875 0 0.765625 -0.234375q0.234375 -0.25 0.234375 -0.640625q0 -0.96875 -0.9375 -0.96875l-0.453125 0q-0.484375 0 -0.734375 0.21875q-0.234375 0.203125 -0.234375 0.6875q0 0.9375 0.875 0.9375l0.484375 0zm-0.671875 1.796875q-0.375 0 -0.65625 0.1875q-0.265625 0.1875 -0.265625 0.5625l0 0.171875q0 0.71875 0.953125 0.71875l1.0 0q0.484375 0 0.75 -0.1875q0.28125 -0.1875 0.28125 -0.578125l0 -0.15625q0 -0.34375 -0.21875 -0.53125q-0.21875 -0.1875 -0.734375 -0.1875l-1.109375 0z" fill-rule="nonzero"></path><path fill="#b6d7a8" d="m231.35982 216.64996l0 0c0 -24.613647 20.34108 -44.56694 45.43306 -44.56694l0 0c12.049622 0 23.605682 4.6954346 32.126038 13.05336c8.520355 8.35791 13.307037 19.693695 13.307037 31.51358l0 0c0 24.613632 -20.341064 44.566925 -45.433075 44.566925l0 0c-25.09198 0 -45.43306 -19.953293 -45.43306 -44.566925z" fill-rule="evenodd"></path><path stroke="#000000" stroke-width="1.0" stroke-linejoin="round" stroke-linecap="butt" d="m231.35982 216.64996l0 0c0 -24.613647 20.34108 -44.56694 45.43306 -44.56694l0 0c12.049622 0 23.605682 4.6954346 32.126038 13.05336c8.520355 8.35791 13.307037 19.693695 13.307037 31.51358l0 0c0 24.613632 -20.341064 44.566925 -45.433075 44.566925l0 0c-25.09198 0 -45.43306 -19.953293 -45.43306 -44.566925z" fill-rule="evenodd"></path><path fill="#000000" fill-opacity="0.0" d="m234.99837 203.85123l83.59056 0l0 25.574814l-83.59056 0z" fill-rule="evenodd"></path><path fill="#000000" d="m255.79932 209.61551q0 -0.625 0.328125 -0.90625q0.34375 -0.28125 0.84375 -0.28125l0.4375 0.015625q0.203125 0 0.84375 0.015625q0.640625 0.015625 1.171875 0.046875l0 0.515625l-2.3125 0q-0.3125 0 -0.5 0.1875q-0.171875 0.171875 -0.171875 0.5l0 1.53125l2.640625 0.03125l0 0.5l-2.640625 0.03125l0 2.515625l-0.640625 0l0 -4.703125zm5.801544 4.75q-1.28125 0 -1.28125 -1.3125l0 -3.0l0.640625 0l0 2.84375q0 0.515625 0.21875 0.71875q0.234375 0.1875 0.703125 0.1875q0.359375 0 0.671875 -0.09375q0.3125 -0.109375 0.65625 -0.3125l0 -3.34375l0.640625 0l0 4.265625l-0.5 0l-0.140625 -0.46875q-0.8125 0.515625 -1.609375 0.515625zm3.438324 -4.3125l0.5 0l0.125 0.46875q0.34375 -0.234375 0.75 -0.390625q0.40625 -0.15625 0.8125 -0.15625q0.671875 0 1.0 0.40625q0.328125 0.40625 0.328125 1.03125l0 2.90625l-0.640625 0l0 -2.828125q0 -0.421875 -0.234375 -0.671875q-0.234375 -0.265625 -0.65625 -0.265625q-0.375 0 -0.6875 0.109375q-0.296875 0.09375 -0.671875 0.296875l0 3.359375l-0.625 0l0 -4.265625zm6.0789185 4.3125q-0.78125 0 -1.15625 -0.515625q-0.375 -0.515625 -0.375 -1.640625q0 -0.796875 0.15625 -1.28125q0.171875 -0.484375 0.515625 -0.703125q0.359375 -0.234375 0.953125 -0.234375q0.609375 0 1.3125 0.25l0 -2.03125l0.625 0l0 6.109375l-0.515625 0l-0.109375 -0.4375q-0.203125 0.171875 -0.625 0.328125q-0.421875 0.15625 -0.78125 0.15625zm0.1875 -0.515625q0.34375 0 0.625 -0.09375q0.28125 -0.109375 0.59375 -0.265625l0 -2.796875q-0.375 -0.109375 -0.625 -0.15625q-0.234375 -0.046875 -0.53125 -0.046875q-0.421875 0 -0.671875 0.15625q-0.25 0.15625 -0.359375 0.53125q-0.109375 0.359375 -0.109375 1.015625q0 0.890625 0.234375 1.28125q0.25 0.375 0.84375 0.375zm3.037445 -3.796875l0.484375 0l0.140625 0.734375q0.3125 -0.375 0.671875 -0.578125q0.359375 -0.203125 0.796875 -0.203125q0.21875 0 0.40625 0.03125l0 0.65625q-0.359375 -0.046875 -0.46875 -0.046875q-0.421875 0 -0.734375 0.15625q-0.3125 0.140625 -0.671875 0.484375l0 3.03125l-0.625 0l0 -4.265625zm4.1240845 4.3125q-0.484375 0 -0.78125 -0.28125q-0.296875 -0.296875 -0.296875 -0.796875l0 -0.296875q0 -0.515625 0.34375 -0.8125q0.34375 -0.3125 1.0 -0.3125l1.4375 0l0 -0.53125q0 -0.4375 -0.234375 -0.640625q-0.234375 -0.203125 -0.859375 -0.203125l-1.328125 0l0 -0.375q0.75 -0.140625 1.546875 -0.140625q0.78125 0 1.140625 0.328125q0.375 0.3125 0.375 1.0l0 3.015625l-0.5 0l-0.109375 -0.484375q-0.0625 0.046875 -0.359375 0.1875q-0.28125 0.125 -0.65625 0.234375q-0.375 0.109375 -0.71875 0.109375zm0.28125 -0.46875q0.21875 0 0.53125 -0.078125q0.3125 -0.078125 0.5625 -0.171875q0.25 -0.09375 0.328125 -0.125l0 -1.34375l-1.296875 0.0625q-0.4375 0.015625 -0.65625 0.21875q-0.203125 0.203125 -0.203125 0.546875l0 0.1875q0 0.359375 0.21875 0.53125q0.21875 0.171875 0.515625 0.171875zm3.3443298 -4.609375q-0.0625 0 -0.09375 -0.03125q-0.03125 -0.046875 -0.03125 -0.09375l0 -0.625q0 -0.125 0.125 -0.125l0.453125 0q0.109375 0 0.109375 0.125l0 0.625q0 0.125 -0.109375 0.125l-0.453125 0zm-0.09375 0.765625l0.625 0l0 4.265625l-0.625 0l0 -4.265625zm3.3167114 4.3125q-0.359375 0 -0.90625 -0.03125q-0.546875 -0.03125 -0.734375 -0.078125l0 -0.390625l1.75 0q0.4375 0 0.640625 -0.109375q0.21875 -0.125 0.21875 -0.515625l0 -0.1875q0 -0.59375 -0.78125 -0.59375l-0.59375 0q-0.609375 0 -0.953125 -0.234375q-0.328125 -0.25 -0.328125 -0.828125l0 -0.21875q0 -0.609375 0.359375 -0.890625q0.359375 -0.28125 1.140625 -0.28125q0.34375 0 0.8125 0.046875q0.46875 0.03125 0.734375 0.078125l0 0.375l-1.640625 0q-0.4375 0 -0.65625 0.15625q-0.203125 0.140625 -0.203125 0.515625l0 0.171875q0 0.34375 0.203125 0.46875q0.21875 0.109375 0.640625 0.109375l0.609375 0q0.578125 0 0.890625 0.28125q0.328125 0.265625 0.328125 0.765625l0 0.296875q0 0.609375 -0.390625 0.859375q-0.390625 0.234375 -1.140625 0.234375zm2.6249695 -5.078125q-0.0625 0 -0.09375 -0.03125q-0.03125 -0.046875 -0.03125 -0.09375l0 -0.625q0 -0.125 0.125 -0.125l0.453125 0q0.109375 0 0.109375 0.125l0 0.625q0 0.125 -0.109375 0.125l-0.453125 0zm-0.09375 0.765625l0.625 0l0 4.265625l-0.625 0l0 -4.265625zm1.8479614 0l0.5 0l0.125 0.46875q0.34375 -0.234375 0.75 -0.390625q0.40625 -0.15625 0.8125 -0.15625q0.671875 0 1.0 0.40625q0.328125 0.40625 0.328125 1.03125l0 2.90625l-0.640625 0l0 -2.828125q0 -0.421875 -0.234375 -0.671875q-0.234375 -0.265625 -0.65625 -0.265625q-0.375 0 -0.6875 0.109375q-0.296875 0.09375 -0.671875 0.296875l0 3.359375l-0.625 0l0 -4.265625zm8.516449 0.34375l-0.953125 0.078125q0.15625 0.109375 0.265625 0.21875q0.109375 0.109375 0.1875 0.328125q0.09375 0.21875 0.09375 0.546875q0 0.5625 -0.375 0.9375q-0.359375 0.359375 -1.140625 0.359375l-0.6875 0q-0.359375 0 -0.546875 0.109375q-0.171875 0.109375 -0.171875 0.359375q0 0.171875 0.125 0.265625q0.140625 0.078125 0.3125 0.078125l1.421875 0q0.75 0 1.109375 0.296875q0.359375 0.28125 0.359375 0.875l0 0.1875q0 0.578125 -0.40625 0.90625q-0.40625 0.328125 -1.171875 0.328125l-1.1875 0q-0.640625 0 -1.03125 -0.265625q-0.375 -0.265625 -0.375 -0.78125l0 -0.1875q0 -0.359375 0.1875 -0.609375q0.1875 -0.25 0.5 -0.375q-0.1875 -0.109375 -0.296875 -0.265625q-0.109375 -0.171875 -0.109375 -0.375q0 -0.609375 0.71875 -0.75q-0.40625 -0.171875 -0.578125 -0.5q-0.171875 -0.34375 -0.171875 -0.75q0 -1.375 1.640625 -1.375l2.28125 0l0 0.359375zm-1.984375 1.984375q0.546875 0 0.765625 -0.234375q0.234375 -0.25 0.234375 -0.640625q0 -0.96875 -0.9375 -0.96875l-0.453125 0q-0.484375 0 -0.734375 0.21875q-0.234375 0.203125 -0.234375 0.6875q0 0.9375 0.875 0.9375l0.484375 0zm-0.671875 1.796875q-0.375 0 -0.65625 0.1875q-0.265625 0.1875 -0.265625 0.5625l0 0.171875q0 0.71875 0.953125 0.71875l1.0 0q0.484375 0 0.75 -0.1875q0.28125 -0.1875 0.28125 -0.578125l0 -0.15625q0 -0.34375 -0.21875 -0.53125q-0.21875 -0.1875 -0.734375 -0.1875l-1.109375 0z" fill-rule="nonzero"></path><path fill="#000000" d="m266.1303 224.34988q-0.5 0 -0.859375 -0.234375q-0.34375 -0.234375 -0.34375 -0.90625l0 -3.59375q0 -0.625 0.328125 -0.90625q0.34375 -0.28125 0.84375 -0.28125q1.28125 0.03125 1.984375 0.0625l0.46875 0.015625l0 0.515625l-2.296875 0q-0.6875 0 -0.6875 0.703125l0 1.390625l2.640625 0.03125l0 0.484375l-2.640625 0.046875l0 1.390625q0 0.40625 0.1875 0.546875q0.203125 0.140625 0.53125 0.140625l2.265625 0l0 0.515625q-1.515625 0.078125 -2.421875 0.078125zm3.0397034 -4.296875l0.640625 0l1.328125 3.671875l1.375 -3.671875l0.640625 0l-1.65625 4.265625l-0.71875 0l-1.609375 -4.265625zm6.3660583 4.3125q-0.6875 0 -1.0625 -0.203125q-0.375 -0.203125 -0.546875 -0.671875q-0.171875 -0.46875 -0.171875 -1.3125q0 -0.859375 0.171875 -1.328125q0.171875 -0.46875 0.546875 -0.65625q0.390625 -0.203125 1.078125 -0.203125q0.578125 0 0.921875 0.125q0.359375 0.125 0.53125 0.4375q0.171875 0.3125 0.171875 0.859375q0 0.53125 -0.328125 0.78125q-0.3125 0.25 -0.890625 0.25l-1.5625 0q0 0.546875 0.09375 0.84375q0.109375 0.296875 0.390625 0.4375q0.28125 0.140625 0.8125 0.140625l1.375 0l0 0.390625q-0.421875 0.046875 -0.765625 0.078125q-0.34375 0.03125 -0.765625 0.03125zm0.359375 -2.34375q0.375 0 0.53125 -0.125q0.171875 -0.140625 0.171875 -0.484375q0 -0.53125 -0.234375 -0.734375q-0.234375 -0.203125 -0.8125 -0.203125q-0.46875 0 -0.71875 0.140625q-0.25 0.125 -0.359375 0.453125q-0.09375 0.328125 -0.09375 0.953125l1.515625 0zm2.343567 -1.96875l0.5 0l0.125 0.46875q0.34375 -0.234375 0.75 -0.390625q0.40625 -0.15625 0.8125 -0.15625q0.671875 0 1.0 0.40625q0.328125 0.40625 0.328125 1.03125l0 2.90625l-0.640625 0l0 -2.828125q0 -0.421875 -0.234375 -0.671875q-0.234375 -0.265625 -0.65625 -0.265625q-0.375 0 -0.6875 0.109375q-0.296875 0.09375 -0.671875 0.296875l0 3.359375l-0.625 0l0 -4.265625zm6.125824 4.265625q-0.640625 0 -0.9375 -0.3125q-0.296875 -0.328125 -0.28125 -1.078125l0.03125 -2.359375l-0.6875 0l0 -0.40625l0.6875 -0.109375l0.109375 -1.203125l0.484375 0l0 1.203125l1.234375 0l0 0.515625l-1.234375 0l0 2.359375q0 0.5 0.1875 0.6875q0.1875 0.171875 0.46875 0.1875l0.515625 0.046875l0 0.46875l-0.578125 0zm2.9828186 0.046875q-0.359375 0 -0.90625 -0.03125q-0.546875 -0.03125 -0.734375 -0.078125l0 -0.390625l1.75 0q0.4375 0 0.640625 -0.109375q0.21875 -0.125 0.21875 -0.515625l0 -0.1875q0 -0.59375 -0.78125 -0.59375l-0.59375 0q-0.609375 0 -0.953125 -0.234375q-0.328125 -0.25 -0.328125 -0.828125l0 -0.21875q0 -0.609375 0.359375 -0.890625q0.359375 -0.28125 1.140625 -0.28125q0.34375 0 0.8125 0.046875q0.46875 0.03125 0.734375 0.078125l0 0.375l-1.640625 0q-0.4375 0 -0.65625 0.15625q-0.203125 0.140625 -0.203125 0.515625l0 0.171875q0 0.34375 0.203125 0.46875q0.21875 0.109375 0.640625 0.109375l0.609375 0q0.578125 0 0.890625 0.28125q0.328125 0.265625 0.328125 0.765625l0 0.296875q0 0.609375 -0.390625 0.859375q-0.390625 0.234375 -1.140625 0.234375z" fill-rule="nonzero"></path><path fill="#000000" fill-opacity="0.0" d="m442.98984 131.27112l-166.20471 40.818893" fill-rule="evenodd"></path><path stroke="#ffffff" stroke-width="1.0" stroke-linejoin="round" stroke-linecap="butt" d="m442.98984 131.27112l-166.20471 40.818893" fill-rule="evenodd"></path><path fill="#000000" fill-opacity="0.0" d="m114.24224 131.27112l162.55118 40.818893" fill-rule="evenodd"></path><path stroke="#ffffff" stroke-width="1.0" stroke-linejoin="round" stroke-linecap="butt" d="m114.24224 131.27112l162.55118 40.818893" fill-rule="evenodd"></path><path fill="#000000" fill-opacity="0.0" d="m114.24224 131.27112l-58.519684 39.370087" fill-rule="evenodd"></path><path stroke="#ffffff" stroke-width="1.0" stroke-linejoin="round" stroke-linecap="butt" d="m114.24224 131.27112l-58.519684 39.370087" fill-rule="evenodd"></path><path fill="#000000" fill-opacity="0.0" d="m442.98984 131.27112l71.18112 42.23622" fill-rule="evenodd"></path><path stroke="#ffffff" stroke-width="1.0" stroke-linejoin="round" stroke-linecap="butt" d="m442.98984 131.27112l71.18112 42.23622" fill-rule="evenodd"></path><path fill="#000000" fill-opacity="0.0" d="m442.98984 131.27112l-58.2677 42.23622" fill-rule="evenodd"></path><path stroke="#ffffff" stroke-width="1.0" stroke-linejoin="round" stroke-linecap="butt" d="m442.98984 131.27112l-58.2677 42.23622" fill-rule="evenodd"></path><path fill="#000000" fill-opacity="0.0" d="m442.98984 131.27112l0 121.85828" fill-rule="evenodd"></path><path stroke="#ffffff" stroke-width="1.0" stroke-linejoin="round" stroke-linecap="butt" d="m442.98984 131.27112l0 121.85828" fill-rule="evenodd"></path></g></svg>

